<?xml version="1.0" encoding="utf-8"?>
<!-- Generator: Adobe Illustrator 15.0.0, SVG Export Plug-In . SVG Version: 6.00 Build 0)  -->
<!DOCTYPE svg PUBLIC "-//W3C//DTD SVG 1.1//EN" "http://www.w3.org/Graphics/SVG/1.1/DTD/svg11.dtd">
<svg version="1.1" id="Layer_1" xmlns="http://www.w3.org/2000/svg" xmlns:xlink="http://www.w3.org/1999/xlink" x="0px" y="0px"
	 width="595.279px" height="841.89px" viewBox="0 0 595.279 841.89" enable-background="new 0 0 595.279 841.89"
	 xml:space="preserve">
<title>ico_recruit</title>
<path fill="#484848" d="M294.229,441.004c-12.309,0.061-22.335-9.951-22.396-22.315s9.907-22.437,22.216-22.497
	c12.309-0.061,22.335,9.952,22.396,22.316c0,0.06,0,0.06,0,0.121C316.504,430.932,306.537,440.945,294.229,441.004z M294.229,397.7
	c-11.468-0.061-20.774,9.288-20.834,20.808s9.247,20.929,20.714,20.929c11.468,0.06,20.835-9.289,20.895-20.809v-0.061
	C315.003,407.048,305.697,397.7,294.229,397.7L294.229,397.7z"/>
<path fill="#484848" d="M309.299,434.31c-0.24,0-0.479-0.121-0.601-0.362l0,0c-0.06-0.12-0.119-0.302-0.119-0.422
	c0-6.092-3.604-9.168-10.748-9.168c-0.42,0-0.78-0.361-0.78-0.784v-3.739c0-0.362,0.3-0.724,0.66-0.784
	c0.841-0.121,1.261-1.387,1.261-1.387c0-0.061,0.061-0.121,0.061-0.181c0.24-0.362,0.66-0.482,1.021-0.422
	c0.36,0.061,0.9,0.121,1.621-1.146c0.12-0.241,0.36-0.724,0.24-1.025c-0.181-0.302-0.48-0.482-0.841-0.482
	c-0.36-0.061-0.601-0.422-0.601-0.784v-3.137c0-3.438-2.762-6.212-6.184-6.212c-0.42,0-0.78-0.362-0.78-0.784s0.36-0.784,0.78-0.784
	c4.263,0.061,7.625,3.498,7.625,7.78v2.594c0.54,0.181,1.021,0.603,1.321,1.146c0.3,0.784,0.239,1.688-0.301,2.413
	c-1.021,1.809-2.161,1.93-2.822,1.93c-0.359,0.784-0.9,1.388-1.681,1.75v2.413c7.505,0.241,11.468,3.92,11.528,10.675
	C310.08,433.948,309.72,434.25,309.299,434.31L309.299,434.31L309.299,434.31z"/>
<path fill="#484848" d="M279.219,434.31c-0.42,0-0.781-0.362-0.781-0.784l0,0v-0.061c0-6.755,4.023-10.374,11.528-10.615v-2.412
	c-0.721-0.362-1.321-1.025-1.681-1.749c-0.661,0-1.801-0.121-2.822-1.93c-0.48-0.724-0.601-1.628-0.3-2.413
	c0.3-0.543,0.72-0.965,1.321-1.146v-2.593c0-4.282,3.422-7.781,7.686-7.781c0.42,0,0.78,0.362,0.78,0.784s-0.36,0.784-0.78,0.784
	c-3.423,0-6.185,2.774-6.185,6.212v3.136c0,0.362-0.24,0.664-0.601,0.784c-0.36,0.06-0.6,0.241-0.84,0.482
	c-0.12,0.301,0.06,0.784,0.24,1.025c0.72,1.207,1.201,1.146,1.621,1.146c0.42-0.06,0.78,0.061,1.021,0.422
	c0.06,0.061,0.06,0.121,0.06,0.181c0,0,0.42,1.267,1.261,1.387c0.36,0.06,0.661,0.362,0.661,0.784v3.618
	c0,0.423-0.36,0.784-0.781,0.784c-7.145,0-10.747,3.076-10.747,9.168C279.999,433.948,279.639,434.31,279.219,434.31L279.219,434.31
	z"/>
<path fill="#484848" d="M318.306,446.192c-0.541,0-1.021-0.241-1.381-0.604l-9.247-9.228l1.081-1.086l9.187,9.228
	c0.18,0.182,0.48,0.182,0.66,0l0,0l1.562-1.567c0.18-0.182,0.18-0.482,0-0.664l-9.127-9.228l1.081-1.086l9.126,9.229
	c0.781,0.783,0.781,2.05,0,2.834l-1.561,1.568C319.326,445.951,318.786,446.192,318.306,446.192z"/>
</svg>
