<?xml version="1.0" encoding="utf-8"?>
<!-- Generator: Adobe Illustrator 15.0.0, SVG Export Plug-In . SVG Version: 6.00 Build 0)  -->
<!DOCTYPE svg PUBLIC "-//W3C//DTD SVG 1.1//EN" "http://www.w3.org/Graphics/SVG/1.1/DTD/svg11.dtd">
<svg version="1.1" id="Layer_1" xmlns="http://www.w3.org/2000/svg" xmlns:xlink="http://www.w3.org/1999/xlink" x="0px" y="0px"
	 width="52px" height="52px" viewBox="271.64 394.918 52 52" enable-background="new 271.64 394.918 52 52" xml:space="preserve">
<title>ico_VUL</title>
<path fill="#484848" d="M297.64,446.918c-14.378,0-26-11.645-26-26.051c0-13.486,10.324-24.751,23.729-25.943
	c0.433-0.054,0.811,0.271,0.811,0.704l0,0l0.919,12.62c0.054,0.433-0.27,0.758-0.703,0.812c-6.486,0.596-11.243,6.445-10.649,12.944
	c0.649,6.554,6.433,11.319,12.973,10.67c3.081-0.325,5.946-1.787,7.892-4.171c0.271-0.271,0.703-0.379,1.027-0.162l10.486,7.095
	c0.324,0.217,0.433,0.704,0.217,1.084l0,0C313.424,443.073,305.748,446.918,297.64,446.918z M294.775,396.549
	c-13.405,1.679-22.973,13.919-21.297,27.351c1.459,12.24,11.838,21.448,24.162,21.502c7.352,0,14.324-3.304,18.919-9.045
	l-9.243-6.282c-5.081,5.361-13.568,5.578-18.865,0.487c-5.352-5.091-5.568-13.594-0.487-18.902c2-2.112,4.703-3.521,7.568-4.008
	L294.775,396.549z"/>
<path fill="#484848" d="M320.181,432.836c-0.162,0-0.325-0.054-0.433-0.108l-10.595-7.203c-0.271-0.217-0.433-0.541-0.271-0.866
	c0.433-1.246,0.648-2.491,0.648-3.792c0-0.867-0.107-1.787-0.324-2.654c-0.108-0.379,0.108-0.758,0.486-0.867l12-4.008
	c0.379-0.108,0.812,0.108,0.974,0.488v0.054c0.648,2.275,0.973,4.658,0.973,7.041c0,4.008-0.919,7.962-2.703,11.59
	C320.775,432.728,320.505,432.891,320.181,432.836L320.181,432.836z M310.45,424.604l9.46,6.392
	c1.459-3.196,2.162-6.608,2.162-10.074c0-1.95-0.217-3.954-0.703-5.849l-10.595,3.52
	C311.154,420.542,311.045,422.655,310.45,424.604L310.45,424.604z"/>
<path fill="#484848" d="M308.667,415.505c-0.271,0-0.541-0.163-0.648-0.379c-1.514-2.708-3.946-4.712-6.92-5.633
	c-0.324-0.108-0.54-0.379-0.54-0.704l-0.973-13.053c0-0.217,0.054-0.433,0.216-0.596s0.379-0.217,0.595-0.217
	c8.648,0.921,16.271,6.174,20.271,13.974c0.216,0.379,0.054,0.813-0.324,1.029l0,0l-11.352,5.524
	C308.883,415.505,308.775,415.505,308.667,415.505z M302.019,408.248c2.864,0.975,5.351,2.924,6.918,5.524l10-4.82
	c-3.675-6.662-10.27-11.211-17.783-12.349L302.019,408.248z"/>
<path fill="#484848" d="M295.64,426.879c-0.271,0-0.541-0.217-0.595-0.487l-2.432-9.857c-0.108-0.325,0.108-0.65,0.432-0.758
	c0.324-0.108,0.649,0.108,0.757,0.433l2.433,9.857c0.054,0.325-0.108,0.649-0.433,0.758
	C295.748,426.879,295.694,426.879,295.64,426.879L295.64,426.879z"/>
<path fill="#484848" d="M295.64,426.879c-0.324,0-0.595-0.271-0.595-0.596c0-0.055,0-0.108,0-0.163l2.433-9.857
	c0.108-0.325,0.433-0.542,0.757-0.433c0.324,0.108,0.54,0.433,0.433,0.758l-2.433,9.857
	C296.18,426.716,295.91,426.879,295.64,426.879z"/>
<path fill="#484848" d="M300.559,426.879c-0.271,0-0.54-0.217-0.595-0.487l-2.432-9.857c-0.108-0.325,0.108-0.65,0.432-0.758
	c0.324-0.108,0.648,0.108,0.757,0.433l2.433,9.857c0.054,0.325-0.108,0.649-0.433,0.758
	C300.667,426.879,300.613,426.879,300.559,426.879L300.559,426.879z"/>
<path fill="#484848" d="M300.559,426.879c-0.324,0-0.595-0.271-0.595-0.596c0-0.055,0-0.108,0-0.163l2.433-9.857
	c0.108-0.325,0.433-0.542,0.757-0.433c0.324,0.108,0.54,0.433,0.433,0.758l0,0l-2.433,9.857
	C301.045,426.716,300.829,426.879,300.559,426.879z"/>
<path fill="#484848" d="M305.369,420h-14.594c-0.324-0.054-0.595-0.325-0.541-0.65c0.054-0.271,0.27-0.542,0.541-0.542h14.594
	c0.324,0.054,0.595,0.325,0.541,0.65C305.856,419.784,305.64,420,305.369,420z"/>
<path fill="#484848" d="M304.288,423.034h-12.432c-0.324-0.054-0.595-0.325-0.541-0.649c0.054-0.271,0.27-0.542,0.541-0.542h12.432
	c0.324,0.054,0.595,0.325,0.541,0.649C304.829,422.817,304.559,423.034,304.288,423.034z"/>
</svg>
