<?xml version="1.0" encoding="utf-8"?>
<!-- Generator: Adobe Illustrator 15.0.0, SVG Export Plug-In . SVG Version: 6.00 Build 0)  -->
<!DOCTYPE svg PUBLIC "-//W3C//DTD SVG 1.1//EN" "http://www.w3.org/Graphics/SVG/1.1/DTD/svg11.dtd">
<svg version="1.1" id="Layer_1" xmlns="http://www.w3.org/2000/svg" xmlns:xlink="http://www.w3.org/1999/xlink" x="0px" y="0px"
	 width="38px" height="47px" viewBox="282.113 397.445 38 47" enable-background="new 282.113 397.445 38 47" xml:space="preserve">
<title>ico_notice</title>
<g id="m4Nirp.tif">
	<path fill="#484848" d="M320.113,400.406"/>
	<path fill="#484848" d="M318.308,398.62"/>
	<path fill="#484848" d="M298.975,416.621c0,1.551-0.047,3.055,0,4.606c0.048,0.987-0.237,1.504-1.377,1.504
		c-2.85-0.047-5.652-0.047-8.455,0c-0.903,0-1.283-0.282-1.283-1.222c0.047-3.337,0.047-6.674,0-10.011
		c0-0.846,0.333-1.128,1.188-1.128c2.897,0.047,5.748,0.047,8.645,0c1.093,0,1.33,0.423,1.282,1.363
		C298.928,413.331,298.975,414.976,298.975,416.621z"/>
	<path fill="#484848" d="M300.02,407.973c-3.61,0-7.172,0-10.782,0c-0.902,0-1.425-0.141-1.425-1.222
		c0-0.987,0.333-1.316,1.33-1.316c7.41,0,14.725,0,22.087,0c0.998,0,1.33,0.376,1.33,1.316c0,1.128-0.569,1.222-1.425,1.222
		C307.43,407.926,303.725,407.973,300.02,407.973z"/>
	<path fill="#484848" d="M306.907,412.861c-1.377,0-2.755-0.047-4.133,0c-0.902,0.047-1.282-0.282-1.282-1.222
		s0.237-1.41,1.282-1.363c2.897,0.047,5.748,0.047,8.646,0c0.997,0,1.188,0.47,1.188,1.316s-0.237,1.316-1.235,1.269
		C309.9,412.861,308.38,412.861,306.907,412.861z"/>
	<path fill="#484848" d="M306.907,417.796c-1.377,0-2.755-0.047-4.133,0c-1.045,0.047-1.282-0.423-1.282-1.363
		c0-0.94,0.38-1.222,1.282-1.222c2.897,0.047,5.748,0.047,8.646,0c0.997,0,1.235,0.423,1.235,1.269c0,0.846-0.19,1.316-1.188,1.316
		C309.9,417.749,308.428,417.796,306.907,417.796z"/>
	<path fill="#484848" d="M300.02,427.336c-3.61,0-7.172,0-10.782,0c-0.902,0-1.425-0.141-1.425-1.222
		c0-0.987,0.333-1.315,1.33-1.315c7.362,0.047,14.725,0.047,22.087,0c0.998,0,1.33,0.376,1.33,1.362
		c0,1.128-0.569,1.223-1.425,1.223C307.43,427.336,303.725,427.336,300.02,427.336z"/>
	<path fill="#484848" d="M300.02,432.319c-3.61,0-7.172,0-10.782,0c-0.902,0-1.425-0.141-1.425-1.222
		c0-0.987,0.333-1.316,1.33-1.316c7.362,0.047,14.725,0.047,22.087,0c0.998,0,1.33,0.376,1.33,1.316
		c0,1.128-0.569,1.222-1.425,1.222C307.43,432.319,303.725,432.319,300.02,432.319z"/>
	<path fill="#484848" d="M300.02,436.972c-3.61,0-7.172,0-10.782,0c-0.902,0-1.425-0.142-1.425-1.223
		c0-0.986,0.333-1.315,1.33-1.315c7.362,0.047,14.725,0.047,22.087,0c0.998,0,1.33,0.376,1.33,1.315
		c0,1.128-0.569,1.223-1.425,1.223C307.43,436.972,303.725,436.972,300.02,436.972z"/>
	<path fill="#484848" d="M306.907,422.731c-1.377,0-2.755-0.047-4.133,0c-1.045,0.047-1.282-0.423-1.282-1.363
		c0-0.94,0.38-1.222,1.282-1.222c2.897,0.047,5.748,0.047,8.646,0c0.997,0,1.235,0.423,1.235,1.269s-0.19,1.316-1.188,1.316
		C309.9,422.637,308.428,422.684,306.907,422.731z"/>
	<path fill="#484848" d="M300.02,427.243c-3.61,0-7.172,0-10.782,0c-0.902,0-1.425-0.141-1.425-1.222
		c0-0.987,0.333-1.316,1.33-1.316c7.41,0,14.725,0,22.087,0c0.998,0,1.33,0.376,1.33,1.316c0,1.128-0.569,1.222-1.425,1.222
		C307.43,427.243,303.725,427.243,300.02,427.243z"/>
</g>
<path fill="#484848" d="M282.113,397.445v47h37.335v-47H282.113z M318.023,443.035h-34.485v-44.18h34.485V443.035L318.023,443.035z"
	/>
</svg>
