<?xml version="1.0" encoding="utf-8"?>
<!-- Generator: Adobe Illustrator 15.0.0, SVG Export Plug-In . SVG Version: 6.00 Build 0)  -->
<!DOCTYPE svg PUBLIC "-//W3C//DTD SVG 1.1//EN" "http://www.w3.org/Graphics/SVG/1.1/DTD/svg11.dtd">
<svg version="1.1" id="Layer_1" xmlns="http://www.w3.org/2000/svg" xmlns:xlink="http://www.w3.org/1999/xlink" x="0px" y="0px"
	 width="51px" height="51px" viewBox="272.14 395.445 51 51" enable-background="new 272.14 395.445 51 51" xml:space="preserve">
<title>ico_cafe</title>
<path fill="#484848" d="M297.176,446.445h-9.066c-8.809,0-15.97-7.16-15.97-15.97c0,0,0,0,0-0.052v-20.348
	c0-1.339,1.082-2.37,2.37-2.37l0,0h36.215c1.339,0,2.37,1.082,2.37,2.37l0,0v20.348
	C313.095,439.233,305.986,446.445,297.176,446.445L297.176,446.445z M274.51,409.199c-0.463,0-0.875,0.412-0.875,0.876v20.348
	c0,7.985,6.439,14.477,14.424,14.477h9.067c7.985,0,14.424-6.491,14.424-14.477v-20.348c0-0.464-0.412-0.876-0.876-0.876H274.51z"/>
<path fill="#484848" d="M312.373,432.896h-0.772v-1.545h0.772c5.1,0,9.272-3.297,9.272-7.264s-4.173-7.264-9.272-7.264h-0.772
	v-1.545h0.772c5.924,0,10.767,3.966,10.767,8.809S318.297,432.896,312.373,432.896z"/>
<path fill="#484848" d="M288.882,428.517h-9.479c-0.412,0-0.773-0.36-0.773-0.772v-11.848c0-0.412,0.361-0.773,0.773-0.773h9.479
	c0.413,0,0.773,0.361,0.773,0.773v11.9C289.655,428.157,289.295,428.517,288.882,428.517z M280.177,426.972h7.984v-10.354h-8.036
	L280.177,426.972z"/>
<path fill="#484848" d="M285.843,404.357c-0.412,0-0.773-0.36-0.773-0.772v-5.564c0-0.412,0.361-0.772,0.773-0.772
	s0.772,0.36,0.772,0.772l0,0v5.564C286.615,403.997,286.255,404.357,285.843,404.357z"/>
<path fill="#484848" d="M292.643,405.233c-0.412,0-0.772-0.361-0.772-0.773v-8.242c0-0.413,0.36-0.773,0.772-0.773
	s0.773,0.36,0.773,0.773l0,0v8.294C293.364,404.924,293.055,405.233,292.643,405.233L292.643,405.233z"/>
<path fill="#484848" d="M299.392,404.357c-0.412,0-0.773-0.36-0.773-0.772v-5.564c0-0.412,0.361-0.772,0.773-0.772
	s0.772,0.36,0.772,0.772l0,0v5.564C300.164,403.997,299.804,404.357,299.392,404.357z"/>
<path fill="#484848" d="M284.143,416.618c-0.412,0-0.772-0.361-0.772-0.773v-7.367c0-0.412,0.36-0.772,0.772-0.772
	s0.773,0.36,0.773,0.772v7.418C284.916,416.309,284.555,416.618,284.143,416.618L284.143,416.618z"/>
</svg>
