<?xml version="1.0" encoding="utf-8"?>
<!-- Generator: Adobe Illustrator 20.1.0, SVG Export Plug-In . SVG Version: 6.00 Build 0)  -->
<svg version="1.1" id="Layer_1" xmlns="http://www.w3.org/2000/svg" xmlns:xlink="http://www.w3.org/1999/xlink" x="0px" y="0px"
	 viewBox="0 0 60 60" style="enable-background:new 0 0 60 60;" xml:space="preserve">
<style type="text/css">
	.st0{fill:#484848;}
</style>
<title>ico_etc</title>
<g>
	<path class="st0" d="M22.5,25.6c-3.5,0-6.4-2.9-6.4-6.4c0-3.5,2.9-6.4,6.4-6.4c1.1,0,2.2,0.3,3.2,0.9l0,0c3.1,1.7,4.1,5.6,2.4,8.7
		c0,0,0,0,0,0.1C26.9,24.5,24.8,25.7,22.5,25.6z M22.5,14.4c-1.8,0-3.4,0.9-4.3,2.5c-1.3,2.4-0.5,5.3,1.8,6.7
		c2.4,1.3,5.4,0.5,6.8-1.8c1.4-2.3,0.6-5.3-1.8-6.7c0,0,0,0,0,0C24.2,14.6,23.4,14.3,22.5,14.4L22.5,14.4z"/>
	<path class="st0" d="M41.3,14.8h-9.4c-0.4,0-0.7-0.3-0.7-0.7c0-0.4,0.3-0.7,0.7-0.7l0,0h9.4c0.4,0,0.7,0.3,0.7,0.7
		C42.1,14.5,41.7,14.8,41.3,14.8z"/>
	<path class="st0" d="M41.3,20.5h-9.4c-0.4,0-0.7-0.3-0.7-0.7c0-0.4,0.3-0.7,0.7-0.7l0,0h9.4c0.4,0,0.7,0.3,0.7,0.7
		C42.1,20.2,41.7,20.5,41.3,20.5z"/>
	<path class="st0" d="M41.3,26.3h-9.4c-0.4,0-0.7-0.3-0.7-0.7c0-0.4,0.3-0.7,0.7-0.7l0,0h9.4c0.4,0,0.7,0.3,0.7,0.7
		C42.1,25.9,41.7,26.3,41.3,26.3z"/>
	<path class="st0" d="M41.3,32H17.2c-0.4,0-0.7-0.3-0.7-0.7c0-0.4,0.3-0.7,0.7-0.7h24.2c0.4,0,0.7,0.3,0.7,0.7
		C42.1,31.7,41.7,32,41.3,32L41.3,32z"/>
	<path class="st0" d="M41.3,37.7H17.2c-0.4,0-0.7-0.3-0.7-0.7c0-0.4,0.3-0.7,0.7-0.7h24.2c0.4,0,0.7,0.3,0.7,0.7
		C42.1,37.4,41.7,37.7,41.3,37.7L41.3,37.7z"/>
	<path class="st0" d="M41.3,43.4H17.2c-0.4,0-0.7-0.3-0.7-0.7c0-0.4,0.3-0.7,0.7-0.7h24.2c0.4,0,0.7,0.3,0.7,0.7
		C42.1,43.1,41.7,43.4,41.3,43.4L41.3,43.4z"/>
	<path class="st0" d="M25.1,25c-0.3,0-0.5-0.2-0.7-0.4l-2.1-4.6l-4.8-2.8c-0.4-0.2-0.5-0.6-0.3-1c0,0,0,0,0,0c0.2-0.3,0.6-0.5,1-0.3
		c0,0,0,0,0,0l5,2.9c0.1,0.1,0.2,0.2,0.3,0.3l2.2,4.9c0.2,0.4,0,0.8-0.3,1c0,0,0,0,0,0C25.3,25,25.2,25,25.1,25z"/>
	<path class="st0" d="M44,55H9.7C9.3,55,9,54.7,9,54.3V5.7C9,5.3,9.3,5,9.7,5h40.5C50.7,5,51,5.3,51,5.7v41.4c0,0.2-0.1,0.3-0.2,0.5
		l-6.2,7.1C44.5,54.9,44.3,55,44,55z M10.5,53.5h33.3l5.8-6.6V6.5H10.5L10.5,53.5z M50.3,47.1L50.3,47.1z"/>
	<path class="st0" d="M44,55c-0.4,0-0.7-0.3-0.7-0.7v-7.1c0-0.4,0.3-0.7,0.7-0.7h6.2c0.4,0,0.7,0.3,0.7,0.7c0,0.4-0.3,0.7-0.7,0.7
		h-5.5v6.4C44.8,54.7,44.4,55,44,55L44,55z"/>
</g>
</svg>
