<?xml version="1.0" encoding="utf-8"?>
<!-- Generator: Adobe Illustrator 15.0.0, SVG Export Plug-In . SVG Version: 6.00 Build 0)  -->
<!DOCTYPE svg PUBLIC "-//W3C//DTD SVG 1.1//EN" "http://www.w3.org/Graphics/SVG/1.1/DTD/svg11.dtd">
<svg version="1.1" id="Layer_1" xmlns="http://www.w3.org/2000/svg" xmlns:xlink="http://www.w3.org/1999/xlink" x="0px" y="0px"
	 width="56px" height="53px" viewBox="269.674 394.197 56 53" enable-background="new 269.674 394.197 56 53" xml:space="preserve">
<title>ico_annuity</title>
<path fill="#484848" d="M284.569,405.451c1.25,0,2.446,0.429,3.425,1.179c0.435,0.322,0.979,0.429,1.522,0.268
	c0.707-0.214,1.414-0.375,2.12-0.536l2.229-0.107c2.229,5.252,8.372,7.663,13.699,5.466c1.359-0.59,2.609-1.394,3.588-2.465
	c0.381,0.214,0.707,0.429,1.033,0.643c2.609,1.661,4.729,3.912,6.306,6.538c0.436,0.804,1.414,1.072,2.229,0.697
	c0.543-0.268,0.924-0.911,0.869-1.5c0-0.214,0.109-0.429,0.326-0.536c0.218-0.107,0.489-0.054,0.652,0.107
	c2.12,2.144,2.065,5.52-0.055,7.61c-0.38,0.321-0.761,0.643-1.195,0.857c-0.489,0.268-0.815,0.75-0.87,1.34
	c-0.38,4.072-2.283,7.823-5.382,10.557c-0.326,0.321-0.489,0.75-0.489,1.179v5.359c0,1.929-1.576,3.483-3.533,3.483h-3.588
	c-1.25,0-2.99-2.733-3.479-4.823c-0.163-0.75-0.815-1.286-1.576-1.286c-0.108,0-0.163,0-0.271,0
	c-2.719,0.429-5.491,0.482-8.209,0.107h-0.217c-0.761,0-1.414,0.535-1.577,1.232c-0.489,2.09-2.229,4.716-3.425,4.716h-3.479
	c-1.903,0-3.479-1.501-3.534-3.43l0.489-6.002c0.055-0.59-0.217-1.179-0.761-1.501c-2.555-1.554-4.566-3.912-5.763-6.645
	c-0.271-0.536-0.815-0.911-1.413-0.965c-1.903-0.054-2.99-1.179-2.99-3.001v-1.982c0-1.876,1.468-3.43,3.371-3.484
	c0.598,0,1.196-0.375,1.414-0.964c1.142-2.465,2.827-4.663,5.001-6.377c0.381-0.321,0.598-0.75,0.598-1.232v-3.483
	c0-0.214,0.109-0.375,0.272-0.482C282.775,405.719,283.699,405.451,284.569,405.451 M284.569,403.843
	c-1.196,0-2.337,0.268-3.371,0.804c-0.707,0.375-1.142,1.125-1.142,1.929v3.483c-2.337,1.876-4.186,4.287-5.436,6.967
	c-2.772,0.107-4.947,2.358-4.947,5.091v1.983c0,2.732,1.794,4.501,4.566,4.608c1.305,3.055,3.533,5.627,6.36,7.342l-0.544,6.056
	c0,2.84,2.338,5.091,5.165,5.091h3.479c2.446,0,4.458-3.697,5.001-5.948c2.881,0.375,5.817,0.321,8.698-0.161
	c0.489,2.305,2.555,6.056,5.056,6.056h3.479c2.881,0,5.164-2.304,5.164-5.091v-5.306c3.37-3.001,5.437-7.127,5.871-11.575
	c3.425-1.876,4.729-6.109,2.826-9.539c-0.326-0.536-0.706-1.072-1.141-1.554c-0.816-0.857-2.175-0.911-3.1-0.161
	c-0.488,0.429-0.761,1.072-0.706,1.769c-1.631-2.894-3.969-5.359-6.795-7.127c-0.762-0.536-1.577-0.964-2.393-1.393v0.054
	c-1.631,2.572-4.512,3.751-7.339,3.751c-3.914,0-7.338-2.572-8.371-6.27v-0.053l-3.588,0.161c-0.815,0.161-1.631,0.375-2.392,0.589
	C287.776,404.379,286.2,403.843,284.569,403.843L284.569,403.843z"/>
<path fill="#484848" d="M287.396,419.116h-0.815c0,0.697-0.598,1.286-1.305,1.286c-0.707,0-1.305-0.589-1.305-1.286
	c0-0.696,0.598-1.286,1.305-1.286c0.707,0,1.305,0.59,1.305,1.286h1.631c0-1.607-1.305-2.894-2.936-2.894s-2.936,1.286-2.936,2.894
	c0,1.608,1.305,2.895,2.936,2.895s2.936-1.287,2.936-2.895l0,0H287.396z"/>
<path fill="#484848" d="M307.51,411.399c0.652,0.214,1.305,0.482,1.902,0.804l0,0c0.652,0.375,0.924,1.179,0.544,1.822l0,0l0,0
	c-0.218,0.429-0.707,0.697-1.196,0.697c-0.218,0-0.435-0.054-0.652-0.161l0,0c-3.533-1.876-7.502-2.84-11.525-2.787
	c-0.707,0-1.413,0-2.12,0.107H294.3c-0.326,0-0.652-0.107-0.924-0.375c-0.272-0.214-0.38-0.536-0.435-0.911l0,0v-0.107
	c0-0.696,0.543-1.286,1.25-1.339l0,0c0.163,0,0.38,0,0.652,0c0.38,0,0.815,0,1.359,0.053l0.109-1.607
	c-0.544-0.054-1.033-0.054-1.468-0.054c-0.272,0-0.544,0-0.761,0l0,0c-1.522,0.107-2.718,1.394-2.772,2.947c0,0.107,0,0.161,0,0.268
	l0,0c0.054,0.697,0.38,1.394,0.924,1.929c0.543,0.536,1.305,0.804,2.065,0.804h0.327l-0.109-0.804l0.054,0.804
	c0.652-0.053,1.305-0.053,1.957-0.053c3.751-0.054,7.447,0.857,10.764,2.572l0,0c1.468,0.804,3.262,0.268,4.077-1.179l0,0l0,0
	c0.815-1.447,0.271-3.269-1.196-4.073l0,0l0,0c-0.706-0.375-1.413-0.643-2.174-0.857L307.51,411.399z"/>
<path fill="#484848" d="M303.27,411.988v-0.804c-4.295,0-7.774-3.483-7.774-7.717s3.534-7.664,7.828-7.664
	c4.295,0,7.774,3.43,7.774,7.664c0,1.179-0.218,2.358-0.707,3.483c-0.598,1.34-1.631,2.465-2.936,3.162
	c-1.25,0.697-2.718,1.072-4.186,1.072v1.608c2.337,0,4.62-0.75,6.414-2.251c0.925-0.804,1.686-1.822,2.175-2.947
	c0.544-1.286,0.87-2.68,0.815-4.126c0-5.145-4.24-9.271-9.404-9.271c-5.219,0-9.405,4.18-9.405,9.271
	c0,5.145,4.24,9.271,9.405,9.271V411.988z"/>
<path fill="#484848" d="M303.27,408.452v-0.804c-2.283,0-4.187-1.822-4.187-4.126c0-2.305,1.849-4.126,4.187-4.126
	c2.337,0,4.186,1.822,4.186,4.126c0,0.643-0.108,1.286-0.381,1.875c-0.326,0.697-0.869,1.286-1.576,1.661
	c-0.707,0.375-1.468,0.59-2.229,0.536v1.607c1.413,0,2.826-0.482,3.968-1.393c0.599-0.482,1.033-1.125,1.359-1.822
	c0.326-0.804,0.544-1.661,0.489-2.519c0-3.162-2.609-5.734-5.816-5.734c-3.208,0-5.817,2.572-5.817,5.734s2.609,5.734,5.817,5.734
	V408.452L303.27,408.452z"/>
</svg>
