<?xml version="1.0" encoding="utf-8"?>
<!-- Generator: Adobe Illustrator 15.0.0, SVG Export Plug-In . SVG Version: 6.00 Build 0)  -->
<!DOCTYPE svg PUBLIC "-//W3C//DTD SVG 1.1//EN" "http://www.w3.org/Graphics/SVG/1.1/DTD/svg11.dtd">
<svg version="1.1" id="Layer_1" xmlns="http://www.w3.org/2000/svg" xmlns:xlink="http://www.w3.org/1999/xlink" x="0px" y="0px"
	 width="22px" height="18px" viewBox="286.64 411.984 22 18" enable-background="new 286.64 411.984 22 18" xml:space="preserve">
<title>ico_report</title>
<path fill="#484848" d="M307.778,427.407h-20.275c-0.475,0-0.863-0.377-0.863-0.837v-13.749c0-0.46,0.388-0.837,0.863-0.837h20.275
	c0.474,0,0.862,0.377,0.862,0.837v13.749C308.64,427.03,308.251,427.407,307.778,427.407z M287.503,412.549
	c-0.151,0-0.28,0.125-0.28,0.272l0,0v13.749c0,0.146,0.129,0.272,0.28,0.272l0,0h20.275c0.15,0,0.28-0.126,0.28-0.272l0,0v-13.749
	c0-0.146-0.13-0.272-0.28-0.272l0,0H287.503z"/>
<path fill="#484848" d="M299.948,429.981c-0.107,0-0.216-0.063-0.259-0.168l-1.078-2.406h-1.92l-1.078,2.406
	c-0.065,0.146-0.237,0.21-0.388,0.146c-0.151-0.063-0.216-0.229-0.151-0.355l0,0l1.229-2.762h2.674l1.229,2.741
	c0.065,0.146,0,0.313-0.15,0.355C300.034,429.981,299.99,429.981,299.948,429.981z"/>
<path fill="#484848" d="M301.63,429.981h-7.98c-0.151,0-0.28-0.126-0.28-0.272s0.129-0.271,0.28-0.271h7.98
	c0.151,0,0.28,0.125,0.28,0.271S301.781,429.981,301.63,429.981z"/>
<path fill="#484848" d="M308.36,424.979H286.92c-0.151,0-0.28-0.125-0.28-0.271s0.129-0.272,0.28-0.272h21.418
	c0.15,0,0.28,0.126,0.28,0.272C308.64,424.854,308.51,424.979,308.36,424.979z"/>
<path fill="#484848" d="M301.566,422.259h-7.851c-0.108,0-0.194-0.042-0.259-0.146c-0.043-0.084-0.043-0.188,0-0.272l3.925-6.55
	c0.086-0.125,0.28-0.167,0.41-0.084c0.021,0.021,0.065,0.042,0.086,0.084l3.926,6.55c0.043,0.084,0.043,0.188,0,0.272
	C301.759,422.196,301.652,422.259,301.566,422.259z M294.232,421.694h6.837l-3.43-5.713L294.232,421.694z"/>
<path fill="#484848" d="M297.64,419.978c-0.151,0-0.28-0.125-0.28-0.272l0,0v-1.611c0.021-0.146,0.151-0.272,0.323-0.251
	c0.129,0.021,0.259,0.126,0.259,0.251v1.611C297.92,419.853,297.791,419.978,297.64,419.978z"/>
<ellipse fill="#484848" cx="297.64" cy="420.689" rx="0.345" ry="0.335"/>
</svg>
