<?xml version="1.0" encoding="utf-8"?>
<!-- Generator: Adobe Illustrator 15.0.0, SVG Export Plug-In . SVG Version: 6.00 Build 0)  -->
<!DOCTYPE svg PUBLIC "-//W3C//DTD SVG 1.1//EN" "http://www.w3.org/Graphics/SVG/1.1/DTD/svg11.dtd">
<svg version="1.1" id="Layer_1" xmlns="http://www.w3.org/2000/svg" xmlns:xlink="http://www.w3.org/1999/xlink" x="0px" y="0px"
	 width="42px" height="59px" viewBox="276.888 391.414 42 59" enable-background="new 276.888 391.414 42 59" xml:space="preserve">
<title>ico_location</title>
<path fill="#484848" d="M297.858,450.414h0.912c0.061-0.952,0.304-1.906,0.79-2.74c0.911-1.788,2.553-3.814,4.497-6.079
	c2.979-3.396,6.625-7.329,9.604-11.916c2.978-4.589,5.227-9.773,5.227-15.792c0.061-5.84-2.128-11.5-6.138-15.851
	c-7.172-8.045-19.632-8.879-27.837-1.847c-0.668,0.596-1.337,1.191-1.884,1.847c-4.012,4.35-6.2,10.011-6.139,15.91
	c0.061,4.35,1.155,8.581,3.221,12.394c2.918,5.603,7.172,10.25,10.697,14.303c1.58,1.729,3.039,3.574,4.437,5.481
	c0.486,0.715,0.912,1.49,1.276,2.325c0.243,0.655,0.426,1.31,0.426,1.965h1.823c-0.061-1.251-0.364-2.443-0.973-3.515
	c-1.033-2.086-2.735-4.172-4.74-6.495c-2.978-3.397-6.564-7.271-9.421-11.68c-2.856-4.41-4.923-9.236-4.923-14.778
	c-0.061-5.423,1.945-10.667,5.652-14.718c6.503-7.33,17.808-8.044,25.223-1.729c0.607,0.537,1.216,1.073,1.763,1.729
	c3.646,4.052,5.652,9.295,5.652,14.659c-0.062,4.052-1.094,7.985-3.039,11.56c-2.796,5.304-6.929,9.951-10.454,13.945
	c-1.641,1.787-3.16,3.693-4.558,5.66c-0.547,0.834-1.034,1.728-1.459,2.682c-0.365,0.835-0.547,1.729-0.547,2.622L297.858,450.414
	L297.858,450.414z"/>
<polygon fill="#484848" points="307.522,431.465 307.522,430.572 289.045,430.572 289.045,404.709 306.61,404.709 306.61,431.465 
	307.522,431.465 307.522,430.572 307.522,431.465 308.434,431.465 308.434,402.862 287.222,402.862 287.222,432.359 
	308.434,432.359 308.434,431.465 "/>
<polygon fill="#484848" points="297.858,408.345 297.858,407.451 289.045,407.451 289.045,404.471 296.947,404.471 296.947,408.345 
	297.858,408.345 297.858,407.451 297.858,408.345 298.77,408.345 298.77,402.683 287.222,402.683 287.222,409.298 298.77,409.298 
	298.77,408.345 "/>
<polygon fill="#484848" points="307.522,408.345 307.522,407.451 298.77,407.451 298.77,404.471 306.61,404.471 306.61,408.345 
	307.522,408.345 307.522,407.451 307.522,408.345 308.434,408.345 308.434,402.683 296.947,402.683 296.947,409.298 
	308.434,409.298 308.434,408.345 "/>
<polygon fill="#484848" points="297.858,413.35 297.858,412.456 289.045,412.456 289.045,409.477 296.947,409.477 296.947,413.35 
	297.858,413.35 297.858,412.456 297.858,413.35 298.77,413.35 298.77,407.629 287.222,407.629 287.222,414.244 298.77,414.244 
	298.77,413.35 "/>
<polygon fill="#484848" points="307.522,413.35 307.522,412.456 298.77,412.456 298.77,409.477 306.61,409.477 306.61,413.35 
	307.522,413.35 307.522,412.456 307.522,413.35 308.434,413.35 308.434,407.629 296.947,407.629 296.947,414.244 308.434,414.244 
	308.434,413.35 "/>
<polygon fill="#484848" points="297.858,418.117 297.858,417.224 289.045,417.224 289.045,414.244 296.947,414.244 296.947,418.117 
	297.858,418.117 297.858,417.224 297.858,418.117 298.77,418.117 298.77,412.456 287.222,412.456 287.222,419.011 298.77,419.011 
	298.77,418.117 "/>
<polygon fill="#484848" points="307.522,418.117 307.522,417.224 298.77,417.224 298.77,414.244 306.61,414.244 306.61,418.117 
	307.522,418.117 307.522,417.224 307.522,418.117 308.434,418.117 308.434,412.456 296.947,412.456 296.947,419.011 
	308.434,419.011 308.434,418.117 "/>
<polygon fill="#484848" points="297.858,431.465 297.858,430.572 292.571,430.572 292.571,422.527 296.947,422.527 296.947,431.465 
	297.858,431.465 297.858,430.572 297.858,431.465 298.77,431.465 298.77,420.739 290.747,420.739 290.747,432.359 298.77,432.359 
	298.77,431.465 "/>
<polygon fill="#484848" points="304.057,431.465 304.057,430.572 298.77,430.572 298.77,422.527 303.146,422.527 303.146,431.465 
	304.057,431.465 304.057,430.572 304.057,431.465 304.969,431.465 304.969,420.739 296.947,420.739 296.947,432.359 
	304.969,432.359 304.969,431.465 "/>
<polygon fill="#484848" points="304.057,403.577 304.057,402.683 292.571,402.683 292.571,400.062 303.146,400.062 303.146,403.577 
	304.057,403.577 304.057,402.683 304.057,403.577 304.969,403.577 304.969,398.274 290.747,398.274 290.747,404.471 
	304.969,404.471 304.969,403.577 "/>
</svg>
