<?xml version="1.0" encoding="utf-8"?>
<!-- Generator: Adobe Illustrator 20.1.0, SVG Export Plug-In . SVG Version: 6.00 Build 0)  -->
<svg version="1.1" id="Layer_1" xmlns="http://www.w3.org/2000/svg" xmlns:xlink="http://www.w3.org/1999/xlink" x="0px" y="0px"
	 viewBox="0 0 120 120" style="enable-background:new 0 0 120 120;" xml:space="preserve">
<style type="text/css">
	.st0{fill:#484848;}
</style>
<title>ico_company</title>
<path class="st0" d="M37.8,101H19.8c-0.7,0-1.3-0.6-1.3-1.3c0,0,0,0,0,0V32.5c0-0.4,0.2-0.8,0.6-1.1l18.1-12.2
	c0.4-0.3,0.9-0.3,1.3-0.1c0.4,0.2,0.7,0.7,0.7,1.1v79.5C39.1,100.4,38.5,101,37.8,101z M21,98.5h15.5V22.7L21,33.2L21,98.5z"/>
<path class="st0" d="M28.8,48c-0.7,0-1.3-0.6-1.3-1.3c0,0,0,0,0,0v-6.9c0-0.7,0.6-1.3,1.3-1.3s1.3,0.6,1.3,1.3v6.9
	C30,47.4,29.5,48,28.8,48C28.8,48,28.8,48,28.8,48z"/>
<path class="st0" d="M28.8,62.7c-0.7,0-1.3-0.6-1.3-1.3c0,0,0,0,0,0v-6.9c0-0.7,0.6-1.3,1.3-1.3s1.3,0.6,1.3,1.3v6.9
	C30,62.1,29.5,62.7,28.8,62.7C28.8,62.7,28.8,62.7,28.8,62.7z"/>
<path class="st0" d="M28.8,77.4c-0.7,0-1.3-0.6-1.3-1.3c0,0,0,0,0,0v-6.9c0-0.7,0.6-1.3,1.3-1.3s1.3,0.6,1.3,1.3v6.9
	C30.1,76.8,29.5,77.4,28.8,77.4C28.8,77.4,28.8,77.4,28.8,77.4z"/>
<path class="st0" d="M28.8,92.1c-0.7,0-1.3-0.6-1.3-1.3c0,0,0,0,0,0V84c0-0.7,0.6-1.3,1.3-1.3S30,83.3,30,84v6.9
	C30,91.6,29.5,92.1,28.8,92.1C28.8,92.1,28.8,92.1,28.8,92.1z"/>
<path class="st0" d="M100.3,101H82.2c-0.7,0-1.3-0.6-1.3-1.3c0,0,0,0,0,0V20.3c0-0.5,0.3-0.9,0.7-1.1c0.4-0.2,0.9-0.2,1.3,0.1
	L101,31.4c0.4,0.2,0.6,0.6,0.6,1.1v67.2C101.6,100.4,101,101,100.3,101C100.3,101,100.3,101,100.3,101z M83.4,98.5H99V33.2
	L83.4,22.7V98.5z"/>
<path class="st0" d="M91.2,48c-0.7,0-1.3-0.6-1.3-1.3c0,0,0,0,0,0v-6.9c0-0.7,0.6-1.3,1.3-1.3s1.3,0.6,1.3,1.3v6.9
	C92.5,47.4,91.9,48,91.2,48C91.2,48,91.2,48,91.2,48z"/>
<path class="st0" d="M91.2,62.7c-0.7,0-1.3-0.6-1.3-1.3c0,0,0,0,0,0v-6.9c0-0.7,0.6-1.3,1.3-1.3s1.3,0.6,1.3,1.3v6.9
	C92.5,62.1,91.9,62.7,91.2,62.7C91.2,62.7,91.2,62.7,91.2,62.7z"/>
<path class="st0" d="M91.2,77.4c-0.7,0-1.3-0.6-1.3-1.3c0,0,0,0,0,0v-6.9c0-0.7,0.6-1.3,1.3-1.3s1.3,0.6,1.3,1.3v6.9
	C92.5,76.8,91.9,77.4,91.2,77.4C91.2,77.4,91.2,77.4,91.2,77.4z"/>
<path class="st0" d="M91.2,92.1c-0.7,0-1.3-0.6-1.3-1.3c0,0,0,0,0,0V84c0-0.7,0.6-1.3,1.3-1.3s1.3,0.6,1.3,1.3v6.9
	C92.5,91.6,91.9,92.1,91.2,92.1C91.2,92.1,91.2,92.1,91.2,92.1z"/>
<path class="st0" d="M46.7,39.6c-0.7,0-1.3-0.6-1.3-1.3c0,0,0,0,0,0v-6.9c0-0.7,0.6-1.3,1.3-1.3s1.3,0.6,1.3,1.3v6.9
	C48,39,47.4,39.6,46.7,39.6C46.7,39.6,46.7,39.6,46.7,39.6z"/>
<path class="st0" d="M55.6,39.6c-0.7,0-1.3-0.6-1.3-1.3c0,0,0,0,0,0v-6.9c0-0.7,0.6-1.3,1.3-1.3s1.3,0.6,1.3,1.3v6.9
	C56.8,39,56.3,39.6,55.6,39.6C55.6,39.6,55.6,39.6,55.6,39.6z"/>
<path class="st0" d="M64.4,39.6c-0.7,0-1.3-0.6-1.3-1.3c0,0,0,0,0,0v-6.9c0-0.7,0.6-1.3,1.3-1.3s1.3,0.6,1.3,1.3v6.9
	C65.7,39,65.1,39.6,64.4,39.6C64.4,39.6,64.4,39.6,64.4,39.6z"/>
<path class="st0" d="M73.3,39.6c-0.7,0-1.3-0.6-1.3-1.3c0,0,0,0,0,0v-6.9c0-0.7,0.6-1.3,1.3-1.3s1.3,0.6,1.3,1.3v6.9
	C74.5,39,74,39.6,73.3,39.6C73.3,39.6,73.3,39.6,73.3,39.6z"/>
<path class="st0" d="M46.7,55.3c-0.7,0-1.3-0.6-1.3-1.3c0,0,0,0,0,0v-6.8c0-0.7,0.6-1.3,1.3-1.3s1.3,0.6,1.3,1.3V54
	C48,54.7,47.4,55.2,46.7,55.3z"/>
<path class="st0" d="M55.6,55.3c-0.7,0-1.3-0.6-1.3-1.3c0,0,0,0,0,0v-6.8c0-0.7,0.6-1.3,1.3-1.3s1.3,0.6,1.3,1.3V54
	C56.8,54.7,56.3,55.2,55.6,55.3z"/>
<path class="st0" d="M64.4,55.3c-0.7,0-1.3-0.6-1.3-1.3c0,0,0,0,0,0v-6.8c0-0.7,0.6-1.3,1.3-1.3s1.3,0.6,1.3,1.3V54
	C65.6,54.7,65.1,55.2,64.4,55.3z"/>
<path class="st0" d="M73.3,55.3c-0.7,0-1.3-0.6-1.3-1.3c0,0,0,0,0,0v-6.8c0-0.7,0.6-1.3,1.3-1.3s1.3,0.6,1.3,1.3V54
	C74.5,54.7,73.9,55.2,73.3,55.3z"/>
<path class="st0" d="M46.7,70.9c-0.7,0-1.3-0.6-1.3-1.3c0,0,0,0,0,0v-6.9c0-0.7,0.6-1.3,1.3-1.3s1.3,0.6,1.3,1.3v6.9
	C48,70.4,47.4,70.9,46.7,70.9C46.7,70.9,46.7,70.9,46.7,70.9z"/>
<path class="st0" d="M55.6,70.9c-0.7,0-1.3-0.6-1.3-1.3c0,0,0,0,0,0v-6.9c0-0.7,0.6-1.3,1.3-1.3s1.3,0.6,1.3,1.3v6.9
	C56.8,70.4,56.3,70.9,55.6,70.9C55.6,70.9,55.6,70.9,55.6,70.9z"/>
<path class="st0" d="M64.4,70.9c-0.7,0-1.3-0.6-1.3-1.3c0,0,0,0,0,0v-6.9c0-0.7,0.6-1.3,1.3-1.3s1.3,0.6,1.3,1.3v6.9
	C65.7,70.4,65.1,70.9,64.4,70.9C64.4,70.9,64.4,70.9,64.4,70.9z"/>
<path class="st0" d="M73.3,70.9c-0.7,0-1.3-0.6-1.3-1.3c0,0,0,0,0,0v-6.9c0-0.7,0.6-1.3,1.3-1.3s1.3,0.6,1.3,1.3v6.9
	C74.5,70.4,74,70.9,73.3,70.9C73.3,70.9,73.3,70.9,73.3,70.9z"/>
<path class="st0" d="M67.6,101H52.4c-0.7,0-1.3-0.6-1.3-1.3c0,0,0,0,0,0V80.6c0-0.7,0.6-1.3,1.2-1.3c0,0,0,0,0,0h15.3
	c0.7,0,1.3,0.6,1.3,1.3c0,0,0,0,0,0v19.1C68.9,100.4,68.3,101,67.6,101C67.7,101,67.7,101,67.6,101z M53.6,98.5h12.7V81.9H53.6V98.5
	z"/>
<path class="st0" d="M82.2,101H37.8c-0.7,0-1.3-0.6-1.3-1.3c0,0,0,0,0,0V20.3c0-0.7,0.6-1.3,1.2-1.3c0,0,0,0,0,0h44.4
	c0.7,0,1.3,0.6,1.3,1.3c0,0,0,0,0,0v79.5C83.4,100.4,82.9,101,82.2,101z M39,98.5h41.9V21.5H39.1L39,98.5z"/>
</svg>
