<?xml version="1.0" encoding="utf-8"?>
<!-- Generator: Adobe Illustrator 20.1.0, SVG Export Plug-In . SVG Version: 6.00 Build 0)  -->
<svg version="1.1" id="Layer_1" xmlns="http://www.w3.org/2000/svg" xmlns:xlink="http://www.w3.org/1999/xlink" x="0px" y="0px"
	 viewBox="0 0 120 120" style="enable-background:new 0 0 120 120;" xml:space="preserve">
<style type="text/css">
	.st0{fill:#484848;}
</style>
<title>ico_death</title>
<path class="st0" d="M60.1,41.5V43c3.9,0.1,7.8,1.3,11.1,3.4c1.1,0.7,2.2,1.5,3.2,2.4c0.4,0.3,0.7,0.6,0.8,0.8l0.2,0.2l0,0l0,0
	l0.1-0.1l-0.1,0.1l0,0l0.1-0.1l-0.1,0.1l-0.1-0.1l0.1,0.1c0.7,0.7,1.6,1.2,2.7,1.2c1.1,0,2.2-0.6,2.9-1.5l-0.1,0.1l0.1-0.1l-0.3-0.2
	l0.3,0.2l0,0l-0.3-0.2l0.3,0.2c1-1.2,2.2-2.3,3.4-3.3c1.1-0.9,2.3-1.6,3.6-2.2c1.4-0.6,2.9-1,4.5-1c2.8,0.1,5.6,1.1,7.8,2.7
	c0.8,0.6,1.7,1.2,2.4,2c0.3,0.3,0.5,0.5,0.6,0.6l0.2,0.2l0,0l0,0l0.2-0.2l-0.2,0.2l0,0l0.2-0.2l-0.2,0.2l0,0
	c0.3,0.4,0.7,0.7,1.1,0.9c0.4,0.3,0.9,0.5,1.4,0.5c0.3,0,0.5-0.1,0.7-0.2c0.4-0.2,0.7-0.4,0.9-0.8c0.2-0.3,0.2-0.6,0.3-0.9v-0.9
	c0-4.7-1.4-9.4-3.9-13.4c-3.7-6.1-9.8-11.2-17.4-14.8c-8.4-3.8-17.5-5.8-26.6-5.7c-13.1,0-25,3.7-33.7,9.8
	c-4.2,2.8-7.7,6.5-10.4,10.8c-2.5,4-3.8,8.7-3.9,13.4v0.9c0,0.5,0.2,0.9,0.5,1.2c0.2,0.2,0.4,0.4,0.7,0.5c0.2,0.1,0.5,0.1,0.7,0.1
	c0.5,0,1-0.2,1.5-0.5c0.4-0.3,0.7-0.6,1-0.9l-0.2-0.2l0.2,0.2l0,0l-0.2-0.2l0.2,0.2c1-1.1,2.2-2,3.4-2.8c2.3-1.6,5-2.6,7.7-2.7
	c1.6,0,3.1,0.4,4.5,1c1.9,0.8,3.6,2,5.1,3.4c0.5,0.5,1,1,1.4,1.5l0.4,0.4l0.1,0.1l0,0l0,0l0.5-0.4L39,49.4l0,0l0.5-0.4L39,49.4l0,0
	c0.7,0.9,1.7,1.5,2.9,1.5c1,0,2-0.4,2.7-1.2l0,0l-0.1-0.1l0.1,0.1l0,0l-0.1-0.1l0.1,0.1c1.4-1.3,2.9-2.5,4.5-3.5
	c3.3-2.1,7.1-3.2,11-3.3h0.1v-3H60c-4.5,0.1-8.9,1.4-12.7,3.9c-1.8,1.1-3.4,2.4-4.9,3.9l0,0l0,0c-0.1,0.2-0.3,0.2-0.5,0.3
	c-0.2,0-0.4-0.1-0.5-0.3l0,0l0,0c-1.1-1.4-2.4-2.7-3.8-3.8c-1.3-1.1-2.8-1.9-4.3-2.6c-1.8-0.8-3.7-1.2-5.7-1.2
	c-3.4,0.1-6.7,1.2-9.5,3.3c-1.4,0.9-2.7,2-3.8,3.2c-0.1,0.2-0.3,0.3-0.5,0.4l0,0l0,0l0.1,0.3l-0.1-0.3h-0.1l0.1,0.3l-0.1-0.3
	l0.2,0.8v-0.8c-0.1,0-0.1,0-0.2,0l0.2,0.8v0.3l0.4-1c-0.1-0.1-0.3-0.1-0.4-0.1v1.1l0.4-1l-0.4,1l1-0.6c-0.1-0.2-0.3-0.4-0.5-0.5
	l-0.4,1l1-0.6l-0.7,0.4l0.8-0.1c0-0.1-0.1-0.2-0.1-0.3l-0.7,0.4l0.8-0.1l-1.5,0.1h1.5V47c0-4.1,1.1-8.2,3.3-11.7
	c3.3-5.5,9-10.3,16.2-13.7c8-3.6,16.6-5.5,25.4-5.4c12.6,0,23.9,3.6,32,9.2c3.8,2.6,7.1,5.9,9.6,9.9c2.2,3.6,3.4,7.7,3.4,11.8v0.7
	h1.5l-1.5-0.1l0.9,0.1l-0.6-0.6c-0.1,0.1-0.2,0.3-0.2,0.5l0.9,0.1l-0.6-0.6l0.8,0.8l-0.4-1c-0.2,0.1-0.3,0.2-0.4,0.3l0.8,0.8l-0.4-1
	l0.4,1v-1.2c-0.1,0-0.3,0-0.4,0.1l0.4,1v-0.4l0.3-0.7c-0.1,0-0.2,0-0.3,0v0.7l0.3-0.7v0.1V47l0,0v0.1V47c-0.2-0.1-0.4-0.3-0.5-0.5
	c-1.1-1.2-2.4-2.3-3.8-3.2c-2.8-2-6.1-3.1-9.5-3.3c-2,0-3.9,0.4-5.7,1.2c-2.2,1-4.2,2.3-5.9,4c-0.8,0.7-1.5,1.6-2.2,2.4l0,0
	c-0.1,0.2-0.3,0.3-0.5,0.3c-0.2,0-0.4-0.1-0.5-0.3l0,0c-1.5-1.5-3.1-2.8-4.9-3.9c-3.8-2.4-8.2-3.8-12.7-3.8L60.1,41.5z"/>
<path class="st0" d="M43.2,49.4L43.2,49.4c0-0.3,0-0.7,0-1.4c0-5.3,0.8-10.5,2.3-15.6c1-3.3,2.5-6.5,4.5-9.3c2.1-3,4.9-5.4,8.1-7
	l0.8-0.4V12h2v2.8h3V9h-8v5.8h1.5l-0.7-1.3c-3.7,1.8-6.9,4.5-9.3,7.9c-3.1,4.6-5.2,9.8-6.2,15.3c-0.7,3.8-1.1,7.6-1.1,11.4
	c0,1,0,1.5,0,1.6L43.2,49.4z"/>
<path class="st0" d="M79.8,49.6c0,0,0-0.6,0-1.6c0-5.6-0.8-11.2-2.4-16.5c-1.1-3.6-2.8-7.1-5-10.2c-2.4-3.4-5.6-6.1-9.3-7.9
	l-0.6,1.3H64v-4.3h-3v5.2l0.8,0.4c3.3,1.6,6.1,4,8.2,7c2.9,4.3,4.9,9.1,5.8,14.1c0.7,3.6,1.1,7.2,1.1,10.8c0,0.5,0,0.8,0,1.1
	s0,0.2,0,0.3v0.1L79.8,49.6z"/>
<path class="st0" d="M78.2,103.3c0.2,0.6,0.3,1.1,0.3,1.7l0,0c0,0.2,0,0.5,0,0.7s0,0.6,0,0.9l0,0c0,0.4-0.1,0.8-0.3,1.1
	c-0.2,0.2-0.5,0.3-0.9,0.3H42.7c-0.3,0-0.6-0.1-0.9-0.3c-0.2-0.3-0.4-0.7-0.3-1.1l0,0c0-0.3,0-0.6,0-0.9s0-0.5,0-0.7l0,0
	c0-0.6,0.1-1.2,0.3-1.7l0,0c0.3-1.2,1.1-2.2,2.2-2.8l0,0c0.5-0.3,1.1-0.6,1.6-0.8l0,0c2.2-0.8,4.4-1.6,6.7-2.5l0,0c1-0.5,2-1,3-1.6
	l0,0l0.2-0.1l0,0l0,0c0.4-0.3,0.7-0.7,0.9-1.1c0.2-0.4,0.3-0.9,0.3-1.3v-0.2l0,0v-0.2l0,0c0-0.2,0-0.4,0-0.6s0-0.7,0-1.1
	s0-0.6,0-0.8l0,0c0-0.6-0.2-1.2-0.6-1.7l0,0c-0.6-0.7-1.2-1.4-1.7-2l0,0c-1-1.1-1.8-2.5-2.2-4l0,0l-0.2-0.8l-0.3-1.2l-1.2,0.1h-0.5
	h-0.1c-0.1,0-0.2,0-0.4,0c-0.1,0-0.1,0-0.1-0.1c-0.1-0.2-0.2-0.3-0.3-0.5l0,0l-0.3-0.7l-1.4,0.6l1.4-0.4c-0.4-1-0.6-2.1-0.6-3.2
	c0-0.1,0-0.2,0-0.4l0,0c0-0.1,0-0.3,0.1-0.4l0,0L48,75.2l0.2,0.2v-0.1l-0.2-0.1l0.2,0.2l-0.2-0.2l0.2,0.2l0,0l-0.2-0.2l0.2,0.2l0,0
	c0.1-0.1,0.2-0.1,0.4-0.1l0,0l0.5-0.1l1.3-0.2l0-1.3c0-0.4,0-0.8-0.1-1.2c0-0.6-0.1-1.3-0.1-1.9c0-1.3,0.1-2.5,0.4-3.7
	c0.2-1,0.7-2,1.4-2.7c0.7-0.7,1.6-1.1,2.6-1.2l0,0c0.7-0.1,1.4-0.2,2.3-0.3l1-0.1l0.3-1c0.1-0.2,0.1-0.4,0.2-0.6
	c0-0.1,0.1-0.1,0.1-0.2l0,0c0.1,0,0.3,0,0.4,0h0.1c1.3,0,2.5,0.2,3.8,0.5l0,0c0.5,0.1,0.9,0.3,1.4,0.5h0.1h-0.1
	c1.9,0.8,3.5,2.1,4.6,3.8l0-0.1l0.1,0.1c1,1.4,1.5,3.1,1.4,4.8c0,0.5,0,1-0.1,1.5l0,0c-0.1,0.5-0.2,1-0.3,1.7L69.3,75l1.5,0.2
	l0.9,0.1h0.1l0.1-0.1l-0.1,0.1l0,0l0.1-0.1l-0.1,0.1c0,0.1,0.1,0.1,0.1,0.2l0,0c0,0.2,0.1,0.4,0.1,0.6c0,0.7-0.2,1.5-0.3,2.2l0,0
	c-0.1,0.4-0.2,0.8-0.3,1.2l0,0L71,79.9l0,0c-0.1,0.2-0.1,0.3-0.2,0.4c-0.1,0.1-0.1,0.1-0.1,0.1c-0.1,0-0.3,0.1-0.4,0.1h-0.1h-0.5
	l-1.2-0.1l-0.3,1.2l0,0l-0.2,0.8l0,0c-0.1,0.4-0.2,0.7-0.3,1.1l0,0c-0.4,1.1-1,2-1.8,2.9l0,0c-0.5,0.6-1.1,1.2-1.7,2l0,0
	c-0.4,0.5-0.6,1.1-0.6,1.7l0,0c0,0.3,0,0.6,0,0.8s0,0.8,0,1.1s0,0.5,0,0.8l0,0V93c0,0.5,0.1,1,0.3,1.4c0.2,0.5,0.6,0.9,1.1,1.2l0,0
	c1,0.6,2,1.2,3,1.6l0,0c2.3,0.9,4.5,1.7,6.7,2.5l0,0c0.6,0.2,1.1,0.5,1.6,0.8l0,0C77.2,101.1,78,102.1,78.2,103.3l2.9-0.9
	c-0.6-1.9-1.8-3.4-3.4-4.4l0,0c-0.7-0.4-1.4-0.8-2.1-1.1h-0.1h0.1c-2.3-0.9-4.5-1.6-6.6-2.5l0,0c-0.9-0.4-1.8-0.9-2.6-1.4l0,0
	l-0.1,0.1l0.1-0.1l0,0l-0.1,0.1l0.1-0.1l-0.1,0.1h0.1l0,0l-0.1,0.1h0.1v-0.2l0,0c0-0.3,0-0.6,0-0.9s0-0.8,0-1.1s0-0.5,0-0.7h-0.2
	h0.2l0,0h-0.2h0.2l0,0l0,0l-0.2-0.1l0.2,0.2l0,0l-0.2-0.1l0.2,0.2l0,0c0.5-0.6,1.1-1.2,1.6-1.9l0,0c1-1.2,1.8-2.5,2.3-3.9l0,0
	c0.2-0.5,0.4-1,0.5-1.5l0,0l0.2-0.8l0,0l-1.4-0.4l-0.1,1.5h0.6h0.2c0.4,0,0.8,0,1.1-0.1c0.6-0.2,1.1-0.5,1.5-0.9
	c0.4-0.4,0.7-1,0.9-1.5l0,0c0.1-0.2,0.1-0.3,0.2-0.5l0,0c0.2-0.5,0.3-1.1,0.4-1.6l0,0c0.2-0.9,0.3-1.8,0.4-2.7c0-0.4,0-0.8-0.1-1.2
	l0,0c-0.1-0.6-0.4-1.2-0.8-1.6c-0.4-0.5-1-0.8-1.6-0.9l0,0l-1-0.2L71,73.7l1.5,0.2c0.1-0.6,0.2-1.1,0.3-1.8l0,0
	c0.1-0.6,0.1-1.2,0.1-1.8c0-2.3-0.7-4.7-2-6.6l0-0.1l0.1,0.1c-1.5-2.1-3.5-3.8-5.9-4.8h-0.1H65c-0.6-0.2-1.1-0.4-1.7-0.6l0,0
	c-1.5-0.4-3-0.6-4.5-0.6h-0.1c-0.4,0-0.9,0.1-1.3,0.2c-0.3,0.1-0.6,0.3-0.9,0.5c-0.4,0.3-0.7,0.7-0.9,1.1c-0.2,0.4-0.4,0.9-0.5,1.3
	l1.4,0.4l-0.1-1.5c-0.7,0.1-1.5,0.1-2.4,0.3l0,0c-1.6,0.2-3,0.9-4.2,2c-1.1,1.1-1.9,2.6-2.3,4.2c-0.3,1.4-0.5,2.9-0.5,4.4
	c0,0.7,0,1.4,0.1,2c0,0.4,0,0.8,0.1,1.2l1.5-0.1l-0.3-1.4l-0.5,0.1l0,0c-0.3,0.1-0.7,0.2-1,0.3c-0.3,0.1-0.5,0.3-0.8,0.5
	c-0.4,0.3-0.6,0.7-0.8,1.2c-0.1,0.4-0.2,0.8-0.2,1.3l0,0c0,0.2,0,0.4,0,0.5c0,1.4,0.3,2.8,0.7,4.1v0.1l0.3,0.7l1.4-0.6L46.2,81
	c0.1,0.4,0.3,0.7,0.5,1c0.3,0.5,0.8,0.9,1.3,1.2c0.5,0.2,1.1,0.4,1.7,0.3h0.2h0.6L50.4,82L49,82.4l0.2,0.8l0,0
	c0.5,1.9,1.5,3.7,2.8,5.2l0,0c0.6,0.7,1.2,1.3,1.6,1.9l0,0l0.2-0.1l-0.2,0.1l0,0l0.2-0.1l-0.2,0.1l0,0l0,0h0.2h-0.3l0,0h0.2h-0.3
	c0,0.2,0,0.5,0,0.7s0,0.7,0,1.1c0,0.2,0,0.5,0,0.7l0,0v0.2l0,0v0.2l0.2,0.1L53.6,93l-0.1,0.1l0.2,0.1L53.6,93l0.9,1.2L53.6,93
	l-0.1,0.1l0.9,1.2L53.6,93c-0.8,0.5-1.6,1-2.5,1.4l0,0c-2.2,0.9-4.4,1.6-6.6,2.5l0,0c-0.7,0.3-1.4,0.7-2,1.1l0,0
	c-1.7,1-2.9,2.6-3.5,4.4l0,0c-0.2,0.8-0.4,1.7-0.4,2.5l0,0c0,0.3,0,0.6,0,0.8s0,0.6,0,0.9l0,0c0,1.1,0.4,2.3,1.1,3.1
	c0.8,0.8,1.9,1.3,3,1.3h34.7c1.1,0,2.2-0.4,3-1.3c0.8-0.9,1.2-2,1.1-3.1l0,0c0-0.3,0-0.6,0-0.9s0-0.5,0-0.8l0,0
	c0-0.8-0.2-1.7-0.4-2.5L78.2,103.3z"/>
<path class="st0" d="M58.2,42.9c1.1,0.5,2,1.3,2.5,2.4l0,0c0.2,0.4,0.4,0.9,0.5,1.4c0.1,0.6,0.2,1.2,0.2,1.9l0,0
	c0.1,1.7,0.1,3.4,0.2,5.2l0,0c0,0.4,0.1,0.8,0.3,1.2l1.4-0.4L61.9,55c0.1,0.4,0.2,0.6,0.3,0.8l0.1,0.2l0,0h0.1h-0.1l0,0h0.1h-0.1
	c0,1.1-0.2,2.2-0.6,3.2l2.8,1.1c0.5-1.3,0.8-2.8,0.8-4.2l0,0V56c0-0.4-0.1-0.8-0.2-1.2c-0.1-0.3-0.2-0.5-0.2-0.6l0,0l-0.1-0.4
	c0,0,0-0.1,0-0.2l0,0c-0.1-1.7-0.1-3.4-0.2-5.2l0,0c0-0.8-0.1-1.5-0.2-2.3c-0.1-0.9-0.4-1.7-0.8-2.4l0,0c-0.9-1.6-2.3-2.8-4-3.6
	L58.2,42.9z"/>
<path class="st0" d="M20.8,97.8L20.8,97.8l0.4-0.4v-0.6h-1.5l1.4,0.4c0-0.1,0-0.2,0.1-0.3l0.1-0.5l0,0c0.6-3.7,1.6-7.3,3-10.7
	c0.6-1.5,1.4-2.8,2.4-4c0.5-0.6,1.2-1,1.9-1.4c1-0.5,2.2-0.8,3.3-0.9c1.3-0.2,2.7-0.2,4.2-0.5h0.1h0.1c1.9-0.5,3.7-1.6,5-3.1l0,0
	c0.6-0.7,1.4-1.3,2.2-1.7l0,0c0.4-0.2,0.8-0.5,1.1-0.9c0.3-0.4,0.4-0.9,0.5-1.3l0,0c0-0.3,0-0.5,0-0.8c0-1-0.2-2-0.6-2.9l0,0
	c-0.2-0.5-0.4-1.2-0.7-2l0,0c-0.2-0.9-0.5-1.8-0.9-2.7l0,0c-0.7-1.4-1.4-2.5-2-3.6l0,0c-0.2-0.3-0.3-0.7-0.3-1.1l0,0
	c-0.1-1.6-0.1-3.1-0.1-4.7c0-0.6,0-1.3,0-1.9l0,0c0-1.4,0.2-2.7,0.6-4l-2.8-0.8c-0.4,1.5-0.6,3.1-0.7,4.7l0,0c0,0.7,0,1.3,0,2
	c0,1.6,0.1,3.2,0.1,4.8l0,0c0,0.8,0.3,1.6,0.6,2.3l0,0c0.7,1.3,1.5,2.4,2,3.5l0,0c0.3,0.8,0.5,1.5,0.7,2.3l0,0
	c0.2,0.8,0.5,1.5,0.8,2.3l0,0c0.2,0.5,0.3,1.1,0.3,1.7c0,0.2,0,0.3,0,0.5l0,0h0.4l-0.3-0.2l-0.1,0.2h0.4l-0.3-0.2l0.3,0.3l-0.3-0.3
	c-0.1,0-0.1,0.1-0.2,0.2l0.3,0.3l-0.2-0.4l0,0c-1.3,0.5-2.4,1.4-3.3,2.4l0,0c-1,1.1-2.2,1.8-3.6,2.2l0.4,1.4l-0.2-1.5
	c-1.6,0.3-3.3,0.3-4.9,0.6c-1.3,0.2-2.6,0.6-3.8,1.2c-1,0.5-1.9,1.3-2.7,2.1c-1.4,1.7-2.6,3.7-3.3,5.8c-1.2,3.3-2,6.6-2.6,10
	l1.5,0.3l-1.5-0.3l-0.1,0.5v0.1l0,0l0,0l0.5,0.1l-0.5-0.1l0,0l0.5,0.1l-0.5-0.1v0.2v0.2h1.5l-1-1.1l0,0L20.8,97.8z"/>
<polyline class="st0" points="81.8,101.4 79.7,101.4 79.7,104.4 81.8,104.4 "/>
<polygon class="st0" points="21.2,96.8 21.2,96.8 19.7,96.8 21.2,97 21.2,97 18.3,96.5 18.3,96.6 18.3,96.7 18.3,96.8 "/>
<path class="st0" d="M40.4,101.4H21.8c-0.4,0-0.7-0.1-1-0.2l-0.1-0.2c-0.1-0.1-0.1-0.3-0.1-0.4c0-0.2,0-0.3,0.1-0.5l0,0
	c0.2-1,0.3-1.6,0.3-1.9l0.1-0.4l0,0c0.1-0.4,0.1-0.6,0.1-0.8l0,0l0,0l-1.5-0.2l1.4,0.4l0,0v-0.1v-0.3h-1.4l-1.5-0.1l0,0l1.5,0.1
	l-1.4-0.4l0,0v0.1v0.1l1.5,0.2l-1.5-0.2c0,0,0,0.2-0.1,0.6l0,0l-0.1,0.4l-0.3,1.9l1.5,0.3l-1.5-0.3c-0.1,0.4-0.1,0.7-0.1,1.1
	c0,0.5,0.1,1.1,0.3,1.6c0.3,0.7,0.9,1.3,1.6,1.7c0.7,0.3,1.5,0.5,2.2,0.5h18.5V101.4z"/>
<path class="st0" d="M79.7,104.4H97v-6.1h-1.5l1.5,0.1c0,0,0-0.5,0-1.3c0-0.3,0-0.7,0-1l0,0c0-1.4-0.3-2.7-0.9-3.9
	c-0.6-1.2-1.5-2.2-2.6-3l0,0c-1.9-1.3-4-2.4-6.1-3.4l0.4,0.2l-0.4-0.2c-2.1-1-4.2-2.1-6.2-3.2l0,0L81,82.5v-0.2v-0.1l-1.5-0.2v1.5
	c3.4,0.1,6.7-0.7,9.7-2.3l2.2-1.2l-2.1-1.4c-0.4-0.2-0.8-0.6-1-1.1C88.2,77,88,76.3,88,75.7l0,0c-0.1-0.6-0.1-1.2-0.1-1.7
	c0-1.8,0.2-3.7,0.3-5.7c0-0.8,0.1-1.6,0.1-2.4c0-1-0.1-1.9-0.3-2.9l0,0c-0.4-2-1.2-3.8-2.3-5.5c-1.2-1.7-2.9-2.9-4.8-3.7l0,0
	l-0.3,0.7l0.5-0.6c-0.1-0.1-0.1-0.1-0.2-0.1l-0.3,0.7l0.5-0.6l-0.6,0.6l0.7-0.4c0-0.1-0.1-0.2-0.2-0.3l-0.6,0.6l0.7-0.4l0,0
	c-0.2-0.5-0.6-1-1-1.3c-0.4-0.3-0.8-0.6-1.3-0.8l0,0c-1-0.5-2.1-0.7-3.3-0.7c-0.6,0-1.2,0.1-1.8,0.2l0,0c-3.5,0.6-6.6,2.4-8.9,5.1
	l0,0c-0.8,0.9-1.4,1.9-2,2.9l2.6,1.4c0.5-0.8,1-1.6,1.6-2.3l0,0c1.8-2.2,4.3-3.6,7.2-4.1l0,0c0.4-0.1,0.9-0.1,1.4-0.1
	c0.7,0,1.4,0.1,2,0.4l0,0c0.2,0.1,0.4,0.2,0.5,0.3c0.1,0.1,0.2,0.2,0.3,0.4l0,0c0.1,0.3,0.3,0.5,0.5,0.7c0.2,0.2,0.4,0.3,0.7,0.4
	l0,0c1.4,0.5,2.6,1.4,3.5,2.6c0.9,1.3,1.5,2.8,1.8,4.4l0,0c0.2,0.7,0.2,1.5,0.2,2.2c0,0.7,0,1.5-0.1,2.3l0,0C85.2,70,85,72,85,74
	c0,0.7,0,1.3,0.1,2l0,0c0.1,0.9,0.3,1.9,0.6,2.7c0.4,1,1.2,1.9,2.1,2.5l0.8-1.3l-0.7-1.3c-2.6,1.3-5.4,2-8.3,1.9h-1.3l-0.2,1.3
	c0,0.2,0,0.3,0,0.5c0,1.2,0.7,2.4,1.8,2.9l0,0c2.1,1.1,4.2,2.1,6.3,3.2l-0.4-0.2l0.4,0.2c2,0.8,3.8,1.8,5.6,3l0,0
	c0.7,0.5,1.3,1.2,1.7,2c0.4,0.8,0.6,1.7,0.6,2.7l0,0c0,0.3,0,0.7,0,1s0,0.6,0,0.8s0,0.2,0,0.2v3.3H79.7V104.4z M69.6,83.6l0.6,0.1
	l0.2-1.5l-1.5-0.2c0,0.2-0.1,0.4-0.2,0.6l-0.1,0.1l0,0l-0.3,0.1l1.3,2.7l0.3-0.1l0,0c0.6-0.3,1.1-0.8,1.4-1.4c0.3-0.5,0.4-1,0.5-1.6
	l0.2-1.5l-1.5-0.2c-0.3,0-0.6-0.1-0.9-0.1L69.6,83.6z M53.8,92c-0.3,0.6-0.5,1.2-0.7,1.9l2.9,0.6c0.1-0.4,0.2-0.8,0.4-1.1L53.8,92z"
	/>
</svg>
