<?xml version="1.0" encoding="utf-8"?>
<!-- Generator: Adobe Illustrator 20.1.0, SVG Export Plug-In . SVG Version: 6.00 Build 0)  -->
<svg version="1.1" id="Layer_1" xmlns="http://www.w3.org/2000/svg" xmlns:xlink="http://www.w3.org/1999/xlink" x="0px" y="0px"
	 viewBox="0 0 120 120" style="enable-background:new 0 0 120 120;" xml:space="preserve">
<style type="text/css">
	.st0{fill:#484848;}
</style>
<title>ico_claim</title>
<polygon class="st0" points="55.9,99.9 15,99.9 15,9 85.5,9 85.5,29.4 88.6,29.4 88.6,6 12,6 12,103 55.9,103 "/>
<polygon class="st0" points="85.5,51.8 85.5,99.9 62.2,99.9 62.2,103 88.6,103 88.6,51.8 "/>
<polygon class="st0" points="65.1,57.9 65.1,56.3 28.7,56.3 28.7,52.6 63.5,52.6 63.5,57.9 65.1,57.9 65.1,56.3 65.1,57.9 
	66.6,57.9 66.6,49.6 25.6,49.6 25.6,59.4 66.6,59.4 66.6,57.9 "/>
<polygon class="st0" points="53.6,69.8 53.6,68.3 28.7,68.3 28.7,64.6 52,64.6 52,69.8 53.6,69.8 53.6,68.3 53.6,69.8 55.1,69.8 
	55.1,61.5 25.6,61.5 25.6,71.3 55.1,71.3 55.1,69.8 "/>
<path class="st0" d="M66.4,96l-1.2-0.9l-8.8,11.3l2.9-13.9L94,18.1l5.8,2.7L65.1,95.4L66.4,96l-1.2-0.9L66.4,96l1.4,0.6l35.4-76
	c0.3-0.8,0-1.7-0.7-2l-8.6-4c-0.8-0.3-1.6,0-2,0.7l-35.4,76c0,0.1-0.1,0.2-0.1,0.3l-4.3,20.4c-0.2,0.8,0.4,1.6,1.2,1.8
	c0.6,0.1,1.1-0.1,1.5-0.5L67.7,97c0.1-0.1,0.1-0.2,0.2-0.3L66.4,96z"/>
<polyline class="st0" points="88.8,48.1 80.2,44.1 78.9,46.8 87.5,50.8 "/>
<polygon class="st0" points="93.7,52 108,21.2 102.5,18.6 101.2,21.4 104,22.7 90.9,50.7 "/>
<polygon class="st0" points="65.1,44.5 65.1,43 28.7,43 28.7,39.3 63.5,39.3 63.5,44.5 65.1,44.5 65.1,43 65.1,44.5 66.6,44.5 
	66.6,36.2 25.6,36.2 25.6,46 66.6,46 66.6,44.5 "/>
<polygon class="st0" points="65.1,30.7 65.1,29.2 28.7,29.2 28.7,25.5 63.5,25.5 63.5,30.7 65.1,30.7 65.1,29.2 65.1,30.7 
	66.6,30.7 66.6,22.5 25.6,22.5 25.6,32.3 66.6,32.3 66.6,30.7 "/>
</svg>
