<?xml version="1.0" encoding="utf-8"?>
<!-- Generator: Adobe Illustrator 20.1.0, SVG Export Plug-In . SVG Version: 6.00 Build 0)  -->
<svg version="1.1" id="Layer_1" xmlns="http://www.w3.org/2000/svg" xmlns:xlink="http://www.w3.org/1999/xlink" x="0px" y="0px"
	 viewBox="0 0 120 120" style="enable-background:new 0 0 120 120;" xml:space="preserve">
<style type="text/css">
	.st0{fill:#484848;}
</style>
<title>ico_consult</title>
<path class="st0" d="M93.2,61.9h-3V35.5c0-13-10.6-23.6-23.6-23.5H53.4c-13,0-23.6,10.5-23.6,23.5v26.3h-3V35.5
	C26.8,20.9,38.7,9,53.4,9h13.2c14.7,0,26.6,11.9,26.6,26.5L93.2,61.9z"/>
<path class="st0" d="M93.2,35.5h-3c0-13-10.6-23.6-23.6-23.5H53.4c-13,0-23.6,10.5-23.6,23.5h-3C26.8,20.9,38.7,9,53.4,9h13.2
	C81.3,9,93.2,20.9,93.2,35.5z"/>
<path class="st0" d="M76.1,69.9c-1.4,0-2.9,0-4.4-0.1s-3.3-0.1-5-0.1v-3c1.8,0,3.5,0,5.1,0.1c7.1,0.1,13.2,0.3,16.2-2.6
	c1.6-1.5,2.4-4,2.4-7.5h3c0,4.3-1.1,7.5-3.3,9.6C86.9,69.4,81.9,69.9,76.1,69.9z"/>
<path class="st0" d="M29.8,63.4h-1.5c-5.8,0-10.2-6-10.2-11.5c0-5.6,4.6-10.2,10.2-10.2v3c-4,0-7.2,3.2-7.2,7.2
	c0,3.8,3.2,8.5,7.2,8.5v0.2h1.5V63.4z"/>
<path class="st0" d="M91.7,63.4h-1.5v-2.8h1.5v-0.2c4,0,7.2-4.6,7.2-8.5c0-4-3.2-7.2-7.2-7.2v-3c5.6,0,10.2,4.5,10.2,10.2
	C101.9,57.3,97.6,63.4,91.7,63.4z"/>
<path class="st0" d="M63.4,73h-3.1c-2.6,0-4.7-2.1-4.7-4.7s2.1-4.7,4.7-4.7h3.1c2.6,0,4.7,2.1,4.7,4.7S66,73,63.4,73z M60.3,66.6
	c-0.9,0-1.7,0.8-1.7,1.7s0.8,1.7,1.7,1.7h3.1c0.9,0,1.7-0.8,1.7-1.7s-0.8-1.7-1.7-1.7H60.3z"/>
<path class="st0" d="M106.5,111h-93c-0.8,0-1.5-0.7-1.5-1.5l0,0c0-0.1,0-0.2,0-0.2C12.1,89,24.4,78.1,47.6,77.6v-8.7
	c-9.2-2.6-11-14.1-10.6-20.1v-9.5c0-12.1,9.7-20.9,23-20.9s23,8.8,23,20.9v9.6c0.1,1.7,0.3,10.4-2.9,13c-0.6,0.5-1.6,0.5-2.1-0.2
	s-0.5-1.6,0.2-2.1c1.5-1.2,1.9-7.1,1.8-10.7v-9.7c0-10.4-8.4-17.9-20-17.9s-20,7.5-20,17.9v9.6c0,0.3-0.9,15.5,9.4,17.3
	c0.7,0.1,1.2,0.8,1.2,1.5v11.4c0,0.8-0.7,1.5-1.5,1.5c-22,0-33.5,9.2-34,27.4H105c-0.6-18.2-12-27.4-34-27.4c-0.8,0-1.5-0.7-1.5-1.5
	s0.7-1.5,1.5-1.5c24.2,0,37.1,11,37.1,31.9c0,0.8-0.6,1.5-1.5,1.6C106.6,111,106.6,111,106.5,111L106.5,111z"/>
</svg>
