<?xml version="1.0" encoding="utf-8"?>
<!-- Generator: Adobe Illustrator 15.0.0, SVG Export Plug-In . SVG Version: 6.00 Build 0)  -->
<!DOCTYPE svg PUBLIC "-//W3C//DTD SVG 1.1//EN" "http://www.w3.org/Graphics/SVG/1.1/DTD/svg11.dtd">
<svg version="1.1" id="Layer_1" xmlns="http://www.w3.org/2000/svg" xmlns:xlink="http://www.w3.org/1999/xlink" x="0px" y="0px"
	 width="18px" height="25px" viewBox="288.64 413.216 18 25" enable-background="new 288.64 413.216 18 25" xml:space="preserve">
<title>ico_retirement</title>
<g>
	<path fill="#484848" d="M296.247,432.448c-0.135,0-0.225-0.091-0.27-0.182l-1.438-5.769c-0.045-0.137,0.045-0.273,0.18-0.318l0,0
		c0.135-0.046,0.27,0.045,0.314,0.182l0,0l1.438,5.769c0.045,0.137-0.045,0.272-0.18,0.318l0,0H296.247z"/>
	<path fill="#484848" d="M296.247,432.448h-0.045c-0.135-0.046-0.225-0.182-0.18-0.318l0,0l1.438-5.769
		c0.045-0.137,0.18-0.228,0.314-0.182c0.135,0.045,0.225,0.182,0.18,0.318l0,0l-1.438,5.769
		C296.472,432.357,296.382,432.448,296.247,432.448z"/>
	<path fill="#484848" d="M299.078,432.448c-0.135,0-0.225-0.091-0.27-0.182l-1.438-5.769c-0.045-0.137,0.045-0.273,0.18-0.318l0,0
		c0.135-0.046,0.27,0.045,0.314,0.182l0,0l1.438,5.769c0.045,0.137-0.045,0.272-0.18,0.318l0,0H299.078z"/>
	<path fill="#484848" d="M299.078,432.448h-0.045c-0.135-0.046-0.225-0.182-0.18-0.318l0,0l1.438-5.769
		c0.045-0.137,0.18-0.228,0.314-0.182c0.135,0.045,0.225,0.182,0.18,0.318l0,0l-1.438,5.769
		C299.303,432.357,299.213,432.448,299.078,432.448z"/>
	<path fill="#484848" d="M301.865,428.405h-8.495c-0.135,0-0.27-0.137-0.27-0.272c0-0.137,0.135-0.272,0.27-0.272h8.495
		c0.135,0,0.27,0.136,0.27,0.272C302.135,428.314,302.045,428.405,301.865,428.405z"/>
	<path fill="#484848" d="M301.281,430.222H294c-0.135,0-0.27-0.137-0.27-0.273c0-0.136,0.135-0.272,0.27-0.272l0,0h7.281
		c0.135,0,0.27,0.137,0.27,0.272C301.55,430.085,301.415,430.222,301.281,430.222L301.281,430.222z"/>
	<path fill="#484848" d="M297.64,438.216c-3.461,0-6.248-1.271-7.775-3.543c-1.438-2.181-1.618-4.951-0.495-7.813
		c1.663-4.315,4.36-6.405,8.27-6.405c3.91,0,6.652,2.09,8.27,6.405l0,0c1.123,2.906,0.943,5.678-0.495,7.813
		C303.888,436.945,301.101,438.216,297.64,438.216z M297.64,421.092c-2.337,0-5.618,0.636-7.686,5.996
		c-1.034,2.68-0.854,5.224,0.449,7.177c1.394,2.09,4,3.271,7.236,3.271c3.236,0,5.842-1.181,7.236-3.271
		c1.304-1.953,1.483-4.497,0.449-7.177l0,0C303.258,421.682,299.933,421.092,297.64,421.092z"/>
	<path fill="#484848" d="M298.449,418.775c-0.09,0-0.225-0.045-0.27-0.136c-0.045-0.091-0.045-0.227,0-0.318
		c0.09-0.227,2.517-4.77,4.854-5.087c0.675-0.091,1.304,0.182,1.753,0.682c0.045,0.091,0.989,1.135,0.494,2.316
		C304.741,417.64,302.449,418.502,298.449,418.775L298.449,418.775z M303.303,413.87h-0.18c-1.483,0.182-3.235,2.725-4.09,4.179
		c4.314-0.409,5.394-1.454,5.618-2.089c0.314-0.818-0.359-1.59-0.359-1.59C304.068,414.051,303.708,413.915,303.303,413.87z"/>
	<path fill="#484848" d="M296.831,418.775L296.831,418.775c-4-0.272-6.292-1.135-6.832-2.543c-0.45-1.181,0.449-2.226,0.494-2.271
		c0.405-0.545,1.079-0.772,1.753-0.727c2.337,0.318,4.764,4.86,4.854,5.042c0.045,0.091,0.045,0.227,0,0.318
		C297.056,418.73,296.966,418.775,296.831,418.775z M291.977,413.87c-0.405,0-0.764,0.182-1.034,0.5c0,0-0.674,0.772-0.36,1.59
		c0.225,0.636,1.304,1.681,5.618,2.089c-0.854-1.454-2.607-3.952-4.09-4.179H291.977z"/>
</g>
</svg>
