<?xml version="1.0" encoding="utf-8"?>
<!-- Generator: Adobe Illustrator 15.0.0, SVG Export Plug-In . SVG Version: 6.00 Build 0)  -->
<!DOCTYPE svg PUBLIC "-//W3C//DTD SVG 1.1//EN" "http://www.w3.org/Graphics/SVG/1.1/DTD/svg11.dtd">
<svg version="1.1" id="Layer_1" xmlns="http://www.w3.org/2000/svg" xmlns:xlink="http://www.w3.org/1999/xlink" x="0px" y="0px"
	 width="48px" height="36px" viewBox="270.663 402.945 48 36" enable-background="new 270.663 402.945 48 36" xml:space="preserve">
<title>ico_publicity</title>
<g>
	<g>
		<path fill="#484848" d="M306.781,436.581L306.781,436.581c-1.221-0.048-1.503-0.435-2.16-1.496l-0.094-0.193
			c-0.329-0.53-0.329-0.53-1.221-1.737c-0.329-0.434-0.752-1.062-1.409-1.882c-1.88-2.605-8.83-3.378-11.32-3.426H277.52
			c-3.804,0-6.857-3.233-6.857-7.239v-1.158c0-4.005,3.1-7.239,6.857-7.239h13.057c2.49-0.145,9.44-1.013,11.367-3.185
			c1.08-1.207,2.02-2.268,2.348-3.185c0.047-0.096,0.095-0.241,0.142-0.337c0.375-1.014,0.892-2.558,2.395-2.558
			c1.033,0,1.832,0.869,1.832,1.931v29.774C308.613,435.711,307.767,436.581,306.781,436.581z M306.781,404.2
			c-0.61,0-0.939,0.772-1.268,1.786c-0.047,0.145-0.094,0.241-0.141,0.386c-0.376,1.013-1.222,2.026-2.583,3.522
			c-2.584,2.944-11.79,3.571-12.165,3.571H277.52c-3.146,0-5.683,2.702-5.683,6.032v1.158c0,3.329,2.536,6.032,5.683,6.032h13.057
			c0.423,0,9.628,0.289,12.259,3.908c0.61,0.869,1.08,1.448,1.361,1.883c0.893,1.254,0.939,1.254,1.269,1.833l0.094,0.193
			c0.563,0.917,0.563,0.917,1.174,0.965c0.376,0,0.657-0.338,0.657-0.724v-29.823C307.439,404.489,307.156,404.2,306.781,404.2z"/>
	</g>
	<g>
		<path fill="#484848" d="M287.947,438.945c-0.986,0-1.972-0.435-3.288-1.496c-1.221-1.013-3.334-7.914-3.945-10.037l1.127-0.338
			c1.221,4.247,2.912,8.928,3.522,9.41c1.128,0.917,1.926,1.303,2.678,1.206c0.282,0,0.517-0.145,0.657-0.386
			c0.141-0.241,0.188-0.482,0.094-0.724c-1.174-3.716-1.691-7.046-1.456-9.41l1.174,0.097c-0.188,2.22,0.282,5.404,1.409,8.879
			c0.188,0.628,0.094,1.303-0.235,1.834c-0.375,0.53-0.939,0.868-1.55,0.917C288.088,438.897,287.994,438.945,287.947,438.945z"/>
	</g>
	<g>
		<rect x="282.546" y="412.838" fill="#484848" width="1.174" height="14.429"/>
	</g>
	<g>
		<rect x="285.833" y="412.838" fill="#484848" width="1.175" height="14.429"/>
	</g>
	<g>
		<polygon fill="#484848" points="312.846,412.552 318.028,409.517 318.609,410.564 313.428,413.6 		"/>
	</g>
	<g>
		<rect x="312.793" y="419.304" fill="#484848" width="5.87" height="1.207"/>
	</g>
	<g>
		<polygon fill="#484848" points="312.841,427.167 313.421,426.12 318.604,429.155 318.023,430.203 		"/>
	</g>
</g>
</svg>
