<?xml version="1.0" encoding="utf-8"?>
<!-- Generator: Adobe Illustrator 15.0.0, SVG Export Plug-In . SVG Version: 6.00 Build 0)  -->
<!DOCTYPE svg PUBLIC "-//W3C//DTD SVG 1.1//EN" "http://www.w3.org/Graphics/SVG/1.1/DTD/svg11.dtd">
<svg version="1.1" id="Layer_1" xmlns="http://www.w3.org/2000/svg" xmlns:xlink="http://www.w3.org/1999/xlink" x="0px" y="0px"
	 width="50px" height="56px" viewBox="272.865 392.945 50 56" enable-background="new 272.865 392.945 50 56" xml:space="preserve">
<title>ico_social</title>
<path fill="#484848" d="M281.071,431.896c-0.185,0-0.37-0.062-0.555-0.249l-3.206-3.235c-5.917-5.911-5.917-15.556-0.062-21.467
	l0.062-0.062c2.835-2.862,6.78-4.293,10.787-3.982c4.007,0.311,7.828,2.115,10.664,4.978l1.232,1.182
	c0.309,0.311,0.309,0.747,0,1.058l0,0c-0.309,0.312-0.802,0.312-1.048,0l0,0l-1.233-1.182c-2.65-2.551-6.041-4.169-9.739-4.48
	c-3.575-0.311-7.027,0.996-9.616,3.484c-5.301,5.351-5.301,14-0.062,19.351c0,0,0,0,0.062,0.063l3.206,3.235
	c0.308,0.312,0.308,0.747,0,1.058C281.503,431.834,281.318,431.896,281.071,431.896L281.071,431.896z"/>
<path fill="#484848" d="M310.165,437.994c-1.109,0-2.157-0.436-2.897-1.244l-6.903-6.906c-0.309-0.312-0.309-0.747,0-1.059l0,0
	c0.308-0.311,0.801-0.311,1.048,0l0,0l6.903,6.845c1.048,0.996,2.65,0.996,3.698,0c1.048-0.995,1.048-2.676,0-3.733l0,0
	l-6.903-6.845c-0.309-0.311-0.309-0.746,0-1.058l0,0c0.309-0.311,0.802-0.311,1.048,0l0,0l6.966,6.907
	c1.603,1.617,1.603,4.23,0,5.849C312.323,437.558,311.275,437.994,310.165,437.994L310.165,437.994z"/>
<path fill="#484848" d="M305.419,442.785c-0.679,0-1.356-0.187-1.973-0.497c-0.37-0.188-0.493-0.685-0.309-1.058
	c0.186-0.374,0.678-0.498,1.048-0.312l0,0c1.048,0.56,2.281,0.373,3.082-0.436c1.048-0.996,1.048-2.676,0-3.733l0,0l-6.903-6.906
	c-0.309-0.312-0.309-0.747,0-1.059l0,0c0.308-0.311,0.801-0.311,1.048,0l0,0l6.903,6.845c1.603,1.618,1.603,4.231,0,5.849l0,0
	C307.576,442.288,306.529,442.785,305.419,442.785z"/>
<path fill="#484848" d="M283.968,435.878c-0.986,0-1.973-0.373-2.712-1.12c-1.479-1.493-1.479-3.92,0-5.413l0,0l3.637-3.609
	c1.479-1.493,3.883-1.493,5.424,0c1.479,1.494,1.479,3.92,0,5.414l0,0l-3.637,3.608
	C286.002,435.505,285.016,435.878,283.968,435.878z M287.605,426.11c-0.616,0-1.171,0.249-1.603,0.685l-3.637,3.608
	c-0.925,0.871-0.925,2.364,0,3.235l0,0c0.924,0.871,2.342,0.871,3.267,0l0,0l3.637-3.608c0.924-0.934,0.924-2.364,0-3.298
	C288.776,426.359,288.221,426.11,287.605,426.11L287.605,426.11z"/>
<path fill="#484848" d="M288.344,440.234c-2.096,0-3.822-1.68-3.822-3.857c0-0.996,0.37-1.991,1.11-2.738l3.637-3.608
	c1.479-1.494,3.883-1.494,5.424,0c1.479,1.493,1.479,3.92,0,5.413l0,0l-3.637,3.671l0,0
	C290.317,439.861,289.331,440.234,288.344,440.234z M291.981,430.465c-0.616,0-1.171,0.249-1.603,0.685l-3.637,3.608
	c-0.925,0.934-0.925,2.364,0,3.298c0.924,0.934,2.342,0.934,3.267,0l3.575-3.609c0.925-0.933,0.925-2.364,0-3.297
	C293.153,430.714,292.536,430.465,291.981,430.465L291.981,430.465z M290.502,438.554L290.502,438.554z"/>
<path fill="#484848" d="M292.659,444.589c-0.986,0-1.973-0.373-2.712-1.12c-1.479-1.493-1.479-3.92,0-5.413l0,0l3.637-3.609
	c1.541-1.431,3.883-1.431,5.424,0c1.479,1.494,1.479,3.921,0,5.414l0,0l-3.637,3.608
	C294.632,444.216,293.646,444.589,292.659,444.589z M296.296,434.821c-0.617,0-1.171,0.249-1.603,0.685l-3.637,3.608
	c-0.925,0.871-0.925,2.364,0,3.235l0,0c0.924,0.871,2.342,0.871,3.267,0l0,0l3.637-3.608c0.925-0.871,0.925-2.364,0-3.298
	C297.467,435.07,296.912,434.821,296.296,434.821L296.296,434.821z"/>
<path fill="#484848" d="M296.974,448.945c-2.096,0-3.822-1.68-3.822-3.857c0-0.996,0.37-1.991,1.109-2.738l3.637-3.608
	c1.479-1.493,3.884-1.493,5.425,0c1.479,1.493,1.479,3.92,0,5.413l0,0l-3.638,3.609
	C298.947,448.572,298.022,448.945,296.974,448.945z M300.611,439.176c-0.616,0-1.171,0.249-1.603,0.685l-3.637,3.608
	c-0.924,0.934-0.924,2.365,0,3.298c0.925,0.871,2.342,0.871,3.267,0l3.637-3.608c0.925-0.934,0.925-2.364,0-3.298
	C301.782,439.425,301.228,439.176,300.611,439.176L300.611,439.176z"/>
<path fill="#484848" d="M314.973,433.14c-1.109,0-2.157-0.435-2.896-1.244l-6.904-6.845c-0.308-0.311-0.308-0.746,0-1.058l0,0
	c0.309-0.311,0.802-0.311,1.048,0l0,0l6.904,6.907c1.048,0.995,2.65,0.995,3.698,0c1.048-0.996,1.048-2.676,0-3.733l0,0
	l-12.821-12.88l-5.794,5.725c-1.479,1.494-3.884,1.494-5.425,0c-1.603-1.556-1.726-4.044-0.308-5.476l5.917-4.916
	c2.65-2.676,6.226-4.355,9.985-4.667c3.761-0.311,7.459,0.996,10.171,3.671c2.65,2.613,4.253,6.222,4.314,9.956
	c0.063,3.609-1.294,7.094-3.76,9.707c0.37,2.239-1.171,4.418-3.452,4.729C315.405,433.14,315.157,433.14,314.973,433.14z
	 M304.001,412.42c0.185,0,0.37,0.063,0.555,0.249l13.314,13.44c0.185,0.187,0.369,0.436,0.555,0.685
	c1.911-2.24,2.897-5.103,2.835-8.089c-0.062-3.36-1.479-6.596-3.883-8.96c-2.343-2.364-5.671-3.547-8.938-3.236
	c-3.39,0.312-6.595,1.805-9.061,4.293l-5.856,4.854c-0.863,0.871-0.493,2.364,0.37,3.235c0.924,0.934,2.342,0.934,3.267,0
	l6.349-6.222C303.631,412.545,303.816,412.483,304.001,412.42L304.001,412.42z"/>
<path fill="#484848" d="M299.44,406.634c-0.247,0-0.432-0.125-0.555-0.311s-2.342-4.542-2.342-7.218
	c0-2.675,2.281-5.787,2.404-5.911s0.309-0.249,0.493-0.249l0,0c0.185,0,0.37,0.063,0.493,0.249c0.123,0.125,2.404,3.173,2.404,5.911
	s-2.22,7.031-2.343,7.218C299.871,406.572,299.686,406.696,299.44,406.634z M299.44,394.625c-0.616,0.996-1.664,2.862-1.664,4.48
	s1.048,4.107,1.664,5.538c0.616-1.431,1.664-3.92,1.664-5.538S300.056,395.621,299.44,394.625L299.44,394.625z"/>
</svg>
