<?xml version="1.0" encoding="utf-8"?>
<!-- Generator: Adobe Illustrator 20.1.0, SVG Export Plug-In . SVG Version: 6.00 Build 0)  -->
<svg version="1.1" id="Layer_1" xmlns="http://www.w3.org/2000/svg" xmlns:xlink="http://www.w3.org/1999/xlink" x="0px" y="0px"
	 viewBox="0 0 120 120" style="enable-background:new 0 0 120 120;" xml:space="preserve">
<style type="text/css">
	.st0{fill:#4B4A4B;}
</style>
<title>ico_health</title>
<path class="st0" d="M69.5,37.1h9.2c1.1,0,2.2,0.3,3.3,0.8c2.2,1.3,4.1,2.9,5.7,4.9c2.9,3.3,5.8,7.5,9,11c1.6,1.7,3.4,3.2,5.3,4.4
	c2,1.2,4.2,1.9,6.5,1.9v-3.3c-1.3,0-2.6-0.3-3.8-0.8c-2.4-1.2-4.5-2.9-6.2-4.9c-3-3.3-5.9-7.5-9-10.9c-1.5-1.7-3.1-3.2-5-4.4
	c-1.8-1.2-3.9-1.9-6-1.9h-9.2V37.1z"/>
<path class="st0" d="M28.5,80.6c4,0,7.3,3.3,7.3,7.3s-3.3,7.3-7.3,7.3c-4,0-7.3-3.3-7.3-7.3S24.5,80.7,28.5,80.6 M28.5,77.4
	c-5.8,0-10.5,4.7-10.5,10.5c0,0,0,0,0,0c0,5.8,4.7,10.5,10.5,10.6c0,0,0,0,0,0C34.3,98.5,39,93.8,39,88c0,0,0,0,0,0
	C39,82.1,34.3,77.4,28.5,77.4C28.5,77.4,28.5,77.4,28.5,77.4L28.5,77.4z"/>
<path class="st0" d="M114,58.5v-1.6H71.1V27.5c0-3.3-2.7-6-6-6H5.9c-3.3,0-6,2.7-6,6v56.1c0,3.3,2.7,6,6,6h9.3v-1.6
	c0-3.5,1.4-6.9,3.9-9.4c2.5-2.5,5.8-3.9,9.4-3.9c3.5,0,6.9,1.4,9.4,3.9c2.5,2.5,3.9,5.9,3.9,9.4v1.6h30.8v-1.6
	c0-3.5,1.4-6.9,3.9-9.4c2.5-2.5,5.8-3.9,9.4-3.9c3.5,0,6.9,1.4,9.4,3.9c2.5,2.5,3.9,5.9,3.9,9.4v1.6h15c3.3,0,6-2.7,6-6V62.9
	c0-3.3-2.7-6-6-6v3.3c0.7,0,1.4,0.3,1.9,0.8c0.5,0.5,0.8,1.2,0.8,1.9v20.7c0,0.7-0.3,1.4-0.8,1.9c-0.5,0.5-1.2,0.8-1.9,0.8h-13.4
	v1.6h1.6c0-9.1-7.4-16.5-16.5-16.6c-9.1,0-16.5,7.4-16.5,16.6h1.6v-1.6H43.3v1.6H45c0-9.1-7.4-16.5-16.5-16.6
	c-9.1,0-16.5,7.4-16.5,16.6h1.6v-1.6H6c-0.7,0-1.4-0.3-1.9-0.8c-0.5-0.5-0.8-1.2-0.8-1.9V27.5c0-0.7,0.3-1.4,0.8-1.9
	c0.5-0.5,1.2-0.8,1.9-0.8h59.2c0.7,0,1.4,0.3,1.9,0.8c0.5,0.5,0.8,1.2,0.8,1.9v32.7H114L114,58.5z"/>
<path class="st0" d="M85.8,80.6c4,0,7.3,3.3,7.3,7.3s-3.3,7.3-7.3,7.3c-4,0-7.3-3.3-7.3-7.3S81.8,80.7,85.8,80.6 M85.8,77.4
	c-5.8,0-10.5,4.7-10.5,10.5c0,0,0,0,0,0c0,5.8,4.7,10.5,10.5,10.6c0,0,0,0,0,0c5.8,0,10.5-4.7,10.5-10.5c0,0,0,0,0,0
	C96.3,82.1,91.6,77.4,85.8,77.4C85.8,77.4,85.8,77.4,85.8,77.4L85.8,77.4z"/>
<polygon class="st0" points="48.5,41.2 48.5,39.5 41.8,39.5 41.8,31.2 28.9,31.2 28.9,39.5 20.6,39.5 20.6,52.5 28.9,52.5 
	28.9,60.8 41.8,60.8 41.8,52.5 50.2,52.5 50.2,39.5 48.5,39.5 48.5,41.2 46.9,41.2 46.9,49.2 38.5,49.2 38.5,57.6 32.2,57.6 
	32.2,49.2 23.8,49.2 23.8,42.8 32.2,42.8 32.2,34.4 38.5,34.4 38.5,42.8 48.5,42.8 48.5,41.2 46.9,41.2 "/>
</svg>
