<?xml version="1.0" encoding="utf-8"?>
<!-- Generator: Adobe Illustrator 20.1.0, SVG Export Plug-In . SVG Version: 6.00 Build 0)  -->
<svg version="1.1" id="Layer_1" xmlns="http://www.w3.org/2000/svg" xmlns:xlink="http://www.w3.org/1999/xlink" x="0px" y="0px"
	 viewBox="0 0 120 120" style="enable-background:new 0 0 120 120;" xml:space="preserve">
<style type="text/css">
	.st0{fill:#484848;}
</style>
<title>ico_connect</title>
<polygon class="st0" points="106,103.5 106,102 15.5,102 15.5,18 104.5,18 104.5,103.5 106,103.5 106,102 106,103.5 107.5,103.5 
	107.5,15 12.5,15 12.5,105 107.5,105 107.5,103.5 "/>
<polygon class="st0" points="77.7,50.8 83.8,56.8 92.3,46.4 90,44.5 83.5,52.3 79.8,48.7 "/>
<polygon class="st0" points="77.7,67.6 83.8,73.6 92.3,63.1 90,61.2 83.5,69.1 79.8,65.4 "/>
<polygon class="st0" points="30.5,67.6 36.7,73.6 45.2,63.1 42.8,61.2 36.4,69.1 32.7,65.4 "/>
<polygon class="st0" points="29.5,86.6 35.6,92.6 44.1,82.1 41.7,80.2 35.3,88.1 31.6,84.5 "/>
<polyline class="st0" points="58.5,16.5 58.5,103.5 61.5,103.5 61.5,16.5 "/>
<polygon class="st0" points="49.9,33.4 49.9,31.9 26.3,31.9 26.3,27.8 48.4,27.8 48.4,33.4 49.9,33.4 49.9,31.9 49.9,33.4 
	51.4,33.4 51.4,24.8 23.3,24.8 23.3,34.9 51.4,34.9 51.4,33.4 "/>
<polygon class="st0" points="95.7,33.4 95.7,31.9 72.1,31.9 72.1,27.8 94.2,27.8 94.2,33.4 95.7,33.4 95.7,31.9 95.7,33.4 
	97.2,33.4 97.2,24.8 69.1,24.8 69.1,34.9 97.2,34.9 97.2,33.4 "/>
<ellipse class="st0" cx="36.4" cy="48.2" rx="2.9" ry="2.8"/>
<ellipse class="st0" cx="84.2" cy="90.3" rx="2.9" ry="2.8"/>
</svg>
