<?xml version="1.0" encoding="utf-8"?>
<!-- Generator: Adobe Illustrator 15.0.0, SVG Export Plug-In . SVG Version: 6.00 Build 0)  -->
<!DOCTYPE svg PUBLIC "-//W3C//DTD SVG 1.1//EN" "http://www.w3.org/Graphics/SVG/1.1/DTD/svg11.dtd">
<svg version="1.1" id="Layer_1" xmlns="http://www.w3.org/2000/svg" xmlns:xlink="http://www.w3.org/1999/xlink" x="0px" y="0px"
	 width="62px" height="47px" viewBox="266.888 397.445 62 47" enable-background="new 266.888 397.445 62 47" xml:space="preserve">
<title>ico_topcustomer</title>
<path fill="#484848" d="M316.703,414.734c-0.397,0-0.738-0.336-0.738-0.728l0,0v-6.435c0-4.756-3.916-8.617-8.684-8.617h-19.241
	c-4.825,0-8.741,3.861-8.741,8.617v6.267c0,0.392-0.341,0.728-0.738,0.728c-0.397,0-0.738-0.336-0.738-0.728l0,0v-6.267
	c0-5.595,4.541-10.072,10.216-10.127h19.184c5.676,0,10.217,4.532,10.217,10.127v6.435
	C317.442,414.398,317.101,414.734,316.703,414.734z"/>
<path fill="#484848" d="M311.482,429.114h-27.244c-0.397,0-0.738-0.336-0.738-0.728s0.34-0.728,0.738-0.728h27.244
	c0.397,0,0.738,0.336,0.738,0.728C312.277,428.778,311.936,429.114,311.482,429.114z"/>
<path fill="#484848" d="M318.406,444.445h-41.093c-1.873,0-3.349-1.455-3.349-3.301v-16.171c0-0.392,0.341-0.728,0.738-0.728
	c0.397,0,0.738,0.336,0.738,0.728l0,0v16.171c0,1.007,0.795,1.79,1.816,1.79h41.092c1.022,0,1.816-0.783,1.816-1.79v-15.947
	c0-0.392,0.341-0.727,0.738-0.727s0.738,0.335,0.738,0.727l0,0v15.947C321.755,442.99,320.28,444.445,318.406,444.445z"/>
<path fill="#484848" d="M309.609,436.164h-23.498c-1.362,0-2.498-1.118-2.498-2.462l-0.454-12.869l-0.057-0.448
	c-0.341-1.791-1.306-3.469-2.725-4.644c-1.249-1.063-3.349-1.679-5.505-1.511s-4.144,0.951-5.222,2.182
	c-1.816,2.07-1.533,5.147,0.511,6.938c0.738,0.615,2.157,1.007,3.632,0.895c1.476-0.111,2.838-0.56,3.462-1.286
	c1.022-1.231,0.908-3.022-0.284-4.029c-0.284-0.336-0.227-0.784,0.057-1.063c0.284-0.224,0.625-0.224,0.908-0.056
	c1.816,1.567,2.043,4.308,0.454,6.155c-0.908,1.063-2.611,1.734-4.541,1.847c-1.93,0.111-3.689-0.392-4.711-1.287
	c-2.725-2.294-3.008-6.379-0.681-9.064c1.362-1.566,3.632-2.518,6.3-2.686c2.668-0.168,5.052,0.56,6.584,1.902
	c1.703,1.455,2.781,3.357,3.235,5.539l0.114,0.616l0.454,12.981c0,0.504,0.397,0.951,0.965,0.951l0,0h23.441
	c0.511,0,0.965-0.447,0.965-0.951l0.511-13.149l0.113-0.503c0.397-2.126,1.532-4.084,3.235-5.54c1.589-1.343,4.03-2.014,6.641-1.902
	c2.611,0.112,4.938,1.119,6.301,2.686c2.326,2.686,2.043,6.714-0.682,9.064c-1.021,0.895-2.838,1.398-4.711,1.286
	c-1.873-0.111-3.633-0.783-4.541-1.846c-1.589-1.847-1.361-4.588,0.454-6.155c0.341-0.224,0.795-0.112,1.079,0.224
	c0.17,0.28,0.17,0.671-0.057,0.895c-1.192,1.063-1.362,2.854-0.284,4.028c0.624,0.728,1.93,1.231,3.462,1.287
	c1.533,0.056,2.895-0.279,3.633-0.895c2.1-1.791,2.327-4.868,0.511-6.938c-1.078-1.231-3.008-2.07-5.222-2.182
	c-2.214-0.112-4.257,0.447-5.506,1.511c-1.419,1.175-2.384,2.854-2.724,4.644l-0.058,0.447l-0.624,12.925
	C312.049,435.045,310.971,436.164,309.609,436.164z"/>
</svg>
