<?xml version="1.0" encoding="utf-8"?>
<!-- Generator: Adobe Illustrator 15.0.0, SVG Export Plug-In . SVG Version: 6.00 Build 0)  -->
<!DOCTYPE svg PUBLIC "-//W3C//DTD SVG 1.1//EN" "http://www.w3.org/Graphics/SVG/1.1/DTD/svg11.dtd">
<svg version="1.1" id="Layer_1" xmlns="http://www.w3.org/2000/svg" xmlns:xlink="http://www.w3.org/1999/xlink" x="0px" y="0px"
	 width="54px" height="48px" viewBox="271.384 396.945 54 48" enable-background="new 271.384 396.945 54 48" xml:space="preserve">
<title>ico_VOC</title>
<path fill="#484848" d="M280.393,440.366c-0.11,0-0.165,0-0.275-0.056c-0.33-0.11-0.494-0.386-0.494-0.717v-11.09h-7.471
	c-0.439,0-0.769-0.331-0.769-0.772v-30.014c0-0.441,0.33-0.772,0.769-0.772h41.64c0.439,0,0.769,0.331,0.769,0.772v30.014
	c0,0.441-0.329,0.772-0.769,0.772h-23.896l-8.899,11.586C280.833,440.255,280.613,440.366,280.393,440.366z M272.867,426.958h7.471
	c0.439,0,0.769,0.331,0.769,0.772v9.655l7.801-10.151c0.165-0.166,0.385-0.276,0.604-0.276h23.511V398.49h-40.156V426.958z"/>
<path fill="#484848" d="M317.418,444.945c-0.22,0-0.438-0.11-0.604-0.275l-6.593-8.553h-15.051c-0.44,0-0.77-0.33-0.77-0.771v-4.801
	c0-0.441,0.33-0.772,0.77-0.772c0.439,0,0.769,0.331,0.769,0.772l0,0v4.028h14.722c0.22,0,0.439,0.11,0.604,0.275l5.493,7.117v-6.62
	c0-0.441,0.33-0.772,0.77-0.772h6.317v-27.642h-7.142c-0.439,0-0.769-0.331-0.769-0.772s0.329-0.772,0.769-0.772l0,0h7.911
	c0.439,0,0.769,0.331,0.769,0.772v29.131c0,0.441-0.329,0.772-0.769,0.772h-6.482v8.11c0,0.331-0.22,0.606-0.495,0.718
	C317.583,444.945,317.474,444.945,317.418,444.945z"/>
<path fill="#484848" d="M302.697,407.152H278.47c-0.439,0-0.769-0.331-0.769-0.772s0.33-0.772,0.769-0.772h24.226
	c0.439,0,0.769,0.331,0.769,0.772S303.136,407.152,302.697,407.152L302.697,407.152z"/>
<path fill="#484848" d="M296.434,412.834H278.47c-0.439,0-0.769-0.331-0.769-0.772s0.33-0.772,0.769-0.772h17.963
	c0.439,0,0.769,0.331,0.769,0.772C297.203,412.448,296.873,412.834,296.434,412.834z"/>
</svg>
