<?xml version="1.0" encoding="utf-8"?>
<!-- Generator: Adobe Illustrator 15.0.0, SVG Export Plug-In . SVG Version: 6.00 Build 0)  -->
<svg version="1.1" id="Layer_1" xmlns="http://www.w3.org/2000/svg" xmlns:xlink="http://www.w3.org/1999/xlink" x="0px" y="0px"
	 width="11px" height="9px" viewBox="0 0 11 9" enable-background="new 0 0 11 9" xml:space="preserve">
<g>
	<path fill="#333333" d="M11,0.437L6.034,4.5L11,8.557L10.468,9L5.5,4.937L0.533,8.988L0,8.552L4.967,4.5L0,0.448l0.533-0.437
		L5.5,4.063L10.468,0L11,0.437z M2.682,4.5c0,0.181-0.084,0.34-0.253,0.478C2.261,5.115,2.066,5.184,1.846,5.184
		c-0.222,0-0.416-0.067-0.584-0.204C1.093,4.845,1.01,4.685,1.01,4.5c0-0.189,0.081-0.35,0.244-0.484
		c0.164-0.134,0.362-0.2,0.592-0.2c0.225,0,0.421,0.069,0.587,0.207C2.599,4.16,2.682,4.319,2.682,4.5z M5.5,0.82
		c0.23,0,0.428,0.067,0.591,0.204c0.163,0.135,0.245,0.293,0.245,0.475c0,0.188-0.082,0.35-0.245,0.483
		C5.928,2.116,5.73,2.182,5.5,2.182c-0.226,0-0.421-0.069-0.588-0.207C4.747,1.838,4.664,1.679,4.664,1.498
		c0-0.177,0.083-0.334,0.248-0.472C5.079,0.889,5.274,0.82,5.5,0.82z M5.5,6.806c0.216,0,0.409,0.065,0.58,0.198
		C6.251,7.135,6.336,7.297,6.336,7.49c0,0.189-0.082,0.351-0.245,0.484c-0.163,0.133-0.361,0.2-0.591,0.2
		c-0.226,0-0.421-0.069-0.588-0.207C4.747,7.831,4.664,7.671,4.664,7.49c0-0.188,0.085-0.35,0.256-0.483S5.284,6.806,5.5,6.806z
		 M9.998,4.5c0,0.181-0.084,0.34-0.252,0.478C9.578,5.115,9.383,5.184,9.162,5.184c-0.23,0-0.428-0.07-0.591-0.209
		C8.408,4.835,8.326,4.677,8.326,4.5s0.081-0.335,0.242-0.475c0.161-0.139,0.359-0.209,0.595-0.209c0.227,0,0.422,0.069,0.588,0.207
		C9.915,4.16,9.998,4.319,9.998,4.5z"/>
</g>
</svg>
