<?xml version="1.0" encoding="utf-8"?>
<!-- Generator: Adobe Illustrator 20.1.0, SVG Export Plug-In . SVG Version: 6.00 Build 0)  -->
<svg version="1.1" width="60" height="60" id="Layer_1" xmlns="http://www.w3.org/2000/svg" xmlns:xlink="http://www.w3.org/1999/xlink" x="0px" y="0px"
	 viewBox="0 0 120 120" style="enable-background:new 0 0 120 120;" xml:space="preserve">
<style type="text/css">
	.st0{fill:#484848;}
</style>
<title>ico_annuity</title>
<path class="st0" d="M35.9,31.5c2.3,0,4.5,0.8,6.3,2.2c0.8,0.6,1.8,0.8,2.8,0.5c1.3-0.4,2.6-0.7,3.9-1l4.1-0.2
	c4.1,9.8,15.4,14.3,25.2,10.2c2.5-1.1,4.8-2.6,6.6-4.6c0.7,0.4,1.3,0.8,1.9,1.2c4.8,3.1,8.7,7.3,11.6,12.2c0.8,1.5,2.6,2,4.1,1.3
	c1-0.5,1.7-1.7,1.6-2.8c0-0.4,0.2-0.8,0.6-1c0.4-0.2,0.9-0.1,1.2,0.2c3.9,4,3.8,10.3-0.1,14.2c-0.7,0.6-1.4,1.2-2.2,1.6
	c-0.9,0.5-1.5,1.4-1.6,2.5c-0.7,7.6-4.2,14.6-9.9,19.7c-0.6,0.6-0.9,1.4-0.9,2.2v10c0,3.6-2.9,6.5-6.5,6.5H78c-2.3,0-5.5-5.1-6.4-9
	c-0.3-1.4-1.5-2.4-2.9-2.4c-0.2,0-0.3,0-0.5,0c-5,0.8-10.1,0.9-15.1,0.2h-0.4c-1.4,0-2.6,1-2.9,2.3c-0.9,3.9-4.1,8.8-6.3,8.8h-6.4
	c-3.5,0-6.4-2.8-6.5-6.4l0.9-11.2c0.1-1.1-0.4-2.2-1.4-2.8c-4.7-2.9-8.4-7.3-10.6-12.4c-0.5-1-1.5-1.7-2.6-1.8
	c-3.5-0.1-5.5-2.2-5.5-5.6v-3.7c0-3.5,2.7-6.4,6.2-6.5c1.1,0,2.2-0.7,2.6-1.8c2.1-4.6,5.2-8.7,9.2-11.9c0.7-0.6,1.1-1.4,1.1-2.3
	v-6.5c0-0.4,0.2-0.7,0.5-0.9C32.6,32,34.3,31.5,35.9,31.5 M35.9,28.5c-2.2,0-4.3,0.5-6.2,1.5c-1.3,0.7-2.1,2.1-2.1,3.6v6.5
	c-4.3,3.5-7.7,8-10,13c-5.1,0.2-9.1,4.4-9.1,9.5v3.7c0,5.1,3.3,8.4,8.4,8.6c2.4,5.7,6.5,10.5,11.7,13.7l-1,11.3
	c0,5.3,4.3,9.5,9.5,9.5h6.4c4.5,0,8.2-6.9,9.2-11.1c5.3,0.7,10.7,0.6,16-0.3c0.9,4.3,4.7,11.3,9.3,11.3h6.4c5.3,0,9.5-4.3,9.5-9.5
	V89.9c6.2-5.6,10-13.3,10.8-21.6c6.3-3.5,8.7-11.4,5.2-17.8c-0.6-1-1.3-2-2.1-2.9c-1.5-1.6-4-1.7-5.7-0.3c-0.9,0.8-1.4,2-1.3,3.3
	c-3-5.4-7.3-10-12.5-13.3c-1.4-1-2.9-1.8-4.4-2.6v0.1c-3,4.8-8.3,7-13.5,7c-7.2,0-13.5-4.8-15.4-11.7v-0.1l-6.6,0.3
	c-1.5,0.3-3,0.7-4.4,1.1C41.8,29.5,38.9,28.5,35.9,28.5L35.9,28.5z"/>
<path class="st0" d="M41.1,57h-1.5c0,1.3-1.1,2.4-2.4,2.4c-1.3,0-2.4-1.1-2.4-2.4c0-1.3,1.1-2.4,2.4-2.4c1.3,0,2.4,1.1,2.4,2.4h3
	c0-3-2.4-5.4-5.4-5.4S31.8,54,31.8,57c0,3,2.4,5.4,5.4,5.4s5.4-2.4,5.4-5.4c0,0,0,0,0,0H41.1z"/>
<path class="st0" d="M78.1,42.6c1.2,0.4,2.4,0.9,3.5,1.5l0,0c1.2,0.7,1.7,2.2,1,3.4c0,0,0,0,0,0l0,0c-0.4,0.8-1.3,1.3-2.2,1.3
	c-0.4,0-0.8-0.1-1.2-0.3l0,0c-6.5-3.5-13.8-5.3-21.2-5.2c-1.3,0-2.6,0-3.9,0.2h-0.3c-0.6,0-1.2-0.2-1.7-0.7c-0.5-0.4-0.7-1-0.8-1.7
	l0,0v-0.2c0-1.3,1-2.4,2.3-2.5l0,0c0.3,0,0.7,0,1.2,0c0.7,0,1.5,0,2.5,0.1l0.2-3c-1-0.1-1.9-0.1-2.7-0.1c-0.5,0-1,0-1.4,0l0,0
	c-2.8,0.2-5,2.6-5.1,5.5c0,0.2,0,0.3,0,0.5l0,0C48.4,42.7,49,44,50,45c1,1,2.4,1.5,3.8,1.5h0.6L54.2,45l0.1,1.5
	c1.2-0.1,2.4-0.1,3.6-0.1c6.9-0.1,13.7,1.6,19.8,4.8l0,0c2.7,1.5,6,0.5,7.5-2.2c0,0,0,0,0,0l0,0c1.5-2.7,0.5-6.1-2.2-7.6
	c0,0,0,0,0,0l0,0c-1.3-0.7-2.6-1.2-4-1.6L78.1,42.6z"/>
<path class="st0" d="M70.3,43.7v-1.5c-7.9,0-14.3-6.5-14.3-14.4s6.5-14.3,14.4-14.3c7.9,0,14.3,6.4,14.3,14.3c0,2.2-0.4,4.4-1.3,6.5
	c-1.1,2.5-3,4.6-5.4,5.9c-2.3,1.3-5,2-7.7,2v3c4.3,0,8.5-1.4,11.8-4.2c1.7-1.5,3.1-3.4,4-5.5c1-2.4,1.6-5,1.5-7.7
	c0-9.6-7.8-17.3-17.3-17.3c-9.6,0-17.3,7.8-17.3,17.3c0,9.6,7.8,17.3,17.3,17.3V43.7z"/>
<path class="st0" d="M70.3,37.1v-1.5c-4.2,0-7.7-3.4-7.7-7.7s3.4-7.7,7.7-7.7s7.7,3.4,7.7,7.7c0,1.2-0.2,2.4-0.7,3.5
	c-0.6,1.3-1.6,2.4-2.9,3.1c-1.3,0.7-2.7,1.1-4.1,1v3c2.6,0,5.2-0.9,7.3-2.6c1.1-0.9,1.9-2.1,2.5-3.4c0.6-1.5,1-3.1,0.9-4.7
	c0-5.9-4.8-10.7-10.7-10.7c-5.9,0-10.7,4.8-10.7,10.7c0,5.9,4.8,10.7,10.7,10.7V37.1z"/>
</svg>
