<?xml version="1.0" encoding="utf-8"?>
<!-- Generator: Adobe Illustrator 20.1.0, SVG Export Plug-In . SVG Version: 6.00 Build 0)  -->
<svg version="1.1" width="60" height="60" id="Layer_1" xmlns="http://www.w3.org/2000/svg" xmlns:xlink="http://www.w3.org/1999/xlink" x="0px" y="0px"
	 viewBox="0 0 120 120" style="enable-background:new 0 0 120 120;" xml:space="preserve">
<style type="text/css">
	.st0{fill:#484848;}
</style>
<title>ico_etc</title>
<path class="st0" d="M45.4,51.5c-6.9,0-12.5-5.6-12.5-12.6s5.6-12.5,12.6-12.5c2.2,0,4.3,0.6,6.2,1.7l0,0c6,3.5,8.1,11.1,4.6,17.1
	C54,49.2,49.9,51.6,45.4,51.5z M45.4,29.4c-0.8,0-1.7,0.1-2.5,0.3c-5.1,1.3-8.2,6.6-6.8,11.7c1.3,5.1,6.6,8.2,11.7,6.8
	c5.1-1.3,8.2-6.6,6.8-11.7c-0.6-2.5-2.2-4.5-4.4-5.8l0,0C48.7,29.9,47.1,29.5,45.4,29.4L45.4,29.4z"/>
<path class="st0" d="M82,30.4H63.7c-0.8,0-1.5-0.7-1.5-1.5s0.7-1.5,1.5-1.5H82c0.8,0,1.5,0.7,1.5,1.5S82.9,30.4,82,30.4z"/>
<path class="st0" d="M82,41.6H63.7c-0.8,0-1.5-0.7-1.5-1.5s0.7-1.5,1.5-1.5H82c0.8,0,1.5,0.7,1.5,1.5S82.9,41.6,82,41.6z"/>
<path class="st0" d="M82,52.8H63.7c-0.8,0-1.5-0.7-1.5-1.5s0.7-1.5,1.5-1.5H82c0.8,0,1.5,0.7,1.5,1.5S82.9,52.8,82,52.8z"/>
<path class="st0" d="M82,64H35c-0.8,0-1.5-0.7-1.5-1.5S34.2,61,35,61h47c0.8,0,1.5,0.7,1.5,1.5S82.9,64,82,64z"/>
<path class="st0" d="M82,75.2H35c-0.8,0-1.5-0.7-1.5-1.5s0.7-1.5,1.5-1.5h47c0.8,0,1.5,0.7,1.5,1.5S82.9,75.2,82,75.2z"/>
<path class="st0" d="M82,86.4H35c-0.8,0-1.5-0.7-1.5-1.5s0.7-1.5,1.5-1.5h47c0.8,0,1.5,0.7,1.5,1.5S82.9,86.4,82,86.4z"/>
<path class="st0" d="M50.5,50.3c-0.6,0-1.1-0.3-1.4-0.9l-4-9L35.7,35c-0.7-0.5-0.9-1.4-0.4-2.1c0.4-0.6,1.2-0.8,1.9-0.5L47,38
	c0.3,0.2,0.5,0.4,0.6,0.7l4.2,9.5c0.3,0.8,0,1.6-0.7,2c0,0,0,0,0,0C50.9,50.3,50.7,50.3,50.5,50.3z"/>
<path class="st0" d="M87.4,109H20.5c-0.8,0-1.5-0.7-1.5-1.5v-95c0-0.8,0.7-1.5,1.5-1.5h79c0.8,0,1.5,0.7,1.5,1.5v81.1
	c0,0.4-0.1,0.7-0.4,1l-12.1,13.9C88.2,108.8,87.8,109,87.4,109z M22,106h64.7L98,93V14H22L22,106z M99.5,93.6L99.5,93.6z"/>
<path class="st0" d="M87.4,109c-0.8,0-1.5-0.7-1.5-1.5V93.6c0-0.8,0.7-1.5,1.5-1.5h12.1c0.8,0,1.5,0.7,1.5,1.5s-0.7,1.5-1.5,1.5
	H88.9v12.4C88.9,108.3,88.2,109,87.4,109z"/>
</svg>
