<?xml version="1.0" encoding="utf-8"?>
<!-- Generator: Adobe Illustrator 20.1.0, SVG Export Plug-In . SVG Version: 6.00 Build 0)  -->
<svg version="1.1" id="Layer_1" xmlns="http://www.w3.org/2000/svg" xmlns:xlink="http://www.w3.org/1999/xlink" x="0px" y="0px"
	 width="60px" height="60px" viewBox="0 0 60 60" style="enable-background:new 0 0 60 60;" xml:space="preserve">
<style type="text/css">
	.st0{fill:#484848;}
</style>
<g>
	<title>ico_consult</title>
	<path class="st0" d="M46.6,31.4h-1.5V18.2c0-6.5-5.3-11.8-11.8-11.8h-6.6c-6.5,0-11.8,5.3-11.8,11.8v13.2h-1.5V18.2
		c0-7.3,6-13.3,13.3-13.3h6.6c7.3,0,13.3,5.9,13.3,13.3V31.4z"/>
	<path class="st0" d="M46.6,18.2h-1.5c0-6.5-5.3-11.8-11.8-11.8h-6.6c-6.5,0-11.8,5.3-11.8,11.8h-1.5c0-7.3,6-13.3,13.3-13.3h6.6
		C40.6,5,46.6,10.9,46.6,18.2z"/>
	<path class="st0" d="M38,35.4c-0.7,0-1.5,0-2.2,0s-1.7,0-2.5,0v-1.5c0.9,0,1.7,0,2.6,0c3.5,0.1,6.6,0.1,8.1-1.3
		c0.9-1,1.3-2.4,1.2-3.7h1.5c0.1,1.8-0.4,3.5-1.6,4.8C43.4,35.2,41,35.4,38,35.4z"/>
	<path class="st0" d="M14.9,32.1h-0.8c-2.9,0-5.1-3-5.1-5.7c0-2.8,2.3-5.1,5.1-5.1v1.5c-2,0-3.6,1.6-3.6,3.6l0,0
		c0,1.9,1.6,4.2,3.6,4.2v0.1h0.8C14.9,30.7,14.9,32.1,14.9,32.1z"/>
	<path class="st0" d="M45.8,32.1H45v-1.4h0.8v-0.1c2,0,3.6-2.3,3.6-4.2c0-2-1.6-3.6-3.6-3.6l0,0v-1.5c2.8,0,5.1,2.3,5.1,5.1
		C51,29.1,48.8,32.1,45.8,32.1z"/>
	<path class="st0" d="M31.7,37h-1.6c-1.3,0.1-2.4-0.9-2.5-2.2s0.9-2.4,2.2-2.5c0.1,0,0.2,0,0.3,0h1.6c1.3-0.1,2.4,0.9,2.5,2.2
		S33.3,36.9,32,37C31.9,37,31.8,37,31.7,37z M30.1,33.8c-0.5-0.1-0.9,0.3-0.9,0.8c-0.1,0.5,0.3,0.9,0.8,0.9c0.1,0,0.1,0,0.2,0h1.6
		c0.5,0.1,0.9-0.3,0.9-0.8c0.1-0.5-0.3-0.9-0.8-0.9c-0.1,0-0.1,0-0.2,0H30.1z"/>
	<path class="st0" d="M53.2,56H6.7C6.3,56,6,55.6,6,55.2v-0.1C6,45,12.2,39.5,23.8,39.3v-4.4c-4.6-1.3-5.5-7-5.3-10v-4.8
		C18.5,14,23.3,9.6,30,9.6S41.5,14,41.5,20.1v4.8c0,0.8,0.1,5.2-1.4,6.5c-0.3,0.3-0.8,0.2-1.1-0.1c-0.3-0.3-0.2-0.8,0.1-1.1
		c0.7-0.6,1-3.5,0.9-5.3v-4.8c0-5.2-4.2-9-10-9s-10,3.8-10,9v4.8c0,0.1-0.4,7.7,4.7,8.7c0.4,0.1,0.6,0.4,0.6,0.7V40
		c0,0.4-0.3,0.8-0.8,0.8c-11,0-16.7,4.6-17,13.7h45c-0.3-9.1-6-13.7-17-13.7c-0.4,0-0.8-0.3-0.8-0.8s0.3-0.8,0.8-0.8
		c12.1,0,18.5,5.5,18.5,15.9C54,55.6,53.7,56,53.2,56C53.3,56,53.3,56,53.2,56L53.2,56z"/>
</g>
</svg>
