<?xml version="1.0" encoding="utf-8"?>
<!-- Generator: Adobe Illustrator 20.1.0, SVG Export Plug-In . SVG Version: 6.00 Build 0)  -->
<svg version="1.1" id="Layer_1" xmlns="http://www.w3.org/2000/svg" xmlns:xlink="http://www.w3.org/1999/xlink" x="0px" y="0px"
	 width="60px" height="60px" viewBox="0 0 60 60" style="enable-background:new 0 0 60 60;" xml:space="preserve">
<style type="text/css">
	.st0{fill:#484848;}
</style>
<title>ico_retirement</title>
<g>
	<path class="st0" d="M26.9,45.3c-0.3,0-0.5-0.2-0.6-0.4l-3.2-12.7c-0.1-0.3,0.1-0.6,0.4-0.7l0,0c0.3-0.1,0.6,0.1,0.7,0.4l0,0
		l3.2,12.7c0.1,0.3-0.1,0.6-0.4,0.7l0,0L26.9,45.3z"/>
	<path class="st0" d="M26.9,45.3h-0.1c-0.3-0.1-0.5-0.4-0.4-0.7l0,0l3.2-12.7c0.1-0.3,0.4-0.5,0.7-0.4c0.3,0.1,0.5,0.4,0.4,0.7l0,0
		l-3.2,12.7C27.4,45.1,27.2,45.3,26.9,45.3z"/>
	<path class="st0" d="M33.2,45.3c-0.3,0-0.5-0.2-0.6-0.4l-3.2-12.7c-0.1-0.3,0.1-0.6,0.4-0.7l0,0c0.3-0.1,0.6,0.1,0.7,0.4l0,0
		l3.2,12.7C33.8,44.9,33.6,45.2,33.2,45.3L33.2,45.3L33.2,45.3z"/>
	<path class="st0" d="M33.2,45.3L33.2,45.3c-0.4-0.1-0.6-0.4-0.5-0.7l0,0l3.2-12.7c0.1-0.3,0.4-0.5,0.7-0.4s0.5,0.4,0.4,0.7l0,0
		l-3.2,12.7C33.7,45.1,33.5,45.3,33.2,45.3z"/>
	<path class="st0" d="M39.4,36.4H20.5c-0.3,0-0.6-0.3-0.6-0.6s0.3-0.6,0.6-0.6h18.9c0.3,0,0.6,0.3,0.6,0.6
		C40,36.2,39.8,36.4,39.4,36.4z"/>
	<path class="st0" d="M38.1,40.4H21.9c-0.3,0-0.6-0.3-0.6-0.6s0.3-0.6,0.6-0.6l0,0h16.2c0.3,0,0.6,0.3,0.6,0.6
		C38.7,40.1,38.4,40.4,38.1,40.4L38.1,40.4z"/>
	<path class="st0" d="M30,58c-7.7,0-13.9-2.8-17.3-7.8C9.5,45.4,9.1,39.3,11.6,33c3.7-9.5,9.7-14.1,18.4-14.1S44.8,23.5,48.4,33l0,0
		c2.5,6.4,2.1,12.5-1.1,17.2C43.9,55.2,37.7,58,30,58z M30,20.3c-5.2,0-12.5,1.4-17.1,13.2c-2.3,5.9-1.9,11.5,1,15.8
		c3.1,4.6,8.9,7.2,16.1,7.2s13-2.6,16.1-7.2c2.9-4.3,3.3-9.9,1-15.8l0,0C42.5,21.6,35.1,20.3,30,20.3z"/>
	<path class="st0" d="M31.8,15.2c-0.2,0-0.5-0.1-0.6-0.3s-0.1-0.5,0-0.7C31.4,13.7,36.8,3.7,42,3c1.5-0.2,2.9,0.4,3.9,1.5
		C46,4.7,48.1,7,47,9.6C45.8,12.7,40.7,14.6,31.8,15.2L31.8,15.2z M42.6,4.4h-0.4c-3.3,0.4-7.2,6-9.1,9.2c9.6-0.9,12-3.2,12.5-4.6
		c0.7-1.8-0.8-3.5-0.8-3.5C44.3,4.8,43.5,4.5,42.6,4.4z"/>
	<path class="st0" d="M28.2,15.2L28.2,15.2c-8.9-0.6-14-2.5-15.2-5.6c-1-2.6,1-4.9,1.1-5C15,3.4,16.5,2.9,18,3
		c5.2,0.7,10.6,10.7,10.8,11.1c0.1,0.2,0.1,0.5,0,0.7C28.7,15.1,28.5,15.2,28.2,15.2z M17.4,4.4c-0.9,0-1.7,0.4-2.3,1.1
		c0,0-1.5,1.7-0.8,3.5c0.5,1.4,2.9,3.7,12.5,4.6c-1.9-3.2-5.8-8.7-9.1-9.2L17.4,4.4z"/>
</g>
</svg>
