<svg xmlns="http://www.w3.org/2000/svg" xmlns:xlink="http://www.w3.org/1999/xlink" width="31" height="42" viewBox="0 0 31 42"><path fill="#4C4A4C" d="M24.654 27.547v-.63H6.982v-1.445h17.036v2.075h.636v-.63.63h.636v-3.335H5.71v3.966h19.58v-.631z"/><path fill="#4C4A4C" d="M1.271 1.26h28.457v33.786H1.271V1.26zM0 0v36.306h31V0H0z"/><path fill="#4C4A4C" d="M30.364 41.37v-.63.63H31h-.636zM1.271 36.306h28.457v4.435H1.271v-4.435zM0 35.046V42h31v-6.954H0z"/><path fill="#4C4A4C" d="M.636 39.153h29.728v-1.259H.636m5.275-24.598h19.178v-1.26H5.911m0-5.065h15.658V5.71H5.911m0 11.614h19.178v-1.26H5.911m0 5.289h19.178v-1.261H5.911"/><defs><path id="a" d="M0 0h31v42H0z"/></defs><clipPath id="b"><use xlink:href="#a" overflow="visible"/></clipPath><path clip-path="url(#b)" fill="#4C4A4C" d="M22.109.63l-.494.396.002.003c.034.042.437.547.837 1.258.403.709.796 1.629.856 2.449a11.53 11.53 0 0 1-.13 2.827 8.965 8.965 0 0 1-.146.672l-.009.031-.002.006.086.025-.086-.025.086.025-.086-.025a.63.63 0 0 0 .726.802L30.48 7.83a.635.635 0 0 0 .501-.466.625.625 0 0 0-.219-.645L22.507.138a.641.641 0 0 0-.849.046.627.627 0 0 0-.044.841l.495-.395-.399.491 7.177 5.721-5.371.992.116.62.608.182c.012-.042.375-1.242.376-3.01a12.6 12.6 0 0 0-.039-.986c-.095-1.157-.596-2.233-1.058-3.043a10.979 10.979 0 0 0-.917-1.362l-.493.395-.399.491.399-.491z"/></svg>