<svg xmlns="http://www.w3.org/2000/svg" xmlns:xlink="http://www.w3.org/1999/xlink" width="37" height="40" viewBox="0 0 37 40"><defs><path id="a" d="M0 0h37v40H0z"/></defs><clipPath id="b"><use xlink:href="#a" overflow="visible"/></clipPath><path clip-path="url(#b)" fill="#4B4A4B" d="M24.046 25.342h.699v-4.009h-.699l.597.371c.395-.656.748-1.363 1.026-1.894.139-.264.26-.486.341-.614l.049-.074.017-.021-.234-.205.182.252c.047-.036.053-.048.053-.048l-.234-.205.182.252-.334-.462.218.528a.543.543 0 0 0 .116-.065l-.334-.462.218.528-.246-.596v.646a.627.627 0 0 0 .246-.05l-.246-.596v.646-.667l-.244.62a.674.674 0 0 0 .244.048v-.667l-.244.62.243-.616-.442.488a.683.683 0 0 0 .199.128l.243-.616-.442.488-.002-.002c.138.13.296.239.47.313s.361.111.542.111c.303-.001.57-.097.796-.222.339-.192.609-.454.862-.736.249-.283.476-.592.68-.889l-.002.003c.488-.709.863-1.627.869-2.597.003-.602-.163-1.245-.593-1.77l.002.003a1.91 1.91 0 0 0-.619-.514 1.549 1.549 0 0 0-.697-.167c-.475.004-.828.196-1.071.355a2.389 2.389 0 0 0-.409.342l.507.489.679.172c.283-1.151.481-2.436.51-3.77v.005c.005-.142.006-.283.006-.424 0-.832-.071-1.671-.236-2.502l.001.004c-.242-1.256-.689-2.483-1.421-3.587l-.002-.002A7.945 7.945 0 0 0 22.288.667C20.912.138 19.557 0 18.503 0c-1.054 0-2.411.138-3.785.669a7.95 7.95 0 0 0-3.809 3.038l-.001.002c-.731 1.104-1.179 2.332-1.42 3.587l.001-.004a12.78 12.78 0 0 0-.233 2.926v-.005c.028 1.333.227 2.619.51 3.77l.678-.172.508-.489c-.025-.026-.167-.178-.41-.342-.243-.16-.596-.351-1.072-.355-.222 0-.467.05-.697.167-.23.115-.439.292-.619.514l.003-.003c-.428.522-.593 1.162-.59 1.761.006.975.386 1.896.875 2.606l-.002-.005c.273.396.579.812.936 1.162.18.175.374.335.6.463.225.125.492.222.795.223.18 0 .369-.037.542-.112.174-.074.332-.183.469-.313l-.001.001-.443-.488.244.616a.702.702 0 0 0 .2-.128l-.443-.488.244.616-.245-.62v.667a.68.68 0 0 0 .245-.048l-.245-.62v.667-.624l-.343.521c.05.032.15.099.343.103v-.624l-.343.521.219-.332-.288.274a.358.358 0 0 0 .069.058l.219-.332-.288.274.065-.063-.067.06.002.002.065-.063-.067.06c.005.002.091.127.183.293.144.254.333.625.545 1.029.213.407.452.853.707 1.278l.597-.37h-.699v4.01h.699l-.098-.704c-.045.009-3.17.451-6.359 2.187-1.593.869-3.209 2.067-4.44 3.726C.825 32.206-.003 34.333 0 36.947v2.342c0 .188.074.37.205.503.13.133.311.208.494.208h35.602a.696.696 0 0 0 .494-.208.723.723 0 0 0 .205-.503v-2.342c.004-2.613-.824-4.741-2.055-6.397-1.85-2.487-4.551-3.941-6.773-4.798-2.227-.855-3.993-1.109-4.027-1.114l-.099.704h.699-.699l-.097.704h.004c.14.019 3.139.491 6.027 2.106 1.445.807 2.858 1.893 3.896 3.321 1.038 1.433 1.721 3.198 1.725 5.474v1.631H1.398v-1.631c.002-2.312.707-4.097 1.774-5.541 1.597-2.162 4.065-3.527 6.151-4.325a20.96 20.96 0 0 1 2.657-.821c.338-.079.61-.134.794-.168l.211-.036.052-.008.014-.002a.709.709 0 0 0 .601-.704v-4.01a.71.71 0 0 0-.103-.371c-.355-.592-.7-1.275-.988-1.822a10.944 10.944 0 0 0-.399-.712 2.108 2.108 0 0 0-.211-.287.977.977 0 0 0-.181-.16.764.764 0 0 0-.435-.138.75.75 0 0 0-.505.201l-.001.001-.06.044v.003-.001s-.039-.001-.119-.046c-.119-.064-.304-.223-.492-.439a8.307 8.307 0 0 1-.575-.755l-.001-.002c-.352-.497-.625-1.22-.618-1.785.001-.354.086-.628.269-.852l.002-.003a.519.519 0 0 1 .158-.142l.077-.019c.057-.005.19.042.301.12.056.037.104.077.134.104l.032.03.006-.006-.006.006.006-.006-.006.006c.219.235.564.29.844.134s.419-.481.341-.795a16.07 16.07 0 0 1-.469-3.456v-.006a11.438 11.438 0 0 1 .203-2.602l.001-.005c.212-1.104.598-2.144 1.209-3.066l-.002.002c.868-1.298 1.989-2.056 3.15-2.507 1.159-.45 2.354-.577 3.287-.577.933 0 2.125.127 3.282.577 1.158.452 2.277 1.208 3.146 2.507l-.001-.002c.61.922.996 1.963 1.209 3.066l.001.005a11.446 11.446 0 0 1 .203 2.602v.006a16.07 16.07 0 0 1-.469 3.456c-.077.314.063.64.342.795s.625.101.844-.134l-.006-.006.006.006-.006-.006.006.006c.02-.02.106-.101.208-.161a.563.563 0 0 1 .258-.093l.077.019c.031.016.084.05.158.142l.003.003c.184.227.27.504.271.861.007.565-.263 1.283-.611 1.776l-.002.002c-.249.362-.521.717-.762.95a1.448 1.448 0 0 1-.31.244.306.306 0 0 1-.122.047v.004l.001-.004h-.001v.004l.001-.004-.008-.004-.054-.041-.002-.002a.72.72 0 0 0-.504-.2.76.76 0 0 0-.436.139c-.154.111-.213.197-.281.285a4.534 4.534 0 0 0-.316.518c-.322.588-.738 1.448-1.177 2.177a.718.718 0 0 0-.104.372v4.009c0 .354.257.654.603.704l.098-.706z"/></svg>