<svg xmlns="http://www.w3.org/2000/svg" xmlns:xlink="http://www.w3.org/1999/xlink" width="42" height="35" viewBox="0 0 42 35"><defs><path id="a" d="M0 0h42v34.82H0z"/></defs><clipPath id="b"><use xlink:href="#a" overflow="visible"/></clipPath><path clip-path="url(#b)" fill="#4C4A4C" d="M39.982 27.852H2.018V1.972h37.964v25.88zM40.349.538H1.651C1.046.538.55 1.022.55 1.613V28.21c0 .592.496 1.075 1.101 1.075h38.698c.604 0 1.101-.483 1.101-1.075V1.613c0-.591-.496-1.075-1.101-1.075"/><path clip-path="url(#b)" fill="none" stroke="#4C4A4C" stroke-width="2" stroke-linecap="round" stroke-linejoin="round" stroke-miterlimit="10" d="M16.6 34.283l2.2-4.998h4.4l2.199 4.998m-12.013 0h15.229M1.284 24.596h39.432"/><defs><path id="c" d="M0 0h42v35H0z"/></defs><clipPath id="d"><use xlink:href="#c" overflow="visible"/></clipPath><path clip-path="url(#d)" fill-rule="evenodd" clip-rule="evenodd" fill="#4D4B4C" d="M28.5 18.879l-3.581-3.499a5.248 5.248 0 0 0 1.085-3.192c0-2.96-2.456-5.359-5.485-5.359-3.03 0-5.486 2.399-5.486 5.359s2.457 5.359 5.486 5.359a5.542 5.542 0 0 0 3.266-1.059l3.582 3.499 1.133-1.108zm-7.982-2.897c-2.141 0-3.883-1.702-3.883-3.793s1.742-3.792 3.883-3.792 3.883 1.701 3.883 3.792c0 2.091-1.742 3.793-3.883 3.793"/></svg>