<svg xmlns="http://www.w3.org/2000/svg" xmlns:xlink="http://www.w3.org/1999/xlink" width="35" height="42" viewBox="0 0 35 42"><defs><path id="a" d="M0 0h35v42H0z"/></defs><clipPath id="b"><use xlink:href="#a" overflow="visible"/></clipPath><path clip-path="url(#b)" fill="#4B4A4B" d="M34.414 34.078h-.586a6.728 6.728 0 0 1-1.981 4.774 6.742 6.742 0 0 1-4.782 1.978 6.744 6.744 0 0 1-4.782-1.978c-1.225-1.224-1.98-2.908-1.98-4.774s.756-3.551 1.98-4.773a6.75 6.75 0 0 1 4.782-1.978 6.744 6.744 0 0 1 4.782 1.978 6.721 6.721 0 0 1 1.981 4.773H35c-.001-4.375-3.552-7.921-7.936-7.921-4.382 0-7.935 3.546-7.936 7.921C19.13 38.454 22.683 42 27.064 42c4.384 0 7.935-3.546 7.936-7.922h-.586z"/><path clip-path="url(#b)" fill="#4B4A4B" d="M27.405 29.27a.34.34 0 0 1-.681 0c0-.188.152-.339.34-.339s.341.151.341.339"/><path clip-path="url(#b)" fill="#4B4A4B" d="M27.405 29.27h-.391.05v-.051l-.05.051h.05v-.051.051h.052l-.052-.051v.051h.052-.052v.051l.052-.051h-.052v.051-.051h-.05l.05.051v-.051h-.05.782a.73.73 0 0 0-1.461 0 .73.73 0 1 0 1.461 0h-.391zm-5.391 4.703a.34.34 0 1 1-.34.339c0-.188.152-.339.34-.339"/><path clip-path="url(#b)" fill="#4B4A4B" d="M22.014 33.973v.39-.051h-.051l.051.051v-.051h-.051.051v-.051l-.051.051h.051v-.051.051h.051l-.051-.051v.051h.051-.051v.051l.051-.051h-.051v.051-.781a.73.73 0 1 0-.001 1.459.73.73 0 0 0 .001-1.459v.391zm4.711 5.381c0-.188.152-.339.34-.339a.34.34 0 1 1-.34.339"/><path clip-path="url(#b)" fill="#4B4A4B" d="M26.725 39.354h.392-.052v.051l.052-.051h-.052v.051-.051h-.05l.05.051v-.051h-.05.05v-.051l-.05.051h.05v-.051.051h.052l-.052-.051v.051h.052-.783a.73.73 0 1 0 .73-.729.73.73 0 0 0-.73.729h.391zm5.39-4.703a.339.339 0 1 1 0-.679.34.34 0 1 1 0 .679"/><path clip-path="url(#b)" fill="#4B4A4B" d="M32.115 34.651v-.391.051h.052l-.052-.051v.051h.052-.052v.051l.052-.051h-.052v.051-.051h-.05l.05.051v-.051h-.05.05v-.051l-.05.051h.05v-.051.781a.73.73 0 1 0 .002-1.46.73.73 0 0 0-.002 1.46v-.39zm-2.063-4.078l-3.086 2.805-2.939-1.442a.585.585 0 1 0-.516 1.05l3.655 1.794 3.677-3.341a.585.585 0 0 0 .038-.826.589.589 0 0 0-.829-.04M6.129 1.17c.175 0 .354.016.529.047.76.163 2.882 2.771 5.286 6.946L5.605 7.016a2.947 2.947 0 1 1 .524-5.846m0-1.17a4.117 4.117 0 0 0-4.054 3.382 4.123 4.123 0 0 0 3.322 4.785l8.772 1.588-.535-.974C12.872 7.392 8.963.446 6.868.067A4.087 4.087 0 0 0 6.129 0m17.483 1.246a2.965 2.965 0 0 1 2.918 2.527 2.952 2.952 0 0 1-2.502 3.336l-6.375.916c2.552-4.086 4.77-6.614 5.536-6.749.137-.021.281-.03.423-.03m0-1.171c-.196 0-.396.014-.592.042-2.108.303-6.268 7.103-7.08 8.463l-.57.955 8.824-1.267a4.124 4.124 0 0 0 3.496-4.661A4.143 4.143 0 0 0 23.612.075"/><path clip-path="url(#b)" fill="#4B4A4B" d="M29.758 27c-.094-1.045-.478-2.231-1.058-3.526-1.745-3.872-5.31-8.709-8.809-12.347l-.154-.162-.173-.182h-9.34l-.334.342.005-.005a54.268 54.268 0 0 0-6.696 8.487c-.936 1.481-1.727 2.93-2.291 4.26C.347 25.199.004 26.404 0 27.452c0 3.362 1.711 6.393 4.413 8.553 2.704 2.164 6.405 3.487 10.477 3.488 2.167 0 4.231-.379 6.092-1.058l-.401-1.1a16.621 16.621 0 0 1-5.691.987c-3.817 0-7.267-1.247-9.743-3.231-2.479-1.988-3.975-4.686-3.976-7.64-.003-.782.285-1.882.816-3.129.793-1.874 2.114-4.089 3.669-6.271 1.556-2.184 3.347-4.338 5.078-6.116l.156-.159-.419-.409v.585h8.842v-.585l-.426.404.157.164.002.002c2.276 2.363 4.602 5.28 6.386 8.055.893 1.387 1.649 2.739 2.198 3.96.55 1.22.888 2.314.959 3.149L29.758 27z"/><path clip-path="url(#b)" fill="#4B4A4B" d="M21.74 21.937h-1.211l.414-1.627a.586.586 0 0 0-1.137-.288l-.487 1.915h-2.783l-.542-1.929a.588.588 0 0 0-.562-.427h-.002c-.26 0-.49.172-.563.422l-.563 1.934h-2.877l-.493-1.917a.587.587 0 0 0-1.136.291l.419 1.625H9a.586.586 0 1 0 0 1.171h1.518l.385 1.491h-.912a.586.586 0 1 0 0 1.17h1.212l.972 3.773a.586.586 0 0 0 .559.439h.009c.26 0 .49-.172.563-.422l1.104-3.791h1.988l1.064 3.786a.587.587 0 0 0 .565.427h.007a.587.587 0 0 0 .561-.441l.96-3.771h1.298a.586.586 0 1 0 0-1.17h-1l.379-1.491h1.509c.323 0 .586-.263.586-.585s-.264-.585-.587-.585m-10.011 1.17h2.235l-.434 1.491h-1.417l-.384-1.491zm1.048 4.074l-.364-1.412h.775l-.411 1.412zm1.973-2.582l.434-1.491h.465l.419 1.491H14.75zm3.248 2.532l-.383-1.362h.73l-.347 1.362zm.645-2.532h-1.357l-.419-1.491h2.156l-.38 1.491z"/></svg>