<svg xmlns="http://www.w3.org/2000/svg" xmlns:xlink="http://www.w3.org/1999/xlink" width="38" height="42" viewBox="0 0 38 42"><defs><path id="a" d="M0 0h38v42H0z"/></defs><clipPath id="b"><use xlink:href="#a" overflow="visible"/></clipPath><path clip-path="url(#b)" fill="#4B4A4B" d="M37.368 33.613h-.632c0 1.976-.815 3.76-2.135 5.055a7.343 7.343 0 0 1-5.154 2.094 7.34 7.34 0 0 1-5.154-2.094 7.051 7.051 0 0 1 0-10.11c1.321-1.294 3.14-2.093 5.154-2.093s3.833.799 5.154 2.093a7.06 7.06 0 0 1 2.135 5.055H38c0-4.632-3.829-8.387-8.553-8.387s-8.552 3.755-8.553 8.387c.002 4.632 3.83 8.387 8.553 8.387S38 38.245 38 33.613h-.632z"/><path clip-path="url(#b)" fill="#4B4A4B" d="M25.593 33.091l3.185 4.195 5.728-5.807-.908-.862-4.695 4.76-2.297-3.026zM15.463 9.839v7.002H7.379V9.839h8.084m-3.031-5.645h-2.021c-1.48 0-2.686 1.181-2.686 2.634v1.773H6.116v9.48h10.611v-9.48h-1.609V6.828c-.001-1.453-1.205-2.634-2.686-2.634M8.904 8.601V6.828c0-.815.676-1.478 1.507-1.478h2.021c.831 0 1.506.663 1.506 1.478v1.773H8.904z"/><path clip-path="url(#b)" fill="#4B4A4B" d="M11.421 10.935c-.674 0-1.225.541-1.225 1.201 0 .396.201.746.505.965l-.453 2.59h2.346l-.452-2.59a1.19 1.19 0 0 0 .504-.965c0-.661-.551-1.201-1.225-1.201m17.685-1.06h-.89l.304-1.308c.059-.251-.081-.508-.312-.572-.231-.063-.465.088-.523.34l-.357 1.54h-2.046l-.398-1.551a.439.439 0 0 0-.412-.343h-.002a.438.438 0 0 0-.414.339l-.414 1.555h-2.114l-.363-1.542c-.059-.251-.294-.403-.523-.338-.23.065-.369.321-.31.573l.307 1.307h-.894c-.237 0-.431.21-.431.47 0 .259.193.47.431.47h1.115l.282 1.199h-.669c-.237 0-.431.211-.431.471s.193.47.431.47h.891l.714 3.034a.44.44 0 0 0 .411.353h.007a.438.438 0 0 0 .413-.339l.812-3.048h1.461l.781 3.043a.44.44 0 0 0 .416.343h.005a.44.44 0 0 0 .412-.354l.706-3.032h.953c.238 0 .431-.21.431-.47s-.192-.471-.431-.471h-.735l.278-1.199h1.109c.237 0 .431-.211.431-.47-.001-.259-.194-.47-.432-.47m-7.357.941h1.643l-.318 1.199h-1.042l-.283-1.199zm.772 3.275l-.268-1.135h.569l-.301 1.135zm1.449-2.076l.319-1.199h.341l.309 1.199h-.969zm2.386 2.036l-.282-1.096h.537l-.255 1.096zm.474-2.036h-.997l-.308-1.199h1.583l-.278 1.199z"/><path clip-path="url(#b)" fill="#4B4A4B" d="M22.036 35.739H1.263v-34.5h31.911v25.887h1.264V0H0v36.979h22.036z"/><path clip-path="url(#b)" fill="#4B4A4B" d="M6.116 23.539h14.392V22.3H6.116m0 5.404h10.26v-1.238H6.116"/></svg>