<svg xmlns="http://www.w3.org/2000/svg" xmlns:xlink="http://www.w3.org/1999/xlink" width="33" height="42" viewBox="0 0 33 42"><path fill="#4C4A4C" d="M0 0v42h18.914v-1.26H1.26V1.26h30.479v8.863H33V0z"/><path fill="#4C4A4C" d="M31.739 10.123V40.74H17.914V42H33V10.123zM6.512 13.231h19.953v-1.259H6.512m0 6.71h19.953v-1.26H6.512"/><path fill="#4C4A4C" d="M27.709 35.146v-.63H16.938v-1.668h10.14v2.298h.631v-.63.63h.63v-3.558H15.677v4.187h12.662v-.629zm-.828-9.4v-.63H7.142V8.528h19.109v17.218h.63v-.63.63h.63V7.268H5.882v19.108h21.629v-.63z"/><path fill="#4C4A4C" d="M19.014 8.012v18.187h1.26V8.012"/><defs><path id="a" d="M0 0h33v42H0z"/></defs><clipPath id="b"><use xlink:href="#a" overflow="visible"/></clipPath><path clip-path="url(#b)" fill="#4B4A4B" d="M13.932 32.157h-.827l.283-1.113a.4.4 0 1 0-.775-.196l-.333 1.31h-1.901l-.371-1.319a.4.4 0 0 0-.384-.292h-.002a.399.399 0 0 0-.384.288l-.385 1.323H6.888l-.337-1.311a.4.4 0 1 0-.776.199l.286 1.111H5.23a.4.4 0 1 0 0 .799h1.037l.262 1.02h-.621c-.221 0-.401.18-.401.4s.18.4.401.4h.828l.664 2.58a.402.402 0 0 0 .382.301h.006a.4.4 0 0 0 .384-.288l.754-2.593h1.358l.728 2.589a.398.398 0 0 0 .385.292h.003a.4.4 0 0 0 .383-.302l.656-2.579h.886c.221 0 .401-.18.401-.4s-.18-.4-.401-.4h-.683l.259-1.02h1.03a.4.4 0 0 0 .001-.799m-6.838.8h1.527l-.297 1.02h-.968l-.262-1.02zm.717 2.786l-.249-.966h.53l-.281.966zm1.347-1.766l.296-1.02h.317l.286 1.02h-.899zm2.218 1.732l-.262-.932h.498l-.236.932zm.44-1.732h-.926l-.287-1.02h1.473l-.26 1.02z"/></svg>