<svg xmlns="http://www.w3.org/2000/svg" xmlns:xlink="http://www.w3.org/1999/xlink" width="36" height="39" viewBox="0 0 36 39"><defs><path id="a" d="M0 0h36v39H0z"/></defs><clipPath id="b"><use xlink:href="#a" overflow="visible"/></clipPath><path clip-path="url(#b)" fill="#4B4A4B" d="M35.402 31.016h-.598a6.735 6.735 0 0 1-2.02 4.812 6.928 6.928 0 0 1-4.878 1.994 6.925 6.925 0 0 1-4.876-1.995 6.738 6.738 0 0 1 0-9.624 6.92 6.92 0 0 1 4.877-1.992 6.92 6.92 0 0 1 4.878 1.993 6.732 6.732 0 0 1 2.02 4.811H36c-.001-4.409-3.624-7.983-8.094-7.983s-8.092 3.574-8.093 7.983C19.815 35.426 23.437 39 27.907 39S36 35.426 36 31.016h-.598z"/><path clip-path="url(#b)" fill="#4B4A4B" d="M32.336 29.232h-.842l.287-1.245c.056-.239-.076-.483-.295-.544-.218-.061-.439.084-.494.323l-.339 1.466h-1.936l-.377-1.477a.417.417 0 0 0-.391-.326h-.002a.415.415 0 0 0-.392.322l-.392 1.48h-2l-.345-1.467c-.056-.239-.278-.384-.495-.322-.218.062-.35.306-.293.546l.29 1.243h-.846c-.224 0-.407.201-.407.448s.184.447.407.447h1.056l.27 1.144h-.633c-.226 0-.408.2-.408.447s.183.448.408.448h.842l.676 2.888a.418.418 0 0 0 .389.336h.007c.181 0 .34-.131.392-.322l.767-2.901h1.383l.74 2.897c.05.193.21.326.393.326h.005c.186-.002.345-.141.391-.337l.667-2.887h.902c.226 0 .407-.201.407-.448s-.182-.447-.407-.447h-.696l.265-1.142h1.049c.225 0 .407-.2.407-.447s-.185-.449-.41-.449m-6.961.896h1.554l-.301 1.142h-.985l-.268-1.142zm.729 3.118l-.253-1.081h.539l-.286 1.081zm1.372-1.976l.302-1.142h.323l.291 1.142h-.916zm2.258 1.938l-.267-1.043h.508l-.241 1.043zm.448-1.938h-.943l-.291-1.142h1.498l-.264 1.142z"/><path clip-path="url(#b)" fill="#4B4A4B" d="M22.446 36.382H1.195V1.179h30.196v23.465h1.195V0H0v37.561h23.641z"/><path clip-path="url(#b)" fill="#4C4A4C" d="M6.813 8.006h19.025V6.827H6.813m0 5.287h19.025v-1.179H6.813m0 5.288h19.025v-1.18H6.813m0 5.504h11.056v-1.179H6.813"/></svg>