<svg xmlns="http://www.w3.org/2000/svg" xmlns:xlink="http://www.w3.org/1999/xlink" width="42" height="42" viewBox="0 0 42 42"><defs><path id="a" d="M0 0h42v42H0z"/></defs><clipPath id="b"><use xlink:href="#a" overflow="visible"/></clipPath><path clip-path="url(#b)" fill="#4B4A4B" d="M23.974.63h-.63v18.025H42v-.63C42 8.07 33.93 0 23.974 0h-.63v.63h.63v.63c4.632 0 8.82 1.875 11.856 4.911a16.716 16.716 0 0 1 4.91 11.855h.63v-.63H24.604V.63h-.63v.63-.63zm-3.265 3.266v-.63h-1.342C8.687 3.267.001 11.952 0 22.633c0 1.755.242 3.491.711 5.178l.607-.169-.208-.595-.048.017-.598.209.663 1.862.661 1.853.642-.224-.208-.595-.577.254a19.581 19.581 0 0 0 8.07 8.996l.315-.546-.565-.278-.024.05-.279.568 1.793.869.005.002 1.754.85.299-.613-.567-.276-.233.585A19.2 19.2 0 0 0 19.367 42c10.682-.001 19.367-8.687 19.368-19.367V20.66H21.34V3.266h-.63v.63h-.63V21.92h17.396v.712a18.05 18.05 0 0 1-5.31 12.797 18.054 18.054 0 0 1-12.799 5.311 17.954 17.954 0 0 1-6.687-1.281l-.543-.217-.004.01-.655-.317-.005-.002-1.191-.577-.274.566.565.278.024-.049.26-.529-.51-.295a18.308 18.308 0 0 1-7.548-8.413l-.235-.532-.01.004-.24-.674-.451-1.265-.593.211.208.595.048-.017.556-.195-.158-.568A18.04 18.04 0 0 1 6.569 9.836c3.282-3.28 7.805-5.31 12.798-5.31h1.342v-.63h-.63.63z"/><path clip-path="url(#b)" fill="#4B4A4B" d="M20.208 21.672l11.445 15.02 1.002-.763-11.445-15.02"/><path clip-path="url(#b)" fill="#4B4A4B" d="M20.514 20.691L1.122 27.042l.392 1.198 19.392-6.351"/></svg>