<?xml version="1.0" encoding="utf-8"?>
<!-- Generator: Adobe Illustrator 15.0.0, SVG Export Plug-In . SVG Version: 6.00 Build 0)  -->
<!DOCTYPE svg PUBLIC "-//W3C//DTD SVG 1.1//EN" "http://www.w3.org/Graphics/SVG/1.1/DTD/svg11.dtd">
<svg version="1.1" id="Layer_1" xmlns="http://www.w3.org/2000/svg" xmlns:xlink="http://www.w3.org/1999/xlink" x="0px" y="0px"
	 width="42px" height="42px" viewBox="0 0 42 42" enable-background="new 0 0 42 42" xml:space="preserve">
<g>
	<defs>
		<rect id="SVGID_1_" width="42" height="42"/>
	</defs>
	<clipPath id="SVGID_2_">
		<use xlink:href="#SVGID_1_"  overflow="visible"/>
	</clipPath>
	<path clip-path="url(#SVGID_2_)" fill="#4B4A4B" d="M23.974,0.63h-0.63v18.025H42v-0.63C42,8.07,33.93,0,23.974,0h-0.63v0.63
		H23.974v0.63c4.632,0,8.82,1.875,11.856,4.911c3.034,3.036,4.909,7.223,4.91,11.855h0.63v-0.63H24.604V0.63H23.974v0.63V0.63z
		 M20.709,3.896v-0.63h-1.342C8.687,3.267,0.001,11.952,0,22.633c0,1.755,0.242,3.491,0.711,5.178l0.607-0.169l-0.208-0.595
		l-0.048,0.017l-0.598,0.209l0.663,1.862l0.661,1.853l0.642-0.224l-0.208-0.595l-0.577,0.254c1.662,3.761,4.513,6.939,8.07,8.996
		l0.315-0.546l-0.565-0.278l-0.024,0.05l-0.279,0.568l1.793,0.869l0.005,0.002l1.754,0.85l0.299-0.613l-0.567-0.276l-0.233,0.585
		C14.483,41.536,16.886,42,19.367,42c10.682-0.001,19.367-8.687,19.368-19.367V20.66H21.34V3.266h-0.63V3.896h-0.63V21.92h17.396
		v0.712c-0.001,4.993-2.03,9.517-5.31,12.797c-3.282,3.281-7.806,5.31-12.799,5.311c-2.324-0.001-4.563-0.434-6.687-1.281
		l-0.543-0.217l-0.004,0.01l-0.655-0.317l-0.005-0.002l-1.191-0.577l-0.274,0.566l0.565,0.278l0.024-0.049l0.26-0.529l-0.51-0.295
		c-3.323-1.919-5.997-4.899-7.548-8.413l-0.235-0.532l-0.01,0.004l-0.24-0.674l-0.451-1.265L1.27,27.658l0.208,0.595l0.048-0.017
		l0.556-0.195l-0.158-0.568c-0.439-1.579-0.665-3.2-0.665-4.84c0-4.994,2.029-9.517,5.31-12.797c3.282-3.28,7.805-5.31,12.798-5.31
		h1.342V3.896h-0.63H20.709z"/>
	<polyline clip-path="url(#SVGID_2_)" fill="#4B4A4B" points="20.208,21.672 31.653,36.692 32.655,35.929 21.21,20.909 	"/>
	<polyline clip-path="url(#SVGID_2_)" fill="#4B4A4B" points="20.514,20.691 1.122,27.042 1.514,28.24 20.906,21.889 	"/>
</g>
</svg>
