<?xml version="1.0" encoding="utf-8"?>
<!-- Generator: Adobe Illustrator 15.0.0, SVG Export Plug-In . SVG Version: 6.00 Build 0)  -->
<!DOCTYPE svg PUBLIC "-//W3C//DTD SVG 1.1//EN" "http://www.w3.org/Graphics/SVG/1.1/DTD/svg11.dtd">
<svg version="1.1" id="Layer_1" xmlns="http://www.w3.org/2000/svg" xmlns:xlink="http://www.w3.org/1999/xlink" x="0px" y="0px"
	 width="37px" height="40px" viewBox="0 0 37 40" enable-background="new 0 0 37 40" xml:space="preserve">
<g>
	<defs>
		<rect id="SVGID_1_" width="37" height="40"/>
	</defs>
	<clipPath id="SVGID_2_">
		<use xlink:href="#SVGID_1_"  overflow="visible"/>
	</clipPath>
	<path clip-path="url(#SVGID_2_)" fill="#4B4A4B" d="M24.046,25.342h0.699v-4.009h-0.699l0.597,0.371
		c0.395-0.656,0.748-1.363,1.026-1.894c0.139-0.264,0.26-0.486,0.341-0.614l0.049-0.074l0.017-0.021l-0.234-0.205l0.182,0.252
		c0.047-0.036,0.053-0.048,0.053-0.048l-0.234-0.205l0.182,0.252l-0.334-0.462l0.218,0.528c0.058-0.024,0.092-0.048,0.116-0.065
		l-0.334-0.462l0.218,0.528l-0.246-0.596v0.646c0.106,0,0.189-0.026,0.246-0.05l-0.246-0.596v0.646v-0.667l-0.244,0.62
		c0.079,0.032,0.168,0.048,0.244,0.048v-0.667l-0.244,0.62l0.243-0.616l-0.442,0.488c0.051,0.047,0.119,0.095,0.199,0.128
		l0.243-0.616l-0.442,0.488l-0.002-0.002c0.138,0.13,0.296,0.239,0.47,0.313s0.361,0.111,0.542,0.111
		c0.303-0.001,0.57-0.097,0.796-0.222c0.339-0.192,0.609-0.454,0.862-0.736c0.249-0.283,0.476-0.592,0.68-0.889l-0.002,0.003
		c0.488-0.709,0.863-1.627,0.869-2.597c0.003-0.602-0.163-1.245-0.593-1.77l0.002,0.003c-0.179-0.222-0.389-0.398-0.619-0.514
		c-0.229-0.117-0.476-0.167-0.697-0.167c-0.475,0.004-0.828,0.196-1.071,0.355c-0.243,0.164-0.385,0.316-0.409,0.342l0.507,0.489
		l0.679,0.172c0.283-1.151,0.481-2.436,0.51-3.77v0.005c0.005-0.142,0.006-0.283,0.006-0.424c0-0.832-0.071-1.671-0.236-2.502
		l0.001,0.004c-0.242-1.256-0.689-2.483-1.421-3.587l-0.002-0.002c-1.043-1.568-2.434-2.508-3.804-3.038
		C20.912,0.138,19.557,0,18.503,0c-1.054,0-2.411,0.138-3.785,0.669c-1.372,0.529-2.764,1.47-3.809,3.038l-0.001,0.002
		c-0.731,1.104-1.179,2.332-1.42,3.587l0.001-0.004C9.323,8.124,9.25,8.963,9.25,9.794c0,0.142,0.001,0.283,0.006,0.424v-0.005
		c0.028,1.333,0.227,2.619,0.51,3.77l0.678-0.172l0.508-0.489c-0.025-0.026-0.167-0.178-0.41-0.342
		c-0.243-0.16-0.596-0.351-1.072-0.355c-0.222,0-0.467,0.05-0.697,0.167c-0.23,0.115-0.439,0.292-0.619,0.514l0.003-0.003
		c-0.428,0.522-0.593,1.162-0.59,1.761c0.006,0.975,0.386,1.896,0.875,2.606L8.44,17.665c0.273,0.396,0.579,0.812,0.936,1.162
		c0.18,0.175,0.374,0.335,0.6,0.463c0.225,0.125,0.492,0.222,0.795,0.223c0.18,0,0.369-0.037,0.542-0.112
		c0.174-0.074,0.332-0.183,0.469-0.313l-0.001,0.001l-0.443-0.488l0.244,0.616c0.08-0.033,0.148-0.081,0.2-0.128l-0.443-0.488
		l0.244,0.616l-0.245-0.62v0.667c0.077,0,0.165-0.016,0.245-0.048l-0.245-0.62v0.667v-0.624l-0.343,0.521
		c0.05,0.032,0.15,0.099,0.343,0.103v-0.624l-0.343,0.521l0.219-0.332l-0.288,0.274c0.005,0.006,0.021,0.024,0.069,0.058
		l0.219-0.332l-0.288,0.274l0.065-0.063l-0.067,0.06l0.002,0.002l0.065-0.063l-0.067,0.06c0.005,0.002,0.091,0.127,0.183,0.293
		c0.144,0.254,0.333,0.625,0.545,1.029c0.213,0.407,0.452,0.853,0.707,1.278l0.597-0.37h-0.699v4.01h0.699l-0.098-0.704
		c-0.045,0.009-3.17,0.451-6.359,2.187c-1.593,0.869-3.209,2.067-4.44,3.726C0.825,32.206-0.003,34.333,0,36.947v2.342
		c0,0.188,0.074,0.37,0.205,0.503C0.335,39.925,0.516,40,0.699,40h35.602c0.184,0,0.363-0.075,0.494-0.208
		C36.925,39.659,37,39.477,37,39.289v-2.342c0.004-2.613-0.824-4.741-2.055-6.397c-1.85-2.487-4.551-3.941-6.773-4.798
		c-2.227-0.855-3.993-1.109-4.027-1.114L24.046,25.342h0.699H24.046l-0.097,0.704h0.004c0.14,0.019,3.139,0.491,6.027,2.106
		c1.445,0.807,2.858,1.893,3.896,3.321c1.038,1.433,1.721,3.198,1.725,5.474v1.631H1.398v-1.631
		c0.002-2.312,0.707-4.097,1.774-5.541c1.597-2.162,4.065-3.527,6.151-4.325c1.041-0.4,1.981-0.661,2.657-0.821
		c0.338-0.079,0.61-0.134,0.794-0.168c0.094-0.017,0.164-0.028,0.211-0.036l0.052-0.008l0.014-0.002
		c0.344-0.05,0.601-0.351,0.601-0.704v-4.01c0-0.132-0.035-0.259-0.103-0.371c-0.355-0.592-0.7-1.275-0.988-1.822
		c-0.145-0.275-0.274-0.514-0.399-0.712c-0.064-0.101-0.125-0.19-0.211-0.287c-0.045-0.049-0.096-0.102-0.181-0.16
		c-0.084-0.055-0.215-0.134-0.435-0.138c-0.088,0-0.187,0.017-0.276,0.055c-0.09,0.036-0.169,0.09-0.229,0.146l-0.001,0.001
		l-0.06,0.044l0,0.001V18.09l0,0l0,0.001V18.09c0,0-0.039-0.001-0.119-0.046c-0.119-0.064-0.304-0.223-0.492-0.439
		c-0.19-0.215-0.387-0.483-0.575-0.755l-0.001-0.002c-0.352-0.497-0.625-1.22-0.618-1.785c0.001-0.354,0.086-0.628,0.269-0.852
		l0.002-0.003c0.074-0.091,0.126-0.125,0.158-0.142l0.077-0.019c0.057-0.005,0.19,0.042,0.301,0.12
		c0.056,0.037,0.104,0.077,0.134,0.104l0.032,0.03l0.006-0.006l-0.006,0.006v0l0.006-0.006l-0.006,0.006
		c0.219,0.235,0.564,0.29,0.844,0.134s0.419-0.481,0.341-0.795c-0.261-1.061-0.443-2.246-0.469-3.456v-0.006
		c-0.004-0.127-0.006-0.254-0.006-0.382c0-0.747,0.065-1.493,0.209-2.22l0.001-0.005c0.212-1.104,0.598-2.144,1.209-3.066
		l-0.002,0.002c0.868-1.298,1.989-2.056,3.15-2.507c1.159-0.45,2.354-0.577,3.287-0.577c0.933,0,2.125,0.127,3.282,0.577
		c1.158,0.452,2.277,1.208,3.146,2.507l-0.001-0.002c0.61,0.922,0.996,1.963,1.209,3.066l0.001,0.005
		c0.144,0.728,0.209,1.473,0.209,2.22c0,0.127-0.002,0.254-0.006,0.382v0.006c-0.026,1.21-0.208,2.395-0.469,3.456
		c-0.077,0.314,0.063,0.64,0.342,0.795s0.625,0.101,0.844-0.134l-0.006-0.006l0.006,0.006v0l-0.006-0.006l0.006,0.006
		c0.02-0.02,0.106-0.101,0.208-0.161c0.102-0.063,0.208-0.095,0.258-0.093l0.077,0.019c0.031,0.016,0.084,0.05,0.158,0.142
		l0.003,0.003c0.184,0.227,0.27,0.504,0.271,0.861c0.007,0.565-0.263,1.283-0.611,1.776l-0.002,0.002
		c-0.249,0.362-0.521,0.717-0.762,0.95c-0.118,0.117-0.229,0.201-0.31,0.244c-0.08,0.045-0.12,0.047-0.122,0.047v0.004l0.001-0.004
		h-0.001v0.004l0.001-0.004l-0.008-0.004l-0.054-0.041l-0.002-0.002c-0.06-0.056-0.138-0.109-0.228-0.146
		c-0.09-0.037-0.188-0.055-0.276-0.054c-0.22,0.004-0.352,0.083-0.436,0.139c-0.154,0.111-0.213,0.197-0.281,0.285
		c-0.111,0.152-0.208,0.319-0.316,0.518c-0.322,0.588-0.738,1.448-1.177,2.177c-0.068,0.113-0.104,0.24-0.104,0.372v4.009
		c0,0.354,0.257,0.654,0.603,0.704L24.046,25.342z"/>
</g>
</svg>
