<?xml version="1.0" encoding="utf-8"?>
<!-- Generator: Adobe Illustrator 15.0.0, SVG Export Plug-In . SVG Version: 6.00 Build 0)  -->
<!DOCTYPE svg PUBLIC "-//W3C//DTD SVG 1.1//EN" "http://www.w3.org/Graphics/SVG/1.1/DTD/svg11.dtd">
<svg version="1.1" id="Layer_1" xmlns="http://www.w3.org/2000/svg" xmlns:xlink="http://www.w3.org/1999/xlink" x="0px" y="0px"
	 width="38px" height="42px" viewBox="0 0 38 42" enable-background="new 0 0 38 42" xml:space="preserve">
<g>
	<defs>
		<rect id="SVGID_1_" width="38" height="42"/>
	</defs>
	<clipPath id="SVGID_2_">
		<use xlink:href="#SVGID_1_"  overflow="visible"/>
	</clipPath>
	<path clip-path="url(#SVGID_2_)" fill="#4B4A4B" d="M37.368,33.613h-0.632c0,1.976-0.815,3.76-2.135,5.055
		c-1.321,1.294-3.14,2.093-5.154,2.094c-2.015-0.001-3.833-0.8-5.154-2.094c-1.32-1.295-2.135-3.079-2.135-5.055
		s0.814-3.759,2.135-5.055c1.321-1.294,3.14-2.093,5.154-2.093s3.833,0.799,5.154,2.093c1.319,1.296,2.135,3.079,2.135,5.055H37.368
		H38c0-4.632-3.829-8.387-8.553-8.387s-8.552,3.755-8.553,8.387C20.896,38.245,24.724,42,29.447,42S38,38.245,38,33.613H37.368z"/>
	<polygon clip-path="url(#SVGID_2_)" fill="#4B4A4B" points="25.593,33.091 28.778,37.286 34.506,31.479 33.598,30.617 
		28.903,35.377 26.606,32.351 	"/>
	<path clip-path="url(#SVGID_2_)" fill="#4B4A4B" d="M15.463,9.839v7.002H7.379V9.839h0.346h1.263h4.866h1.263H15.463 M12.432,4.194
		h-2.021c-1.48,0-2.686,1.181-2.686,2.634v1.773H6.116v9.48h10.611v-9.48h-1.609V6.828C15.117,5.375,13.913,4.194,12.432,4.194
		 M8.904,8.601V6.828c0-0.815,0.676-1.478,1.507-1.478h2.021c0.831,0,1.506,0.663,1.506,1.478v1.773H8.904z"/>
	<path clip-path="url(#SVGID_2_)" fill="#4B4A4B" d="M11.421,10.935c-0.674,0-1.225,0.541-1.225,1.201
		c0,0.396,0.201,0.746,0.505,0.965l-0.453,2.59h2.346l-0.452-2.59c0.304-0.219,0.504-0.569,0.504-0.965
		C12.646,11.475,12.095,10.935,11.421,10.935"/>
	<path clip-path="url(#SVGID_2_)" fill="#4B4A4B" d="M29.106,9.875h-0.89l0.304-1.308c0.059-0.251-0.081-0.508-0.312-0.572
		c-0.231-0.063-0.465,0.088-0.523,0.34l-0.357,1.54h-2.046l-0.398-1.551c-0.052-0.202-0.221-0.342-0.412-0.343H24.47
		c-0.192,0-0.36,0.138-0.414,0.339l-0.414,1.555h-2.114l-0.363-1.542c-0.059-0.251-0.294-0.403-0.523-0.338
		c-0.23,0.065-0.369,0.321-0.31,0.573l0.307,1.307h-0.894c-0.237,0-0.431,0.21-0.431,0.47c0,0.259,0.193,0.47,0.431,0.47h1.115
		l0.282,1.199h-0.669c-0.237,0-0.431,0.211-0.431,0.471s0.193,0.47,0.431,0.47h0.891l0.714,3.034
		c0.049,0.206,0.217,0.35,0.411,0.353h0.007c0.191,0,0.359-0.138,0.413-0.339l0.812-3.048h1.461l0.781,3.043
		c0.053,0.204,0.223,0.343,0.416,0.343h0.005c0.195-0.003,0.364-0.148,0.412-0.354l0.706-3.032h0.953c0.238,0,0.431-0.21,0.431-0.47
		s-0.192-0.471-0.431-0.471h-0.735l0.278-1.199h1.109c0.237,0,0.431-0.211,0.431-0.47C29.537,10.086,29.344,9.875,29.106,9.875
		 M21.749,10.816h1.643l-0.318,1.199h-1.042L21.749,10.816z M22.521,14.091l-0.268-1.135h0.569L22.521,14.091z M23.97,12.015
		l0.319-1.199h0.341l0.309,1.199H23.97z M26.356,14.051l-0.282-1.096h0.537L26.356,14.051z M26.83,12.015h-0.997l-0.308-1.199h1.583
		L26.83,12.015z"/>
	<polygon clip-path="url(#SVGID_2_)" fill="#4B4A4B" points="22.036,35.739 1.263,35.739 1.263,1.239 33.174,1.239 33.174,27.126 
		34.438,27.126 34.438,0 0,0 0,36.979 22.036,36.979 	"/>
	<polyline clip-path="url(#SVGID_2_)" fill="#4B4A4B" points="6.116,23.539 20.508,23.539 20.508,22.3 6.116,22.3 	"/>
	<polyline clip-path="url(#SVGID_2_)" fill="#4B4A4B" points="6.116,27.704 16.376,27.704 16.376,26.466 6.116,26.466 	"/>
</g>
</svg>
