<?xml version="1.0" encoding="utf-8"?>
<!-- Generator: Adobe Illustrator 15.0.0, SVG Export Plug-In . SVG Version: 6.00 Build 0)  -->
<!DOCTYPE svg PUBLIC "-//W3C//DTD SVG 1.1//EN" "http://www.w3.org/Graphics/SVG/1.1/DTD/svg11.dtd">
<svg version="1.1" id="Layer_1" xmlns="http://www.w3.org/2000/svg" xmlns:xlink="http://www.w3.org/1999/xlink" x="0px" y="0px"
	 width="35px" height="42px" viewBox="0 0 35 42" enable-background="new 0 0 35 42" xml:space="preserve">
<g>
	<defs>
		<rect id="SVGID_1_" width="35" height="42"/>
	</defs>
	<clipPath id="SVGID_2_">
		<use xlink:href="#SVGID_1_"  overflow="visible"/>
	</clipPath>
	<path clip-path="url(#SVGID_2_)" fill="#4B4A4B" d="M34.414,34.078h-0.586c-0.001,1.866-0.757,3.551-1.981,4.774
		c-1.226,1.223-2.912,1.978-4.782,1.978c-1.869,0-3.556-0.755-4.782-1.978c-1.225-1.224-1.98-2.908-1.98-4.774
		s0.756-3.551,1.98-4.773c1.227-1.223,2.913-1.977,4.782-1.978c1.87,0.001,3.557,0.755,4.782,1.978
		c1.225,1.223,1.98,2.907,1.981,4.773H34.414H35c-0.001-4.375-3.552-7.921-7.936-7.921c-4.382,0-7.935,3.546-7.936,7.921
		C19.13,38.454,22.683,42,27.064,42c4.384,0,7.935-3.546,7.936-7.922H34.414z"/>
	<path clip-path="url(#SVGID_2_)" fill="#4B4A4B" d="M27.405,29.27c0,0.188-0.153,0.34-0.341,0.34s-0.34-0.152-0.34-0.34
		s0.152-0.339,0.34-0.339S27.405,29.082,27.405,29.27"/>
	<path clip-path="url(#SVGID_2_)" fill="#4B4A4B" d="M27.405,29.27h-0.391h0.05v-0.051l-0.05,0.051h0.05v-0.051v0.051h0.052
		l-0.052-0.051v0.051h0.052h-0.052v0.051l0.052-0.051h-0.052v0.051V29.27h-0.05l0.05,0.051V29.27h-0.05H27.405h0.391
		c-0.001-0.403-0.328-0.729-0.731-0.729c-0.402,0-0.73,0.326-0.73,0.729s0.326,0.729,0.73,0.729s0.73-0.326,0.731-0.729H27.405z"/>
	<path clip-path="url(#SVGID_2_)" fill="#4B4A4B" d="M22.014,33.973c0.188,0,0.341,0.151,0.341,0.339s-0.153,0.34-0.341,0.34
		s-0.34-0.152-0.34-0.34S21.826,33.973,22.014,33.973"/>
	<path clip-path="url(#SVGID_2_)" fill="#4B4A4B" d="M22.014,33.973v0.39v-0.051h-0.051l0.051,0.051v-0.051h-0.051h0.051v-0.051
		l-0.051,0.051h0.051v-0.051v0.051h0.051l-0.051-0.051v0.051h0.051h-0.051v0.051l0.051-0.051h-0.051v0.051V33.973v-0.391
		c-0.403,0-0.73,0.326-0.73,0.729s0.326,0.729,0.73,0.729s0.73-0.326,0.731-0.729c-0.001-0.403-0.328-0.729-0.731-0.729V33.973z"/>
	<path clip-path="url(#SVGID_2_)" fill="#4B4A4B" d="M26.725,39.354c0-0.188,0.152-0.339,0.34-0.339s0.341,0.151,0.341,0.339
		c0,0.187-0.153,0.34-0.341,0.34S26.725,39.54,26.725,39.354"/>
	<path clip-path="url(#SVGID_2_)" fill="#4B4A4B" d="M26.725,39.354h0.392h-0.052v0.051l0.052-0.051h-0.052v0.051v-0.051h-0.05
		l0.05,0.051v-0.051h-0.05h0.05v-0.051l-0.05,0.051h0.05v-0.051v0.051h0.052l-0.052-0.051v0.051h0.052H26.725h-0.391
		c0,0.403,0.326,0.729,0.73,0.729s0.73-0.326,0.731-0.729c-0.001-0.403-0.328-0.729-0.731-0.729c-0.402,0-0.73,0.326-0.73,0.729
		H26.725z"/>
	<path clip-path="url(#SVGID_2_)" fill="#4B4A4B" d="M32.115,34.651c-0.188,0-0.339-0.152-0.339-0.34s0.151-0.339,0.339-0.339
		c0.188,0,0.341,0.151,0.341,0.339S32.304,34.651,32.115,34.651"/>
	<path clip-path="url(#SVGID_2_)" fill="#4B4A4B" d="M32.115,34.651v-0.391v0.051h0.052l-0.052-0.051v0.051h0.052h-0.052v0.051
		l0.052-0.051h-0.052v0.051v-0.051h-0.05l0.05,0.051v-0.051h-0.05h0.05v-0.051l-0.05,0.051h0.05v-0.051V34.651v0.39
		c0.404,0,0.73-0.326,0.731-0.729c-0.001-0.403-0.328-0.729-0.731-0.729c-0.402,0-0.73,0.326-0.73,0.729s0.326,0.729,0.73,0.729
		V34.651z"/>
	<path clip-path="url(#SVGID_2_)" fill="#4B4A4B" d="M30.052,30.573l-3.086,2.805l-2.939-1.442c-0.29-0.143-0.642-0.022-0.784,0.267
		c-0.143,0.29-0.022,0.641,0.268,0.783l3.655,1.794l3.677-3.341c0.238-0.217,0.256-0.587,0.038-0.826
		C30.662,30.374,30.292,30.356,30.052,30.573"/>
	<path clip-path="url(#SVGID_2_)" fill="#4B4A4B" d="M6.129,1.17c0.175,0,0.354,0.016,0.529,0.047
		C7.418,1.38,9.54,3.988,11.944,8.163L5.605,7.016c-1.6-0.289-2.667-1.826-2.377-3.425C3.483,2.188,4.703,1.17,6.129,1.17 M6.129,0
		C4.136,0,2.431,1.422,2.075,3.382C1.67,5.616,3.161,7.763,5.397,8.167l8.772,1.588l-0.535-0.974
		c-0.762-1.389-4.671-8.335-6.766-8.714C6.624,0.022,6.375,0,6.129,0"/>
	<path clip-path="url(#SVGID_2_)" fill="#4B4A4B" d="M23.612,1.246c1.455,0,2.71,1.087,2.918,2.527
		c0.231,1.609-0.892,3.105-2.502,3.336l-6.375,0.916c2.552-4.086,4.77-6.614,5.536-6.749C23.326,1.255,23.47,1.246,23.612,1.246
		 M23.612,0.075c-0.196,0-0.396,0.014-0.592,0.042C20.912,0.42,16.752,7.22,15.94,8.58l-0.57,0.955l8.824-1.267
		c2.251-0.324,3.819-2.414,3.496-4.661C27.399,1.594,25.646,0.075,23.612,0.075"/>
	<path clip-path="url(#SVGID_2_)" fill="#4B4A4B" d="M29.758,27c-0.094-1.045-0.478-2.231-1.058-3.526
		c-1.745-3.872-5.31-8.709-8.809-12.347l-0.154-0.162l-0.173-0.182h-9.34L9.89,11.125l0.005-0.005
		c-2.373,2.435-4.823,5.524-6.696,8.487c-0.936,1.481-1.727,2.93-2.291,4.26C0.347,25.199,0.004,26.404,0,27.452
		c0,3.362,1.711,6.393,4.413,8.553c2.704,2.164,6.405,3.487,10.477,3.488c2.167,0,4.231-0.379,6.092-1.058l-0.401-1.1
		c-1.731,0.632-3.661,0.987-5.691,0.987c-3.817,0-7.267-1.247-9.743-3.231c-2.479-1.988-3.975-4.686-3.976-7.64
		c-0.003-0.782,0.285-1.882,0.816-3.129c0.793-1.874,2.114-4.089,3.669-6.271c1.556-2.184,3.347-4.338,5.078-6.116l0.156-0.159
		l-0.419-0.409v0.585h8.842v-0.585l-0.426,0.404l0.157,0.164l0.002,0.002c2.276,2.363,4.602,5.28,6.386,8.055
		c0.893,1.387,1.649,2.739,2.198,3.96c0.55,1.22,0.888,2.314,0.959,3.149L29.758,27z"/>
	<path clip-path="url(#SVGID_2_)" fill="#4B4A4B" d="M21.74,21.937h-1.211l0.414-1.627c0.079-0.313-0.111-0.631-0.424-0.711
		c-0.314-0.079-0.633,0.11-0.713,0.423l-0.487,1.915h-2.783l-0.542-1.929c-0.071-0.251-0.3-0.425-0.562-0.427H15.43
		c-0.26,0-0.49,0.172-0.563,0.422l-0.563,1.934h-2.877l-0.493-1.917c-0.081-0.313-0.4-0.501-0.714-0.421
		c-0.313,0.081-0.502,0.399-0.422,0.712l0.419,1.625H9c-0.323,0-0.586,0.262-0.586,0.585S8.677,23.107,9,23.107h1.518l0.385,1.491
		H9.991c-0.323,0-0.586,0.262-0.586,0.585s0.263,0.585,0.586,0.585h1.212l0.972,3.773c0.066,0.255,0.295,0.436,0.559,0.439h0.009
		c0.26,0,0.49-0.172,0.563-0.422l1.104-3.791h1.988l1.064,3.786c0.072,0.253,0.302,0.427,0.565,0.427h0.007
		c0.266-0.004,0.496-0.185,0.561-0.441l0.96-3.771h1.298c0.323,0,0.586-0.262,0.586-0.585s-0.263-0.585-0.586-0.585h-1l0.379-1.491
		h1.509c0.323,0,0.586-0.263,0.586-0.585S22.063,21.937,21.74,21.937 M11.729,23.107h2.235l-0.434,1.491h-1.417L11.729,23.107z
		 M12.777,27.181l-0.364-1.412h0.775L12.777,27.181z M14.75,24.599l0.434-1.491h0.465l0.419,1.491H14.75z M17.998,27.131
		l-0.383-1.362h0.73L17.998,27.131z M18.643,24.599h-1.357l-0.419-1.491h2.156L18.643,24.599z"/>
</g>
</svg>
