<?xml version="1.0" encoding="utf-8"?>
<!-- Generator: Adobe Illustrator 15.0.0, SVG Export Plug-In . SVG Version: 6.00 Build 0)  -->
<!DOCTYPE svg PUBLIC "-//W3C//DTD SVG 1.1//EN" "http://www.w3.org/Graphics/SVG/1.1/DTD/svg11.dtd">
<svg version="1.1" id="Layer_1" xmlns="http://www.w3.org/2000/svg" xmlns:xlink="http://www.w3.org/1999/xlink" x="0px" y="0px"
	 width="36px" height="39px" viewBox="0 0 36 39" enable-background="new 0 0 36 39" xml:space="preserve">
<g>
	<defs>
		<rect id="SVGID_1_" width="36" height="39"/>
	</defs>
	<clipPath id="SVGID_2_">
		<use xlink:href="#SVGID_1_"  overflow="visible"/>
	</clipPath>
	<path clip-path="url(#SVGID_2_)" fill="#4B4A4B" d="M35.402,31.016h-0.598c0,1.881-0.771,3.579-2.02,4.812
		c-1.251,1.232-2.971,1.993-4.878,1.994C26,37.82,24.28,37.06,23.03,35.827c-1.249-1.232-2.02-2.931-2.021-4.812
		c0.001-1.881,0.771-3.578,2.021-4.812c1.25-1.232,2.971-1.992,4.877-1.992c1.907,0,3.627,0.76,4.878,1.993
		c1.249,1.233,2.02,2.93,2.02,4.811H35.402H36c-0.001-4.409-3.624-7.983-8.094-7.983s-8.092,3.574-8.093,7.983
		C19.815,35.426,23.437,39,27.907,39S36,35.426,36,31.016H35.402z"/>
	<path clip-path="url(#SVGID_2_)" fill="#4B4A4B" d="M32.336,29.232h-0.842l0.287-1.245c0.056-0.239-0.076-0.483-0.295-0.544
		c-0.218-0.061-0.439,0.084-0.494,0.323l-0.339,1.466h-1.936l-0.377-1.477c-0.05-0.192-0.209-0.325-0.391-0.326h-0.002
		c-0.182,0-0.341,0.131-0.392,0.322l-0.392,1.48h-2l-0.345-1.467c-0.056-0.239-0.278-0.384-0.495-0.322
		c-0.218,0.062-0.35,0.306-0.293,0.546l0.29,1.243h-0.846c-0.224,0-0.407,0.201-0.407,0.448s0.184,0.447,0.407,0.447h1.056
		L24.8,31.27h-0.633c-0.226,0-0.408,0.2-0.408,0.447s0.183,0.448,0.408,0.448h0.842l0.676,2.888
		c0.046,0.195,0.205,0.333,0.389,0.336h0.007c0.181,0,0.34-0.131,0.392-0.322l0.767-2.901h1.383l0.74,2.897
		c0.05,0.193,0.21,0.326,0.393,0.326h0.005c0.186-0.002,0.345-0.141,0.391-0.337l0.667-2.887h0.902c0.226,0,0.407-0.201,0.407-0.448
		s-0.182-0.447-0.407-0.447h-0.696l0.265-1.142h1.049c0.225,0,0.407-0.2,0.407-0.447S32.561,29.232,32.336,29.232 M25.375,30.128
		h1.554l-0.301,1.142h-0.985L25.375,30.128z M26.104,33.246l-0.253-1.081h0.539L26.104,33.246z M27.476,31.27l0.302-1.142h0.323
		l0.291,1.142H27.476z M29.734,33.208l-0.267-1.043h0.508L29.734,33.208z M30.182,31.27h-0.943l-0.291-1.142h1.498L30.182,31.27z"/>
	<polygon clip-path="url(#SVGID_2_)" fill="#4B4A4B" points="22.446,36.382 1.195,36.382 1.195,1.179 31.391,1.179 31.391,24.644 
		32.586,24.644 32.586,0 0,0 0,37.561 23.641,37.561 	"/>
	<polyline clip-path="url(#SVGID_2_)" fill="#4C4A4C" points="6.813,8.006 25.838,8.006 25.838,6.827 6.813,6.827 	"/>
	<polyline clip-path="url(#SVGID_2_)" fill="#4C4A4C" points="6.813,12.114 25.838,12.114 25.838,10.935 6.813,10.935 	"/>
	<polyline clip-path="url(#SVGID_2_)" fill="#4C4A4C" points="6.813,16.223 25.838,16.223 25.838,15.043 6.813,15.043 	"/>
	<polyline clip-path="url(#SVGID_2_)" fill="#4C4A4C" points="6.813,20.547 17.869,20.547 17.869,19.368 6.813,19.368 	"/>
</g>
</svg>
