<?xml version="1.0" encoding="utf-8"?>
<!-- Generator: Adobe Illustrator 15.0.0, SVG Export Plug-In . SVG Version: 6.00 Build 0)  -->
<!DOCTYPE svg PUBLIC "-//W3C//DTD SVG 1.1//EN" "http://www.w3.org/Graphics/SVG/1.1/DTD/svg11.dtd">
<svg version="1.1" id="Layer_1" xmlns="http://www.w3.org/2000/svg" xmlns:xlink="http://www.w3.org/1999/xlink" x="0px" y="0px"
	 width="42px" height="35px" viewBox="0 0 42 35" enable-background="new 0 0 42 35" xml:space="preserve">
<g>
	<defs>
		<rect id="SVGID_1_" width="42" height="34.82"/>
	</defs>
	<clipPath id="SVGID_2_">
		<use xlink:href="#SVGID_1_"  overflow="visible"/>
	</clipPath>
	<path clip-path="url(#SVGID_2_)" fill="#4C4A4C" d="M39.982,27.852H2.018V1.972h37.964V27.852z M40.349,0.538H1.651
		c-0.605,0-1.101,0.484-1.101,1.075V28.21c0,0.592,0.496,1.075,1.101,1.075h38.698c0.604,0,1.101-0.483,1.101-1.075V1.613
		C41.45,1.022,40.954,0.538,40.349,0.538"/>
	
		<polyline clip-path="url(#SVGID_2_)" fill="none" stroke="#4C4A4C" stroke-width="2" stroke-linecap="round" stroke-linejoin="round" stroke-miterlimit="10" points="
		16.6,34.283 18.8,29.285 23.2,29.285 25.399,34.283 	"/>
	
		<line clip-path="url(#SVGID_2_)" fill="none" stroke="#4C4A4C" stroke-width="2" stroke-linecap="round" stroke-linejoin="round" stroke-miterlimit="10" x1="13.386" y1="34.283" x2="28.615" y2="34.283"/>
	
		<line clip-path="url(#SVGID_2_)" fill="none" stroke="#4C4A4C" stroke-width="2" stroke-linecap="round" stroke-linejoin="round" stroke-miterlimit="10" x1="1.284" y1="24.596" x2="40.716" y2="24.596"/>
</g>
<g>
	<defs>
		<rect id="SVGID_3_" width="42" height="35"/>
	</defs>
	<clipPath id="SVGID_4_">
		<use xlink:href="#SVGID_3_"  overflow="visible"/>
	</clipPath>
	<path clip-path="url(#SVGID_4_)" fill-rule="evenodd" clip-rule="evenodd" fill="#4D4B4C" d="M28.5,18.879l-3.581-3.499
		c0.679-0.892,1.085-1.994,1.085-3.192c0-2.96-2.456-5.359-5.485-5.359c-3.03,0-5.486,2.399-5.486,5.359
		c0,2.96,2.457,5.359,5.486,5.359c1.226,0,2.354-0.397,3.266-1.059l3.582,3.499L28.5,18.879z M20.518,15.982
		c-2.141,0-3.883-1.702-3.883-3.793c0-2.091,1.742-3.792,3.883-3.792c2.141,0,3.883,1.701,3.883,3.792
		C24.401,14.28,22.659,15.982,20.518,15.982"/>
</g>
</svg>
