<?xml version="1.0" encoding="utf-8"?>
<!-- Generator: Adobe Illustrator 15.0.0, SVG Export Plug-In . SVG Version: 6.00 Build 0)  -->
<!DOCTYPE svg PUBLIC "-//W3C//DTD SVG 1.1//EN" "http://www.w3.org/Graphics/SVG/1.1/DTD/svg11.dtd">
<svg version="1.1" id="Layer_1" xmlns="http://www.w3.org/2000/svg" xmlns:xlink="http://www.w3.org/1999/xlink" x="0px" y="0px"
	 width="33px" height="42px" viewBox="0 0 33 42" enable-background="new 0 0 33 42" xml:space="preserve">
<polygon fill="#4C4A4C" points="0,0 0,42 18.914,42 18.914,40.74 1.26,40.74 1.26,1.26 31.739,1.26 31.739,10.123 33,10.123 33,0 
	"/>
<polygon fill="#4C4A4C" points="31.739,10.123 31.739,40.74 17.914,40.74 17.914,42 33,42 33,10.123 "/>
<polyline fill="#4C4A4C" points="6.512,13.231 26.465,13.231 26.465,11.972 6.512,11.972 "/>
<polyline fill="#4C4A4C" points="6.512,18.682 26.465,18.682 26.465,17.422 6.512,17.422 "/>
<polygon fill="#4C4A4C" points="27.709,35.146 27.709,34.516 16.938,34.516 16.938,32.848 27.078,32.848 27.078,35.146 
	27.709,35.146 27.709,34.516 27.709,35.146 28.339,35.146 28.339,31.588 15.677,31.588 15.677,35.775 28.339,35.775 28.339,35.146 
	"/>
<polygon fill="#4C4A4C" points="26.881,25.746 26.881,25.116 7.142,25.116 7.142,8.528 26.251,8.528 26.251,25.746 26.881,25.746 
	26.881,25.116 26.881,25.746 27.511,25.746 27.511,7.268 5.882,7.268 5.882,26.376 27.511,26.376 27.511,25.746 "/>
<polyline fill="#4C4A4C" points="19.014,8.012 19.014,26.199 20.274,26.199 20.274,8.012 "/>
<g>
	<defs>
		<rect id="SVGID_1_" width="33" height="42"/>
	</defs>
	<clipPath id="SVGID_2_">
		<use xlink:href="#SVGID_1_"  overflow="visible"/>
	</clipPath>
	<path clip-path="url(#SVGID_2_)" fill="#4B4A4B" d="M13.932,32.157h-0.827l0.283-1.113c0.054-0.214-0.075-0.432-0.289-0.486
		c-0.215-0.053-0.433,0.075-0.486,0.29l-0.333,1.31h-1.901l-0.371-1.319c-0.048-0.172-0.205-0.291-0.384-0.292H9.622
		c-0.178,0-0.335,0.117-0.384,0.288l-0.385,1.323H6.888l-0.337-1.311c-0.056-0.215-0.274-0.344-0.487-0.289
		c-0.214,0.056-0.343,0.273-0.289,0.488l0.286,1.111H5.23c-0.221,0-0.4,0.179-0.4,0.399c0,0.222,0.179,0.4,0.4,0.4h1.037l0.262,1.02
		H5.908c-0.221,0-0.401,0.18-0.401,0.4s0.18,0.4,0.401,0.4h0.828l0.664,2.58c0.045,0.175,0.202,0.298,0.382,0.301h0.006
		c0.178,0,0.334-0.117,0.384-0.288l0.754-2.593h1.358l0.728,2.589c0.048,0.173,0.205,0.292,0.385,0.292H11.4
		c0.181-0.002,0.338-0.126,0.383-0.302l0.656-2.579h0.886c0.221,0,0.401-0.18,0.401-0.4s-0.18-0.4-0.401-0.4h-0.683l0.259-1.02h1.03
		c0.221,0,0.4-0.179,0.4-0.4C14.332,32.336,14.152,32.157,13.932,32.157 M7.094,32.957h1.527l-0.297,1.02H7.356L7.094,32.957z
		 M7.811,35.743l-0.249-0.966h0.53L7.811,35.743z M9.158,33.977l0.296-1.02h0.317l0.286,1.02H9.158z M11.376,35.709l-0.262-0.932
		h0.498L11.376,35.709z M11.816,33.977H10.89l-0.287-1.02h1.473L11.816,33.977z"/>
</g>
</svg>
