<?xml version="1.0" encoding="utf-8"?>
<!-- Generator: Adobe Illustrator 15.0.0, SVG Export Plug-In . SVG Version: 6.00 Build 0)  -->
<!DOCTYPE svg PUBLIC "-//W3C//DTD SVG 1.1//EN" "http://www.w3.org/Graphics/SVG/1.1/DTD/svg11.dtd">
<svg version="1.1" id="Layer_1" xmlns="http://www.w3.org/2000/svg" xmlns:xlink="http://www.w3.org/1999/xlink" x="0px" y="0px"
	 width="31px" height="42px" viewBox="0 0 31 42" enable-background="new 0 0 31 42" xml:space="preserve">
<polygon fill="#4C4A4C" points="24.654,27.547 24.654,26.917 6.982,26.917 6.982,25.472 24.018,25.472 24.018,27.547 24.654,27.547 
	24.654,26.917 24.654,27.547 25.29,27.547 25.29,24.212 5.71,24.212 5.71,28.178 25.29,28.178 25.29,27.547 "/>
<path fill="#4C4A4C" d="M1.271,1.26h28.457v33.786H1.271V1.26z M0,0v36.306h31v-0.723V0H0z"/>
<path fill="#4C4A4C" d="M30.364,41.37v-0.63V41.37H31H30.364z M1.271,36.306h28.457v4.435H1.271V36.306z M0,35.046V42h31v-0.63
	v-6.324H0z"/>
<polyline fill="#4C4A4C" points="0.636,39.153 30.364,39.153 30.364,37.894 0.636,37.894 "/>
<polyline fill="#4C4A4C" points="5.911,13.296 25.089,13.296 25.089,12.036 5.911,12.036 "/>
<polyline fill="#4C4A4C" points="5.911,6.971 21.569,6.971 21.569,5.71 5.911,5.71 "/>
<polyline fill="#4C4A4C" points="5.911,17.324 25.089,17.324 25.089,16.064 5.911,16.064 "/>
<polyline fill="#4C4A4C" points="5.911,21.353 25.089,21.353 25.089,20.092 5.911,20.092 "/>
<g>
	<defs>
		<rect id="SVGID_1_" width="31" height="42"/>
	</defs>
	<clipPath id="SVGID_2_">
		<use xlink:href="#SVGID_1_"  overflow="visible"/>
	</clipPath>
	<path clip-path="url(#SVGID_2_)" fill="#4C4A4C" d="M22.109,0.63l-0.494,0.396l0.002,0.003c0.034,0.042,0.437,0.547,0.837,1.258
		c0.403,0.709,0.796,1.629,0.856,2.449c0.024,0.31,0.035,0.607,0.035,0.889c0,0.798-0.083,1.47-0.165,1.938
		c-0.041,0.233-0.082,0.416-0.111,0.537c-0.015,0.061-0.027,0.106-0.035,0.135l-0.009,0.031l-0.002,0.006l0.086,0.025l-0.086-0.025
		v0l0.086,0.025l-0.086-0.025c-0.063,0.209-0.012,0.439,0.136,0.603s0.373,0.239,0.59,0.199L30.48,7.83
		c0.245-0.045,0.439-0.227,0.501-0.466c0.061-0.239-0.024-0.49-0.219-0.645l-8.255-6.581c-0.252-0.201-0.62-0.182-0.849,0.046
		c-0.229,0.228-0.248,0.592-0.044,0.841L22.109,0.63L21.71,1.121l7.177,5.721l-5.371,0.992l0.116,0.62l0.608,0.182
		c0.012-0.042,0.375-1.242,0.376-3.01c0-0.313-0.012-0.642-0.039-0.986c-0.095-1.157-0.596-2.233-1.058-3.043
		c-0.465-0.808-0.902-1.344-0.917-1.362L22.109,0.63L21.71,1.121L22.109,0.63z"/>
</g>
</svg>
