<svg id="Layer_1" xmlns="http://www.w3.org/2000/svg" width="22.5" height="21" viewBox="0 0 22.5 21"><style>.st0{fill:#2377c5}</style><path class="st0" d="M13.7 21c-.2 0-.4-.2-.4-.4v-3.8H4.7c-2.6 0-4.7-2.1-4.7-4.7V4.7C0 2.1 2.1 0 4.7 0h13.1c2.6 0 4.7 2.1 4.7 4.7V12c0 2.5-2 4.6-4.6 4.7l-4 4.1c0 .2-.1.2-.2.2zM4.7.7c-2.2 0-4 1.8-4 4v7.4c0 2.2 1.8 4 4 4h8.9c.2 0 .4.2.4.4v3.3l3.5-3.6c.1-.1.2-.1.3-.1 2.2 0 4-1.8 4-4V4.7c0-2.2-1.8-4-4-4H4.7z"/><path class="st0" d="M7.1 10c-.9 0-1.5-.7-1.5-1.5 0-.9.7-1.5 1.5-1.5.9 0 1.5.7 1.5 1.5S7.9 10 7.1 10zm0-2.4c-.5 0-.8.4-.8.8 0 .5.4.8.8.8.5 0 .8-.4.8-.8s-.4-.8-.8-.8zm4.1 2.4c-.9 0-1.5-.7-1.5-1.5S10.4 7 11.2 7s1.5.7 1.5 1.5c.1.8-.6 1.5-1.5 1.5zm0-2.4c-.5 0-.8.4-.8.8 0 .5.4.8.8.8.5 0 .8-.4.8-.8.1-.4-.3-.8-.8-.8zm4.2 2.4c-.9 0-1.5-.7-1.5-1.5 0-.9.7-1.5 1.5-1.5.9 0 1.5.7 1.5 1.5.1.8-.6 1.5-1.5 1.5zm0-2.4c-.5 0-.8.3-.9.8 0 .5.3.8.8.9.5 0 .8-.3.9-.8.1-.5-.3-.9-.8-.9z"/><title>ico_chat</title></svg>