<svg id="Layer_1" xmlns="http://www.w3.org/2000/svg" width="20" height="18" viewBox="0 0 20 18"><style>.st0{fill:#fff}</style><path class="st0" d="M12.1 18H12c-.1 0-.2-.2-.2-.3v-3.3H4.2c-2.3 0-4.2-1.8-4.2-4.1V4.1C0 1.8 1.9 0 4.2 0h11.6C18.1 0 20 1.8 20 4.1v6.3c0 2.2-1.8 4-4.1 4.1L12.3 18h-.2zM4.2.6C2.3.6.7 2.1.6 4v6.3c0 1.9 1.6 3.5 3.6 3.4h8c.2 0 .3.1.3.3v3l3.1-3.1c.1-.1.1-.1.2-.1 1.9 0 3.5-1.5 3.6-3.4V4.1c0-1.9-1.6-3.5-3.6-3.4H4.2z"/><path class="st0" d="M6.3 8.5C5.5 8.5 5 7.9 5 7.2s.6-1.3 1.4-1.3c.7 0 1.3.6 1.3 1.3-.1.8-.7 1.3-1.4 1.3zm0-2c-.4 0-.7.3-.7.7 0 .4.3.7.7.7.4 0 .7-.3.7-.7 0-.4-.3-.7-.7-.7zm3.7 2c-.7 0-1.3-.6-1.3-1.4 0-.7.6-1.3 1.4-1.3.7 0 1.3.6 1.3 1.3 0 .8-.7 1.4-1.4 1.4zm0-2c-.4 0-.7.3-.7.7 0 .5.3.8.7.7.4 0 .7-.3.7-.7 0-.4-.3-.7-.7-.7zm3.7 2c-.7 0-1.3-.6-1.3-1.4 0-.7.6-1.3 1.4-1.3.7 0 1.3.6 1.3 1.3 0 .9-.6 1.4-1.4 1.4zm0-2c-.4 0-.7.3-.7.7 0 .4.3.7.7.7.4 0 .7-.3.7-.7.1-.4-.2-.7-.7-.7.1 0 0 0 0 0z"/><title>ico_chat</title></svg>