<svg id="Layer_1" xmlns="http://www.w3.org/2000/svg" width="16" height="16" viewBox="0 0 16 16"><style>.st0{fill:#fff}</style><title>ico_share</title><path class="st0" d="M6 0H.7C.3 0 0 .3 0 .7v14.6c0 .4.3.7.7.7h14.6c.4 0 .7-.3.7-.7V10c0-.4-.3-.7-.7-.7-.4 0-.7.3-.7.7v4.6H1.4V1.4H6c.4 0 .7-.3.7-.7C6.7.3 6.4 0 6 0z"/><path class="st0" d="M7.8 3.1h5v5c0 .4.3.7.7.7.4 0 .7-.3.7-.7V2.4c0-.4-.3-.7-.7-.7H7.8c-.4 0-.7.3-.7.7s.3.7.7.7z"/><path class="st0" d="M13 2l-9.1 9.1c-.3.3-.3.7 0 1s.7.3 1 0L14 2.9c.3-.3.3-.7 0-1s-.7-.2-1 .1"/></svg>