<svg xmlns="http://www.w3.org/2000/svg" width="16" height="16" viewBox="298 388 16 16"><title>ico_share</title><path fill="#2377C5" d="M304 388h-5.31a.69.69 0 0 0-.69.69v14.62c0 .382.309.69.69.69h14.62a.69.69 0 0 0 .69-.69V398a.69.69 0 0 0-1.379 0v4.58h-13.24v-13.2H304a.69.69 0 0 0 0-1.38z"/><path fill="#2377C5" d="M305.8 391.13h5v5a.69.69 0 0 0 1.379 0v-5.69a.69.69 0 0 0-.689-.69h-5.69a.69.69 0 0 0 0 1.38z"/><path fill="#2377C5" d="M311 389.95l-9.1 9.109a.707.707 0 0 0 1 1l9.1-9.129a.707.707 0 0 0-1-1"/></svg>