<?xml version="1.0" standalone="no"?><!DOCTYPE svg PUBLIC "-//W3C//DTD SVG 1.1//EN" "http://www.w3.org/Graphics/SVG/1.1/DTD/svg11.dtd"><svg width="100%" height="100%" viewBox="0 0 81392 81392" version="1.1" xmlns="http://www.w3.org/2000/svg" xmlns:xlink="http://www.w3.org/1999/xlink" xml:space="preserve" style="fill-rule:evenodd;clip-rule:evenodd;stroke-linejoin:round;stroke-miterlimit:1.41421;"><g id="Page 13"><g id="Artboard-1"><g id="Page 2"><g id="Layer 1"><g><path d="M11874.5,77751.8l-8233.96,-8233.96c-566.528,-566.528 -851.171,-1314.32 -851.171,-2057.97c0,-743.655 281.197,-1491.44 851.171,-2057.28l61761.9,-61761.9c570.664,-565.839 1313.63,-851.171 2057.28,-851.171c742.966,0 1487.31,281.196 2057.28,851.171l8233.96,8233.96c570.664,570.664 851.171,1314.32 851.171,2057.28c0,743.655 -285.331,1487.31 -851.171,2057.28l-61761.9,61762.6c-565.839,569.974 -1314.32,850.482 -2057.28,850.482c-743.654,0 -1492.13,-285.332 -2057.28,-850.482" style="fill:#007dc3;"/><path d="M65402.6,77751.8l-61761.9,-61762.6c-566.528,-565.839 -851.171,-1313.63 -851.171,-2057.28c0,-742.966 281.197,-1491.44 851.171,-2057.28l8233.96,-8233.96c569.975,-565.839 1313.63,-851.171 2057.28,-851.171c742.966,0 1487.31,281.196 2057.28,851.171l61761.9,61761.9c570.664,570.664 851.171,1313.63 851.171,2057.28c0,743.655 -285.332,1487.31 -851.171,2057.97l-8233.96,8233.96c-565.839,569.974 -1314.32,850.482 -2057.28,850.482c-743.654,0 -1491.44,-285.332 -2057.28,-850.482" style="fill:#007dc3;"/></g></g></g></g></g></svg>