<?xml version="1.0" standalone="no"?><!DOCTYPE svg PUBLIC "-//W3C//DTD SVG 1.1//EN" "http://www.w3.org/Graphics/SVG/1.1/DTD/svg11.dtd"><svg width="100%" height="100%" viewBox="0 0 81392 81392" version="1.1" xmlns="http://www.w3.org/2000/svg" xmlns:xlink="http://www.w3.org/1999/xlink" xml:space="preserve" style="fill-rule:evenodd;clip-rule:evenodd;stroke-linejoin:round;stroke-miterlimit:1.41421;"><g id="Layer2"><g id="Page 14"><g id="Layer5"><g id="Page 15"><g id="Layer 1"><path d="M59847.3,55389.7l31.633,8664.74l-6657.82,-6024.28c-3102.65,696.8 -8989.86,1580.76 -12413.2,1580.76c-18122.9,0 -32815.5,-10511.7 -32815.5,-23471.5c0,-12964.2 14692.5,-23472.4 32815.5,-23472.4c18122.9,0 32815.5,10508.2 32815.5,23472.4c0,7496.09 -6124.46,14954.4 -13776.1,19250.3M40696.3,7408.94c-21174.6,0 -38339.8,12937.8 -38339.8,28900c0,15958.7 17165.2,28900 38339.8,28900c3998.91,0 7853.71,-460.432 11480.1,-1317.15l12132.9,10090.9l40.419,-14928c8939.77,-5289.7 14685.5,-13512.5 14685.5,-22745.7c0,-15962.2 -17165.2,-28900 -38338.9,-28900" style="fill:#007dc3;fill-rule:nonzero;stroke-width:4.17px;stroke:#007dc3;"/></g></g></g></g></g></svg>