<?xml version="1.0" standalone="no"?><!DOCTYPE svg PUBLIC "-//W3C//DTD SVG 1.1//EN" "http://www.w3.org/Graphics/SVG/1.1/DTD/svg11.dtd"><svg width="100%" height="100%" viewBox="0 0 19534 19534" version="1.1" xmlns="http://www.w3.org/2000/svg" xmlns:xlink="http://www.w3.org/1999/xlink" xml:space="preserve" style="fill-rule:evenodd;clip-rule:evenodd;stroke-linejoin:round;stroke-miterlimit:1.41421;"><path id="Ebene_x0020_1" d="M6658.82,19090.4l3884.92,0l0,-7026.31c0,-375.961 26.015,-752.046 131.336,-1020.24c288.366,-751.659 1302.97,-1530.08 2404.87,-1530.08c1443.94,0 2125.55,1154.42 2125.55,2845.38l0.062,6731.3l3884.83,-0.058l0,-7214.34c0,-3864.69 -1968.05,-5662.79 -4593.09,-5662.79c-2152.31,-0.061 -3455.1,1261.14 -3980.01,2119.82l26.438,0l4.893,-1674.34l-3884.95,0c52.333,1180.46 -4.865,12431.7 -4.865,12431.7l0.013,0ZM2374.03,4327.77c1204.06,0 1953.69,-863.872 1953.69,-1942.53c-22.318,-1102.83 -749.632,-1942.3 -1930.93,-1942.3c-1181.54,0 -1953.84,839.53 -1953.84,1942.3c0,1078.66 749.542,1942.53 1908.55,1942.53l22.528,0ZM4323.05,19090.4l4.773,-12431.7l-3880.12,0l-4.773,12431.7l3880.12,0Z" style="fill:#007dc3;"/></svg>