<?xml version="1.0" standalone="no"?><!DOCTYPE svg PUBLIC "-//W3C//DTD SVG 1.1//EN" "http://www.w3.org/Graphics/SVG/1.1/DTD/svg11.dtd"><svg width="100%" height="100%" viewBox="0 0 81392 81392" version="1.1" xmlns="http://www.w3.org/2000/svg" xmlns:xlink="http://www.w3.org/1999/xlink" xml:space="preserve" style="fill-rule:evenodd;clip-rule:evenodd;stroke-linejoin:round;stroke-miterlimit:1.41421;"><g id="Page 13"><path d="M19953.9,23145.2l0,11168.4l-4786.48,0c-3526.12,0 -6382.27,2855.98 -6382.27,6382.1l0,31910.7c0,3525.94 2856.16,6381.75 6382.27,6381.75l51056.4,0c3525.94,0 6382.62,-2855.8 6382.62,-6381.75l0,-31910.7c0,-3526.12 -2856.68,-6382.1 -6382.62,-6382.1l-4786.13,0l0,-11168.4c0,-11455.5 -9286.72,-20741.7 -20741.9,-20741.7c-11455.2,0 -20741.9,9286.02 -20741.9,20741.7ZM27931.6,34313.6l0,-11168.4c0,-7052.06 5711.79,-12764.4 12764,-12764.4c7052.23,0 12764.4,5712.31 12764.4,12764.4l0,11168.4l-25528.4,0ZM34313.6,51864.5c0,-3525.94 2855.98,-6381.92 6382.1,-6381.92c3526.12,0 6381.92,2855.98 6381.92,6381.92c0,2249.94 -1165.01,4228.57 -2919.55,5361.26c0,0 623.423,3766.18 1324.47,8200.91c0,1323.76 -1068.95,2392.72 -2393.42,2392.72l-4786.84,0c-1324.29,0 -2393.07,-1068.95 -2393.07,-2392.72l1324.47,-8200.91c-1754.72,-1132.7 -2920.08,-3111.5 -2920.08,-5361.26Z" style="fill:#007dc3;"/></g></svg>