<?xml version="1.0" standalone="no"?><!DOCTYPE svg PUBLIC "-//W3C//DTD SVG 1.1//EN" "http://www.w3.org/Graphics/SVG/1.1/DTD/svg11.dtd"><svg width="100%" height="100%" viewBox="0 0 81392 81392" version="1.1" xmlns="http://www.w3.org/2000/svg" xmlns:xlink="http://www.w3.org/1999/xlink" xml:space="preserve" style="fill-rule:evenodd;clip-rule:evenodd;stroke-linejoin:round;stroke-miterlimit:1.41421;"><g id="Page 13"><path d="M8783.96,72606c0,3525.9 2856.26,6381.67 6382.52,6381.67l51058.4,0c3526.08,0 6382.87,-2855.77 6382.87,-6381.67l0,-31910.3c0,-3526.08 -2856.79,-6382.02 -6382.87,-6382.02l-38293.7,0l0,-11168.3c0,-7051.98 5712,-12764.2 12764.5,-12764.2c7052.5,0 12764.9,5712.25 12764.9,12764.2l0,797.445c0,2201.8 1787.1,3988.98 3988.48,3988.98c2201.73,0 3989.53,-1787.18 3989.53,-3988.98l0,-797.445c0,-11455.4 -9287.08,-20741.5 -20742.7,-20741.5c-11457.4,0 -20742.5,9286.09 -20742.5,20741.5l0,11168.3l-4786.67,0c-3526.25,0 -6382.52,2855.95 -6382.52,6382.02l0,31910.3l-0.176,0ZM34313.3,51864.4c0,-3525.9 2856.09,-6381.85 6382.34,-6381.85c3526.25,0 6382.16,2855.95 6382.16,6381.85c0,2249.92 -1165.06,4228.52 -2919.66,5361.2c0,0 623.447,3766.14 1324.52,8200.82c0,1323.75 -1068.99,2392.69 -2393.51,2392.69l-4787.02,0c-1324.34,0 -2393.16,-1068.94 -2393.16,-2392.69l1324.52,-8200.82c-1754.78,-1132.68 -2920.19,-3111.46 -2920.19,-5361.2Z" style="fill:#007dc3;"/></g></svg>