<?xml version="1.0" standalone="no"?><!DOCTYPE svg PUBLIC "-//W3C//DTD SVG 1.1//EN" "http://www.w3.org/Graphics/SVG/1.1/DTD/svg11.dtd"><svg width="100%" height="100%" viewBox="0 0 19100 4517" version="1.1" xmlns="http://www.w3.org/2000/svg" xmlns:xlink="http://www.w3.org/1999/xlink" xml:space="preserve" style="fill-rule:evenodd;clip-rule:evenodd;stroke-linejoin:round;stroke-miterlimit:1.41421;"><g><path d="M6837.5,2659.24c-45.708,-247.859 -273.392,-409.988 -521.358,-409.988c-268.246,0 -490.996,141.633 -546.575,409.988l1067.93,0ZM7692.67,3190.58l-1938.34,0c0,374.471 197.429,577.05 577.05,577.05c197.321,0 338.846,-65.883 440.242,-237.988l885.529,0c-146.675,612.134 -728.767,890.68 -1320.95,890.68c-860.1,0 -1502.92,-485.842 -1502.92,-1381.46c0,-865.575 592.179,-1386.72 1437.36,-1386.72c900.875,0 1422.02,556.663 1422.02,1442.19l0,96.246Z" style="fill:none;stroke-width:4.17px;stroke:#007dc3;"/><path d="M9314.17,4374.83l-921.263,0l0,-1837.05l-460.308,0l0,-759.133l460.308,0l0,-779.304l921.263,0l0,779.304l453.871,0l0,759.133l-453.871,0l0,1837.05Z" style="fill:none;stroke-width:4.17px;stroke:#007dc3;"/><rect x="12613.9" y="1601.06" width="920.829" height="2773.76" style="fill:none;stroke-width:4.17px;stroke:#007dc3;"/><path d="M15382.7,4363.54l-921.262,0l0,-1747.13l-458.7,0l0,-759.241l458.7,0l0,-135.625c0,-359.338 10.3,-622.434 263.096,-910.85c228.008,-268.246 556.875,-414.921 905.916,-414.921c141.846,0 268.138,25.212 394.746,90.879l0,794.65c-106.116,-45.6 -202.362,-86.054 -323.821,-86.054c-237.775,0 -318.675,141.741 -318.675,435.2l0,226.721l550.113,0l0,759.241l-550.113,0l0,1747.13Z" style="fill:none;stroke-width:4.17px;stroke:#007dc3;"/><path d="M18139.4,2660.95c-45.388,-248.075 -272.859,-409.879 -520.934,-409.879c-268.671,0 -491.1,141.742 -546.575,409.879l1067.51,0ZM18995,3192.51l-1938.55,0c0,374.363 197.533,576.725 576.942,576.725c197.537,0 339.166,-65.666 440.566,-237.879l885.421,0c-146.567,612.458 -728.875,890.788 -1320.84,890.788c-860.1,0 -1502.92,-485.738 -1502.92,-1381.57c0,-865.467 591.962,-1386.61 1437.15,-1386.61c900.875,0 1422.24,556.663 1422.24,1442.3l0,96.246Z" style="fill:none;stroke-width:4.17px;stroke:#007dc3;"/><path d="M13072.5,112.413c-313.845,0 -568.679,254.616 -568.679,568.679c0,313.954 254.833,568.57 568.679,568.57c314.059,0 568.68,-254.616 568.68,-568.57c-0.001,-314.063 -254.621,-568.68 -568.68,-568.68l0,0.001Z" style="fill:none;stroke-width:4.17px;stroke:#007dc3;"/><path d="M669.796,738.496l931.562,0l738.425,1945.2l781.988,-1945.2l941.108,0l550.225,3639.12l-945.937,-0.001l-265.563,-2094.56l-9.658,0l-873.513,2094.56l-376.508,-0.001l-834.992,-2094.56l-9.658,0l-304.083,2094.56l-941.109,-0.001l617.713,-3639.12l0,0Z" style="fill:none;stroke-width:4.17px;stroke:#007dc3;"/><path d="M11118.4,3558.18l1152.7,0l0,813.963l-2113.77,0l0,-3697.7l961.067,0l0,2883.74Z" style="fill:none;stroke-width:4.17px;stroke:#007dc3;"/></g></svg>