<?xml version="1.0" standalone="no"?><!DOCTYPE svg PUBLIC "-//W3C//DTD SVG 1.1//EN" "http://www.w3.org/Graphics/SVG/1.1/DTD/svg11.dtd"><svg width="100%" height="100%" viewBox="0 0 4584 1084" version="1.1" xmlns="http://www.w3.org/2000/svg" xmlns:xlink="http://www.w3.org/1999/xlink" xml:space="preserve" style="fill-rule:evenodd;clip-rule:evenodd;stroke-linejoin:round;stroke-miterlimit:1.41421;"><g><path d="M1641,638.217c-10.97,-59.486 -65.614,-98.397 -125.126,-98.397c-64.379,0 -117.839,33.992 -131.178,98.397l256.304,0ZM1846.24,765.738l-465.201,0c0,89.873 47.383,138.492 138.492,138.492c47.357,0 81.323,-15.812 105.658,-57.117l212.527,0c-35.202,146.912 -174.904,213.763 -317.027,213.763c-206.424,0 -360.701,-116.602 -360.701,-331.55c0,-207.738 142.123,-332.813 344.967,-332.813c216.21,0 341.285,133.599 341.285,346.126l0,23.099Z" style="fill:#007dc3;fill-rule:nonzero;"/><path d="M2235.4,1049.96l-221.103,0l0,-440.892l-110.474,0l0,-182.192l110.474,0l0,-187.033l221.103,0l0,187.033l108.929,0l0,182.192l-108.929,0l0,440.892Z" style="fill:#007dc3;fill-rule:nonzero;"/><rect x="3027.33" y="384.255" width="220.999" height="665.702" style="fill:#007dc3;fill-rule:nonzero;"/><path d="M3691.85,1047.25l-221.103,0l0,-419.312l-110.088,0l0,-182.218l110.088,0l0,-32.55c0,-86.241 2.472,-149.384 63.143,-218.604c54.722,-64.379 133.65,-99.581 217.42,-99.581c34.043,0 64.353,6.051 94.739,21.811l0,190.716c-25.468,-10.944 -48.567,-20.653 -77.717,-20.653c-57.066,0 -76.482,34.018 -76.482,104.448l0,54.413l132.027,0l0,182.218l-132.027,0l0,419.312Z" style="fill:#007dc3;fill-rule:nonzero;"/><path d="M4353.46,638.629c-10.893,-59.538 -65.486,-98.371 -125.024,-98.371c-64.481,0 -117.864,34.018 -131.178,98.371l256.202,0ZM4558.8,766.202l-465.253,0c0,89.847 47.408,138.414 138.466,138.414c47.409,0 81.4,-15.76 105.736,-57.091l212.501,0c-35.176,146.99 -174.93,213.789 -317.001,213.789c-206.424,0 -360.701,-116.577 -360.701,-331.576c0,-207.712 142.071,-332.787 344.915,-332.787c216.21,0 341.337,133.599 341.337,346.152l0,23.099Z" style="fill:#007dc3;fill-rule:nonzero;"/><path d="M3137.39,26.979c-75.323,0 -136.483,61.108 -136.483,136.483c0,75.349 61.16,136.457 136.483,136.457c75.374,0 136.483,-61.108 136.483,-136.457c0,-75.375 -61.109,-136.483 -136.483,-136.483Z" style="fill:#007dc3;fill-rule:nonzero;"/><path d="M160.751,177.239l223.575,0l177.222,466.849l187.677,-466.849l225.866,0l132.054,873.388l-227.025,0l-63.735,-502.695l-2.318,0l-209.643,502.695l-90.362,0l-200.398,-502.695l-2.318,0l-72.98,502.695l-225.866,0l148.251,-873.388Z" style="fill:#007dc3;fill-rule:nonzero;"/><path d="M2668.41,853.963l276.649,0l0,195.351l-507.305,0l0,-887.448l230.656,0l0,692.097Z" style="fill:#007dc3;fill-rule:nonzero;"/></g></svg>