<?xml version="1.0" standalone="no"?><!DOCTYPE svg PUBLIC "-//W3C//DTD SVG 1.1//EN" "http://www.w3.org/Graphics/SVG/1.1/DTD/svg11.dtd"><svg width="100%" height="100%" viewBox="0 0 81392 81392" version="1.1" xmlns="http://www.w3.org/2000/svg" xmlns:xlink="http://www.w3.org/1999/xlink" xml:space="preserve" style="fill-rule:evenodd;clip-rule:evenodd;stroke-linejoin:round;stroke-miterlimit:1.41421;"><g id="Page 3"><g id="Layer 1"><g><path d="M33753.5,55355c-11914.1,0 -21608.3,-9690.83 -21608.3,-21604.9c0,-11914.8 9694.24,-21604.9 21608.3,-21604.9c11914.8,0 21604.9,9690.15 21604.9,21604.9c0,11914.1 -9690.15,21604.9 -21604.9,21604.9M33753.5,3221.59c-16861.4,0 -30531.9,13666.5 -30531.9,30528.5c0,16861.4 13670.6,30528.5 30531.9,30528.5c16862,0 30528.5,-13667.2 30528.5,-30528.5c0,-16862 -13666.5,-30528.5 -30528.5,-30528.5" style="fill:#007dc3;fill-rule:nonzero;"/><path d="M49558.9,55863.4l6307.93,-6304.53l22303.3,22302.6l-6308.61,6308.61l-22302.6,-22306.7Z" style="fill:#007dc3;"/></g></g></g></svg>