<?xml version="1.0" standalone="no"?><!DOCTYPE svg PUBLIC "-//W3C//DTD SVG 1.1//EN" "http://www.w3.org/Graphics/SVG/1.1/DTD/svg11.dtd"><svg width="100%" height="100%" viewBox="0 0 19534 19534" version="1.1" xmlns="http://www.w3.org/2000/svg" xmlns:xlink="http://www.w3.org/1999/xlink" xml:space="preserve" style="fill-rule:evenodd;clip-rule:evenodd;stroke-linejoin:round;stroke-miterlimit:1.41421;"><path id="Layer 1" d="M11307.8,15527.5l-3082.32,0l594.45,-3470.01c-399.029,-293.366 -662.634,-762.785 -662.634,-1293.46c0,-885.296 724.047,-1609.34 1609.19,-1609.34c885.454,0 1609.82,724.048 1609.82,1609.34c0,530.674 -263.605,1000.09 -662.634,1293.46l594.134,3470.01ZM6459.48,3992.16c0,-1091.9 887.973,-1979.87 1979.4,-1979.87l2655.58,0c1091.42,0 1979.4,887.974 1979.4,1979.87l0,2375.75l-6614.37,0l0,-2375.75l0,0ZM14623,6367.91l0,-2375.75c0,-1946.02 -1582.89,-3528.9 -3528.59,-3528.9l-2655.58,0c-1945.7,0 -3528.59,1582.89 -3528.59,3528.9l0,2375.75l-2114.19,0l0,12702.2l13941.1,0l0,-12702.2l-2114.19,0l0,0Z" style="fill:#007dc3;fill-rule:nonzero;"/></svg>