<?xml version="1.0" standalone="no"?><!DOCTYPE svg PUBLIC "-//W3C//DTD SVG 1.1//EN" "http://www.w3.org/Graphics/SVG/1.1/DTD/svg11.dtd"><svg width="100%" height="100%" viewBox="0 0 1125 1125" version="1.1" xmlns="http://www.w3.org/2000/svg" xmlns:xlink="http://www.w3.org/1999/xlink" xml:space="preserve" style="fill-rule:evenodd;clip-rule:evenodd;stroke-linejoin:round;stroke-miterlimit:1.41421;"><g id="Layer1"><g id="Layer 1"><path d="M382.504,469.861c0,0 -22.368,71.822 -95.37,63.586c-72.991,-8.245 -109.492,-88.313 -120.096,-141.295c0,0 -10.595,-8.246 -10.595,24.727c0,32.972 -31.793,23.547 -28.255,-5.887c3.528,-29.435 29.425,-44.747 29.425,-44.747c0,0 12.963,-30.614 18.85,-30.614c0,0 -3.538,-40.028 29.434,-89.482c0,0 11.774,-30.604 9.415,-57.69c0,0 -2.348,-7.066 8.246,-12.953c0,0 9.415,-40.029 28.255,-51.803c18.84,-11.773 21.199,-32.972 21.199,-32.972c0,0 10.594,-17.661 56.51,-35.322c0,0 70.643,-43.567 166.023,0c0,0 31.783,7.067 42.377,14.133c0,0 2.359,-28.255 17.671,-38.85c15.302,-10.604 30.614,12.943 38.849,50.624l7.067,9.415c0,0 122.455,-9.415 158.946,-2.349c36.501,7.066 102.436,28.255 125.994,96.539c0,0 29.424,-27.076 54.161,-5.877c24.717,21.189 38.85,62.397 -10.604,84.765c0,0 -9.415,2.359 -24.727,1.18c0,0 9.425,37.68 -41.199,93.021c-50.633,55.341 -180.155,110.681 -203.702,129.511c-23.548,18.841 -55.341,35.332 -18.84,62.408c0,0 8.245,3.528 5.897,20.019c0,0 72.991,71.822 90.652,129.512c17.66,57.699 15.312,114.21 -31.783,175.437c0,0 -7.077,-4.707 1.169,69.464c0,0 102.446,4.717 144.824,37.68c42.387,32.962 27.085,82.416 -28.256,84.775l-14.122,-4.707c0,0 -12.963,17.66 -36.511,23.547c-23.547,5.887 -28.255,12.943 -63.576,12.943c-35.322,0 -239.014,7.077 -296.704,-22.368c-57.699,-29.424 28.255,-87.124 84.765,-89.483c0,0 15.312,-3.528 15.312,-16.481c0,0 -2.358,-28.255 10.595,-52.982c0,0 8.245,-23.548 -12.953,-23.548c-21.189,0 -55.341,-40.039 -55.341,-40.039c0,0 -5.887,15.312 -45.916,12.954c0,0 -36.501,16.481 -43.567,21.198c-7.056,4.708 -44.747,2.349 -57.69,-8.245c-12.953,-10.595 -5.897,-21.189 54.162,-38.85c60.048,-17.66 78.888,-32.972 78.888,-32.972c0,0 8.236,-71.822 20.01,-87.124c0,0 4.707,-21.189 21.188,-40.039c0,0 1.19,-18.84 11.784,-31.783c0,0 14.123,-30.625 8.246,-43.568c0,0 -9.425,0 -11.784,-11.773c-2.349,-11.784 16.492,-15.312 16.492,-15.312c0,0 1.169,-60.049 -43.568,-77.709c-44.746,-17.661 -77.709,-25.897 -81.247,-30.614l0,0Z" style="fill:#000;fill-rule:nonzero;"/><path d="M336.588,270.876c0,0 38.86,-17.661 55.341,-36.491c16.482,-18.84 36.501,-10.605 54.162,-35.332c0,0 0,-4.707 21.188,-10.594c0,0 12.954,-12.953 28.266,-15.302l40.029,-37.68c0,0 0,-34.152 2.348,-42.388c0,0 -11.774,-12.953 -36.49,-11.773c0,0 -56.521,-43.567 -136.589,-20.02c-80.057,23.548 -71.822,32.973 -78.878,47.095c0,0 -32.972,21.199 -48.284,64.766c0,0 -12.944,10.595 -16.482,68.284c0,0 -43.557,69.463 -36.501,148.362c7.067,78.888 56.521,102.426 64.766,107.144c0,0 9.415,-3.539 -15.312,-35.322c0,0 -8.245,-23.558 -18.84,-29.434c0,0 0,-28.265 -7.066,-28.265c-7.066,0 1.179,-34.142 -5.887,-41.209c-7.056,-7.066 10.605,-32.972 10.605,-32.972c0,0 1.179,-5.877 1.179,-20.01c0,-14.132 17.661,-51.802 28.255,-64.756c0,0 0,22.369 11.774,1.17c0,0 1.169,8.245 22.368,17.66c0,0 23.548,11.784 25.896,29.435c2.359,17.66 32.973,9.425 41.219,80.068c0,0 4.707,10.594 9.415,14.132c4.707,3.528 7.066,15.302 3.528,32.973c-3.528,17.65 10.604,47.095 -28.255,69.463c0,0 -30.604,7.067 -45.916,10.595c0,0 -30.614,0 -7.066,7.066c23.547,7.066 58.869,15.312 85.954,-37.68c0,0 17.661,-20.01 11.774,-65.935c0,0 0,-28.266 -11.774,-42.388c0,0 7.067,-15.302 -31.793,-70.643c0,0 -12.953,-20.019 -22.368,-32.962c-9.415,-12.954 1.179,-20.02 29.434,12.943l0,0Z" style="fill:#fefefe;fill-rule:nonzero;"/><path d="M349.542,297.961c0,0 61.217,-44.746 71.822,-55.34c10.594,-10.595 95.369,-54.162 113.03,-78.889c0,0 4.718,43.567 17.661,57.7c12.953,14.122 35.321,31.783 49.454,-10.605c14.132,-42.377 -1.18,-107.143 -1.18,-107.143c0,0 127.163,-11.774 162.485,-2.359c35.321,9.425 104.795,45.926 121.276,124.814c16.481,78.889 -30.614,120.097 -48.275,136.578c-17.66,16.482 -50.623,34.142 -69.463,48.275c-18.84,14.132 -34.152,10.594 -41.218,14.132c-7.067,3.528 -8.236,-10.594 -28.256,3.528c-20.009,14.133 -5.886,15.302 -34.141,2.359c-28.266,-12.953 -40.039,-2.359 -44.747,-2.359c-4.707,0 -5.887,2.359 -27.076,-18.84c-21.198,-21.188 -22.368,-11.773 -27.085,-11.773c-4.708,0 -2.349,-16.482 -14.123,-20.01c-11.784,-3.538 -23.558,7.067 -24.727,25.897c-1.179,18.84 4.708,43.567 30.614,58.868c25.896,15.312 21.189,15.312 37.67,15.312c16.481,0 44.747,-2.348 50.633,-3.528c0,0 5.887,2.349 -5.886,10.595c-11.774,8.235 -37.681,30.614 -28.266,56.51c0,0 11.784,10.604 -7.056,14.132c-18.84,3.529 -57.699,5.887 -75.36,21.199c0,0 -2.349,2.349 -3.528,-22.378c-1.18,-24.717 -4.718,-52.982 -87.134,-80.058c0,0 -34.142,-2.358 -49.444,-20.019c0,0 11.763,-55.341 -9.425,-89.493c0,0 0,-28.255 -28.255,-67.105l0,0Z" style="fill:#fefefe;fill-rule:nonzero;"/><path d="M568.546,415.699c0,0 -15.312,-7.066 -18.84,-7.066c-3.538,0 -17.661,9.425 -3.538,24.727c14.133,15.312 11.784,9.425 11.784,9.425l10.594,-27.086Z" style="fill:#fefefe;fill-rule:nonzero;"/><path d="M577.961,419.227l-12.953,28.266c0,0 25.906,21.198 51.803,17.66l-5.877,-21.199c0,0 -11.784,0 -32.973,-24.727Z" style="fill:#fefefe;fill-rule:nonzero;"/><path d="M623.877,439.247l5.897,24.727c0,0 28.245,1.179 44.726,-4.708c16.492,-5.887 -17.661,-18.84 -27.065,-23.547c-9.425,-4.708 -23.558,3.528 -23.558,3.528l0,0Z" style="fill:#fefefe;fill-rule:nonzero;"/><path d="M585.028,561.702l-28.256,7.067c0,0 -9.425,11.773 27.076,0c0,0 8.236,-5.887 1.18,-7.067Z" style="fill:#fefefe;fill-rule:nonzero;"/><path d="M897.043,215.545c0,0 42.388,-24.727 38.849,24.727c0,0 22.379,10.594 9.426,-38.86c0,0 -27.086,-31.793 -44.747,-11.773c-17.661,20.009 -9.425,21.188 -3.528,25.906l0,0Z" style="fill:#fefefe;fill-rule:nonzero;"/><path d="M562.649,48.343c0,0 16.492,20.019 16.492,32.973c0,0 -1.18,-37.681 -16.492,-32.973Z" style="fill:#fefefe;fill-rule:nonzero;"/><path d="M586.207,114.288l-2.359,5.877l7.066,3.538c0,0 2.359,-10.594 -4.707,-9.415l0,0Z" style="fill:#fefefe;fill-rule:nonzero;"/><path d="M574.433,146.071c0,0 -10.604,2.349 -3.538,5.887c7.066,3.528 3.538,-5.887 3.538,-5.887Z" style="fill:#fefefe;fill-rule:nonzero;"/><path d="M592.094,143.713c0,0 -5.887,2.358 2.348,7.066c8.246,4.707 -2.348,-7.066 -2.348,-7.066Z" style="fill:#fefefe;fill-rule:nonzero;"/><path d="M594.442,161.383c0,0 -8.235,5.887 0,11.774c8.246,5.887 3.529,-11.774 0,-11.774Z" style="fill:#fefefe;fill-rule:nonzero;"/><path d="M563.829,87.203c0.915,-3.62 -7.057,21.188 0,35.321c7.066,14.132 -1.18,-30.614 0,-35.321l0,0Z" style="fill:#fefefe;fill-rule:nonzero;"/><path d="M547.347,66.004c0,0 -16.481,9.425 -5.887,14.132c10.595,4.708 5.887,-14.132 5.887,-14.132Z" style="fill:#fefefe;fill-rule:nonzero;"/><path d="M249.464,273.234c0,0 -20.019,22.369 0,29.435c20.01,7.066 0,-29.435 0,-29.435l0,0Z" style="fill:#fefefe;fill-rule:nonzero;"/><path d="M244.747,313.273c0,0 -12.943,30.604 -1.18,25.897c11.774,-4.708 1.18,-25.897 1.18,-25.897Z" style="fill:#fefefe;fill-rule:nonzero;"/><path d="M231.804,373.312c0,0 -10.605,20.019 -5.897,31.793c4.717,11.774 8.245,3.528 5.897,-31.793Z" style="fill:#fefefe;fill-rule:nonzero;"/><path d="M261.238,408.633c-0.844,-4.158 -16.491,17.661 -9.425,17.661c7.066,0 11.774,-5.887 9.425,-17.661Z" style="fill:#fefefe;fill-rule:nonzero;"/><path d="M257.7,436.888c0,0 -17.661,28.265 11.774,45.926c0,0 2.359,-1.179 -4.708,-11.774c-7.066,-10.594 -8.235,-24.727 -4.707,-25.906c3.528,-1.18 0,-12.943 -2.359,-8.246l0,0Z" style="fill:#fefefe;fill-rule:nonzero;"/><path d="M284.786,443.954c0,0 -9.425,3.539 -4.718,7.067c4.718,3.538 4.718,-7.067 4.718,-7.067Z" style="fill:#fefefe;fill-rule:nonzero;"/><path d="M336.588,410.992c0,0 3.539,43.567 -3.528,54.161c-7.066,10.605 11.774,0 11.774,-21.199c0,-21.188 -8.246,-32.962 -8.246,-32.962Z" style="fill:#fefefe;fill-rule:nonzero;"/><path d="M315.4,401.567c0,0 -20.02,17.66 -5.897,17.66c14.132,0 5.897,-17.66 5.897,-17.66Z" style="fill:#fefefe;fill-rule:nonzero;"/><path d="M304.795,392.152c0,0 -5.887,-21.189 -16.481,-15.302c-10.594,5.877 0,2.349 16.481,15.302Z" style="fill:#fefefe;fill-rule:nonzero;"/><path d="M290.673,390.972c0,0 -10.605,5.887 -1.18,8.246c9.415,2.349 1.18,-8.246 1.18,-8.246Z" style="fill:#fefefe;fill-rule:nonzero;"/><path d="M320.097,366.245c0,0 -8.236,-2.348 -5.877,11.784c2.349,14.123 7.056,20.01 15.302,16.482c8.246,-3.539 -9.425,-28.266 -9.425,-28.266Z" style="fill:#fefefe;fill-rule:nonzero;"/><path d="M295.38,316.802c0,0 1.18,31.783 10.595,38.849c9.425,7.066 -1.18,-30.614 -10.595,-38.849Z" style="fill:#fefefe;fill-rule:nonzero;"/><path d="M524.979,598.203c0,0 44.737,-5.887 60.049,-17.661c15.301,-11.773 48.274,-2.358 48.274,-2.358c0,0 80.058,87.134 90.662,141.295c10.595,54.152 5.887,114.21 -38.859,147.173c0,0 1.169,67.114 7.066,78.888c5.887,11.774 8.246,14.133 34.142,14.133c25.906,0 189.56,34.142 121.276,89.482c0,0 -12.953,5.887 -27.076,-8.245c0,0 3.528,-49.444 -77.719,-60.049c-81.237,-10.594 -103.605,-10.594 -103.605,-10.594l-4.718,-56.52c0,0 -8.235,-28.255 -14.122,0c-5.887,28.265 4.707,67.114 4.707,67.114c0,0 114.21,3.539 150.711,28.266c36.501,24.716 49.454,45.915 0,63.576c0,0 -4.708,0 -7.066,-17.661c-2.349,-17.66 -23.548,-31.793 -31.784,-31.793c-8.245,0 -9.425,3.538 7.057,14.133c16.481,10.594 17.66,34.142 10.604,40.028c-7.066,5.887 -35.331,1.18 -38.859,2.359c-3.528,1.17 -16.492,1.17 -17.661,-22.368c-1.18,-23.558 -22.368,-15.312 -17.661,-5.897c4.708,9.425 24.727,11.774 12.953,29.435c-11.784,17.66 -202.523,0 -257.854,-16.472c-55.34,-16.491 41.209,-64.766 74.171,-62.407c0,0 14.133,-3.528 20.02,-31.793c0,0 2.358,-45.916 11.773,-56.52c0,0 4.708,-23.548 -22.378,-32.963c0,0 -49.444,-24.727 -55.331,-56.52c0,0 -11.773,-23.548 5.887,-30.604c0,0 4.708,-71.832 23.548,-103.615c0,0 31.793,-62.407 31.793,-91.842l0,0Z" style="fill:#fefefe;fill-rule:nonzero;"/><path d="M436.666,818.377c0,0 -47.096,24.727 -101.257,38.86c0,0 -29.434,16.481 -2.349,8.245c0,0 11.774,-2.359 2.349,7.056c-9.415,9.415 55.341,12.954 96.549,-40.028c0,0 11.774,-17.661 4.708,-14.133l0,0Z" style="fill:#fefefe;fill-rule:nonzero;"/><path d="M496.724,717.12c0,0 -5.897,54.162 2.349,80.068c0,0 -38.86,24.727 -1.18,57.69c37.681,32.972 80.068,48.274 121.276,-8.236c0,0 27.086,-23.547 -3.528,-78.888c0,0 -15.312,-30.624 -16.491,-48.275c-1.179,-17.66 -9.415,-32.972 -9.415,7.056c0,40.039 15.302,69.474 16.481,77.72c1.18,8.245 5.887,34.142 -18.84,45.915c0,0 -9.415,5.887 -9.415,-18.84c0,-24.727 -9.415,0 -8.245,16.492c1.179,16.481 4.707,21.188 -20.01,15.301c-24.727,-5.886 -21.199,-5.886 -21.199,-5.886c0,0 -8.235,-5.887 8.236,-8.246c0,0 0,-15.302 3.538,-27.076c3.528,-11.774 -11.774,-4.717 -11.774,11.774c0,16.481 -3.528,24.727 -3.528,24.727c0,0 -35.321,-22.378 -21.199,-51.813l14.133,-4.707c0,0 8.235,-9.415 0,-20.02c-8.246,-10.594 1.169,-41.208 -14.133,-40.029c0,0 7.067,-30.613 -7.056,-24.727l0,0Z" style="fill:#000;fill-rule:nonzero;"/></g></g></svg>