<?xml version="1.0" standalone="no"?><!DOCTYPE svg PUBLIC "-//W3C//DTD SVG 1.1//EN" "http://www.w3.org/Graphics/SVG/1.1/DTD/svg11.dtd"><svg width="100%" height="100%" viewBox="0 0 1125 1125" version="1.1" xmlns="http://www.w3.org/2000/svg" xmlns:xlink="http://www.w3.org/1999/xlink" xml:space="preserve" style="fill-rule:evenodd;clip-rule:evenodd;stroke-linejoin:round;stroke-miterlimit:1.41421;"><g id="Layer1"><g id="Layer 1"><g id="Layer 11"><path d="M377.58,27.672l40.805,0c4.494,0.051 9.05,0.102 13.564,0l1.604,0c15.566,5.577 32,8.069 47.617,13.503c8.518,-6.752 19.662,-9.949 30.499,-7.15c10.816,4.382 18.609,14.637 21.449,25.76c0.868,5.515 -2.145,13.002 4.433,16.127c13.84,9.458 29.518,16.598 45.952,20.132c26.801,3.381 53.838,4.852 80.629,8.386c11.215,2.318 22.368,4.984 33.634,7.16c14.545,2.543 26.985,11.357 41.377,14.493c14.463,2.329 26.689,10.878 39.15,17.956c13.605,8.662 23.41,21.889 34.288,33.573c15.188,14.412 25.841,33.226 32.358,53.021c4.821,11.94 9.927,23.911 13.155,36.412c1.634,27.792 6.302,56.963 -2.696,84.071c-5.495,11.991 -12.329,23.329 -18.763,34.83c-17.037,25.585 -42.684,44.89 -71.15,56.125c-18.947,7.344 -39.712,6.302 -59.057,12.022c-17.098,5.25 -35.034,8.835 -50.426,18.364c-4.219,3.044 -10.163,4.658 -12.829,9.397c-2.503,15.086 -0.286,31.919 -9.019,45.401c-6.118,5.659 -13.697,11.644 -22.266,11.991c-10.429,-5.107 -11.552,-18.701 -12.931,-28.783c-8.079,9.857 -11.532,22.154 -11.072,34.789c5.638,2.758 11.245,5.536 16.792,8.447c-1.001,5.423 -2.013,10.847 -2.973,16.291c12.247,-3.217 24.738,-6.659 37.516,-5.975c3.35,-25.167 8.661,-50.048 10.919,-75.369c0.643,-4.065 0.745,-9.008 4.218,-11.786c9.407,-2.053 19.161,0.224 28.66,-1.502c9.489,-1.409 18.906,1.318 28.405,0.848c23.359,-0.776 46.719,-2.492 70.098,-1.941c12.615,0.174 25.239,0.399 37.863,-0.296c26.546,-2.094 53.082,4.014 79.608,0.072c20.611,-1.216 41.264,2.144 61.927,1.46c7.854,0.623 16.475,-1.205 23.91,2.033c-0.939,14.136 -5.015,27.812 -6.608,41.877c-1.491,11.623 -4.331,23.42 -1.828,35.105c3.064,7.701 10.653,12.9 13.308,20.836c1.665,15.056 -2.461,29.897 -4.923,44.645c0.725,16.782 -9.049,34.115 -0.378,50.12c-10.857,14.718 -22.746,30.805 -24.268,49.691c-3.687,27.199 -0.245,54.614 -0.071,81.915c0.092,20.98 2.145,42.153 -1.543,62.959c-2.696,5.771 -7.64,12.206 -15.157,9.877c-64.144,-0.807 -128.195,-7.293 -192.379,-4.954c-18.957,-0.909 -38.507,-3.963 -57.168,0.838c-6.536,4.473 -10.918,11.388 -16.883,16.536c-5.74,6.414 -16.557,11.674 -13.626,22.256c0.664,15.934 3.197,31.725 4.004,47.638c21.736,-1.481 43.491,0.878 65.022,3.769c22.43,2.727 44.982,6.71 66.054,15.147c9.979,4.484 18.63,11.399 27.383,17.864c8.845,7.599 13.564,18.886 16.782,29.825c1.45,8.631 -1.379,17.425 -3.524,25.708c-2.86,4.729 -8.641,6.404 -13.023,9.366c14.545,-1.562 29.242,-1.94 43.807,-0.847c8.58,-0.961 13.187,6.782 15.934,13.472c-6.077,1.91 -12.4,3.115 -18.783,2.237c-11.307,-0.634 -22.624,0.153 -33.921,0.316c-9.08,0.041 -17.363,-5.383 -26.576,-4.044c-7.998,1.103 -15.628,4.412 -23.758,4.667c-12.992,0.041 -25.861,-2.196 -38.465,-5.076c-7.855,-2.584 -12.186,6.404 -18.038,9.948c-17.517,11.685 -39.283,10.899 -59.169,14.412c-54.206,6.782 -108.891,4.433 -163.362,4.637c-19.937,-0.868 -39.773,-3.411 -59.394,-7.068c-20.519,-3.993 -41.816,-3.401 -61.896,-9.57c-9.509,-2.809 -19.611,-2.257 -29.386,-3.238c-0.48,-3.82 -1.307,-7.671 -0.929,-11.532c3.963,-6.169 12.349,-7.915 15.934,-14.391c7.446,-13.278 15.78,-26.393 27.761,-36.045c12.267,-9.356 25.944,-16.546 39.252,-24.227c8.529,-3.616 17.875,-4.77 26.781,-7.201c4.535,-1.675 12.134,-1.502 13.942,-7.272c2.451,-8.274 2.707,-17.017 4.647,-25.392c1.931,-10.132 5.005,-21.02 1.563,-31.122c-6.904,-6.7 -16.812,-9.223 -24.278,-15.229c-10.459,-6.23 -18.089,-15.791 -25.423,-25.259c-19.059,14.126 -39.589,26.097 -59.772,38.547c-13.88,6.803 -28.997,11.236 -44.318,13.33c-17.986,1.858 -35.33,-5.169 -51.1,-12.972c-5.035,-2.543 -10.663,0.143 -15.934,-0.644c-3.095,-1.113 -5.076,-3.983 -7.466,-6.056c7.691,-4.576 16.23,-7.181 24.329,-10.817c25.3,-18.14 46.688,-44.819 78.76,-50.671c20.428,-5.025 41.458,1.685 61.988,-3.044c-6.016,-52.54 3.882,-106.674 27.823,-153.75c6.823,-11.195 14.463,-21.94 19.58,-34.074c8.508,-19.181 20.99,-37.505 22.256,-59.087c1.042,-9.826 -2.941,-18.835 -5.301,-28.078c-2.543,-6.088 6.159,-8.539 9.111,-12.349c-3.146,-14.126 -7.068,-28.548 -15.934,-40.263c-6.322,-7.272 -16.71,-6.823 -25.014,-10.52c-20.928,-9.806 -44.9,-6.088 -66.952,-11.021c-15.566,-4.842 -31.949,-7.63 -46.003,-16.343c-4.74,12.594 -6.956,26.148 -13.37,38.047c-6.588,7.058 -14.596,12.829 -22.788,17.864c-17.22,7.007 -36.382,5.955 -54.327,2.462c-11.297,-0.225 -20.551,-7.007 -30.131,-12.052c-11.379,-5.577 -19.152,-16.261 -30.387,-22.052c-5.148,-2.605 -10.204,-5.894 -12.951,-11.185c-6.578,-11.633 -16.445,-22.021 -18.293,-35.758c-1.573,-8.733 -5.465,-16.772 -7.793,-25.239c-3.504,-31.847 -5.148,-64.491 1.644,-96.041c3.759,-16.772 5.924,-34.227 13.932,-49.671c7.967,-19.764 17.956,-38.659 24.983,-58.801c4.075,-10.623 11.205,-19.652 17.772,-28.814c5.802,-8.59 6.241,-19.447 9.397,-29.109c11.317,-34.003 28.977,-66.891 56.595,-90.424c10.255,-7.078 17.599,-17.772 28.589,-23.891c23.88,-13.666 49.252,-25.259 76.41,-30.58l0,0Z" style="fill:#030404;fill-rule:nonzero;"/><path d="M418.385,27.672l13.564,0c-4.514,0.102 -9.07,0.051 -13.564,0Z" style="fill:#fff;fill-rule:nonzero;"/><path d="M371.81,41.369c42.316,-3.105 87.145,2.696 123.19,26.525c23.287,16.68 47.596,33.134 75.746,40.223c14.861,5.566 30.928,3.85 46.412,5.607c10.847,0.582 21.633,2.676 32.531,2.115c14.351,-1.624 26.996,7.016 41.101,7.701c15.821,0.429 27.69,13.186 43.236,15.167c10.06,1.328 17.68,8.335 26.372,12.86c18.957,9.019 28.783,29.079 43.287,43.276c7.466,6.139 8.069,16.771 14.187,24.003c5.515,7.415 6.792,16.863 10.438,25.198c5.036,11.398 8.008,23.543 12.441,35.156c2.625,20.469 2.155,41.519 -2.247,61.733c-2.339,11.01 -8.416,20.663 -13.615,30.499c-6.823,12.859 -18.018,22.44 -27.649,33.072c-11.379,12.972 -28.068,18.978 -43.44,25.668c-16.506,3.605 -33.052,7.231 -49.599,10.714c-3.146,-5.566 -4.964,-13.39 -11.909,-15.27c-5.21,2.881 -9.673,7.232 -15.873,8.12c-11.123,3.933 -17.905,14.668 -28.262,20.071c-7.384,6.098 -14.984,13.472 -25.238,13.288c-9.469,-2.155 -18.232,-7.568 -28.221,-7.16c-7.16,1.011 -12.737,6.864 -20.009,7.385c-10.194,-1.788 -19.039,-8.958 -29.611,-9.101c-7.098,1.726 -11.899,8.182 -18.742,10.49c-6.149,-0.46 -11.562,-3.953 -17.537,-5.199c-7.896,-2.594 -17.834,-1.072 -23.768,-7.936c-9.785,-10.132 -25.566,-10.898 -35.105,-21.552c-7.263,-4.014 -5.649,-12.92 -8.417,-19.386c-4.024,-0.439 -7.885,-0.623 -11.868,-0.878c-2.033,3.861 -4.239,7.63 -6.976,11.041c-5.015,6.139 -6.65,14.187 -8.692,21.654c9.294,0.827 14.708,-8.58 23.287,-9.785c5.975,2.165 7.834,9.213 12.339,13.196c6.312,2.819 13.768,1.461 20.152,4.096c4.943,3.81 7.211,10.469 12.931,13.421c8.722,2.063 18.507,0.378 26.372,5.495c5.556,2.789 11.143,7.252 17.874,5.087c6.976,-2.36 13.36,-6.2 20.193,-8.917c8.376,-2.38 14.77,4.852 22.542,6.455c12.451,5.996 23.523,-9.325 35.831,-4.698c4.872,1.726 9.713,3.534 14.524,5.413c-0.644,1.205 -1.267,2.411 -1.879,3.626c-7.937,2.237 -17.129,3.258 -22.471,10.357c-5.516,5.801 -7.834,13.687 -12.338,20.193c-7.273,10.99 -6.18,24.912 -7.722,37.424c-22.583,5.485 -46.239,5.147 -68.444,12.205c-4.371,-19.835 -10.009,-43.95 -29.896,-53.868c-12.941,-3.258 -24.85,-10.888 -38.496,-10.939c-25.882,-0.439 -50.845,-7.814 -75.624,-14.504c-9.029,-3.585 -17.68,-8.12 -26.28,-12.624c2.941,-22.113 2.043,-44.492 3.585,-66.697c-3.616,-14.882 -5.812,-30.499 -13.636,-43.91c-5.638,-10.244 -8.498,-21.653 -13.002,-32.388c-5.832,-10.725 -14.381,-19.631 -20.714,-30.029c-2.839,-3.942 -5.372,-9.111 -10.408,-10.612c-3.769,-0.153 -7.333,1.491 -10.908,2.451c9.407,13.738 21.868,25.106 31.438,38.721c3.289,8.008 5.281,16.506 8.621,24.503c3.932,7.794 9.499,15.015 11.072,23.809c2.032,13.779 7.17,27.159 6.444,41.274c-2.155,23.247 -2.553,46.647 -6.363,69.731c-2.911,12.154 -6.067,26.709 -18.242,32.97c-16.536,12.267 -38.517,8.284 -57.443,5.189c-20.489,-6.823 -35.912,-22.532 -53.889,-33.757c-6.833,-6.935 -11.694,-15.566 -17.68,-23.206c-6.996,-9.305 -6.486,-21.705 -10.347,-32.296c-3.288,-8.56 -3.952,-17.875 -3.544,-26.955c0.797,-17.456 -3.381,-34.921 -0.521,-52.285c1.624,-14.871 5.649,-29.304 10.133,-43.532c1.726,-5.76 1.715,-11.94 4.065,-17.527c4.678,-11.307 11.981,-21.612 14.279,-33.828c2.972,-12.257 9.723,-23.084 14.248,-34.748c4.556,-13.115 12.236,-24.769 18.365,-37.128c4.759,-11.317 6.465,-23.624 11.082,-34.982c3.146,-12.737 14.003,-21.072 18.967,-32.869c3.82,-11.347 14.606,-17.312 22.634,-25.269c8.171,-6.404 15.362,-13.881 22.787,-21.092c10.674,-7.589 22.982,-12.542 34.84,-17.925c11.848,-7.528 25.657,-10.847 39.079,-14.33l0,0Z" style="fill:#fff;fill-rule:nonzero;"/><path d="M492.987,44.27c4.893,0.296 10.378,-0.736 14.606,2.318c7.487,5.526 14.014,12.288 19.223,19.979c-12.104,-5.894 -24.483,-12.369 -33.829,-22.297Z" style="fill:#fff;fill-rule:nonzero;"/><path d="M401.358,62.41c7.886,-8.999 19.264,-15.577 31.48,-15.454c6.394,0.439 11.531,4.678 15.576,9.295c-8.437,0.439 -16.945,-1.492 -25.31,-0.378c-12.318,4.872 -23.022,14.013 -29.631,25.534c-2.574,4.382 -5.985,8.233 -10.142,11.174c2.564,-11.705 9.989,-21.582 18.027,-30.171l0,0Z" style="fill:#030404;fill-rule:nonzero;"/><path d="M456.095,152.159c11.082,3.054 23.349,2.697 33.369,8.835c12.032,10.327 10.969,28.16 14.82,42.214c-2.114,0.583 -4.208,1.175 -6.312,1.767c-3.156,-10.418 -4.464,-21.367 -8.273,-31.591c-3.677,-12.533 -23.298,-13.248 -30.274,-3.657c-2.84,8.386 -5.25,16.955 -9.07,24.983c10.04,1.972 14.319,12.533 13.543,21.807c-2.145,4.208 1.971,12.604 -3.728,14.841c-6.823,2.656 -13.85,5.097 -21.224,5.628c-4.239,-3.126 -10.97,-6.905 -9.683,-13.217c0.102,-8.631 4.422,-16.158 7.15,-24.105c3.043,-9.581 3.38,-19.989 8.181,-29.007c3.391,-6.425 7.568,-12.39 11.501,-18.498l0,0Z" style="fill:#030404;fill-rule:nonzero;"/><path d="M547.928,169.012c5.924,0.439 11.91,0.746 17.874,1.236c1.195,11.685 9.693,22.43 7.048,34.503c-1.328,-0.072 -3.983,-0.184 -5.311,-0.256c-2.278,-7.221 -3.463,-14.861 -6.741,-21.735c-1.921,-3.411 -7.068,-2.819 -9.418,-0.204c-3.922,6.138 -6.884,12.798 -10.54,19.069c3.717,5.924 7.66,12.042 8.998,19.029c0.255,3.697 -1.787,7.037 -2.921,10.428c-7.681,-0.827 -15.168,-2.666 -22.481,-5.035c0.255,-13.953 2.451,-29.09 11.654,-40.192c4.167,-5.465 8.028,-11.133 11.838,-16.843l0,0Z" style="fill:#030404;fill-rule:nonzero;"/><path d="M680.086,255.861c15.025,-0.613 30.774,1.195 44.114,8.621c5.638,2.972 12.583,5.822 14.442,12.593c3.289,8.406 -1.184,16.935 -5.188,24.095c-11.46,12.522 -30.05,11.603 -45.524,11.971c-10.755,-1.849 -21.868,-3.32 -32.071,-7.303c-4.913,-5.005 -8.938,-11.338 -11.481,-17.844c1.062,-10.582 5.485,-21.276 12.655,-29.161c7.538,-1.665 15.403,-1.787 23.053,-2.972l0,0Z" style="fill:#030404;fill-rule:nonzero;"/><path d="M235.035,261.479c6.833,6.741 13.513,13.819 18.365,22.164c4.473,8.14 6.833,18.089 15.157,23.349c7.119,5.424 9.979,14.31 15.484,21.092c9.428,12.328 8.223,29.007 15.791,42.204c4.596,9.672 10.561,19.038 12.298,29.794c1.358,17.7 -4.188,35.37 -1.216,53.02c1.175,9.121 1.318,18.457 -0.817,27.465c-3.217,9.806 -11.603,16.802 -18.211,24.289c-9.06,8.682 -22.399,5.996 -33.645,6.506c-7.088,0.153 -13.636,-2.972 -20.152,-5.27c-5.679,-2.145 -11.746,-3.871 -16.393,-7.977c-8.978,-8.028 -13.667,-19.407 -18.181,-30.244c-6.21,-6.751 -15.239,-11.858 -18.201,-21.112c-2.85,-12.022 -3.871,-24.37 -6.292,-36.484c-5.955,-25.862 -3.075,-52.928 3.595,-78.341c4.566,-17.312 9.193,-34.829 17.16,-50.957c2.114,-5.852 8.518,-7.609 13.155,-10.97c3.34,-2.461 7.211,-4.003 11.266,-4.913c-0.786,11.798 -5.352,22.757 -8.1,34.115c1.502,0.592 3.013,1.195 4.515,1.798c1.9,-4.668 3.922,-9.264 6.067,-13.83c2.819,1.593 5.577,3.258 8.355,4.943c0.715,16.445 -2.227,33.482 2.094,49.599c4.668,-11.572 3.902,-24.482 3.442,-36.678c-1.195,-11.521 -9.152,-21.01 -9.754,-32.613c-0.194,-4.085 2.471,-7.497 4.218,-10.949l0,0Z" style="fill:#030404;fill-rule:nonzero;"/><path d="M709.124,290.527c2.472,0.541 4.944,1.083 7.405,1.624c-0.623,1.532 -1.246,3.054 -1.849,4.586c-1.828,-0.582 -3.636,-1.164 -5.454,-1.726c-0.03,-1.123 -0.071,-3.371 -0.102,-4.484l0,0Z" style="fill:#fff;fill-rule:nonzero;"/><path d="M247.996,340.657c2.309,-0.735 3.085,0.051 2.35,2.349c-2.309,0.746 -3.085,-0.051 -2.35,-2.349l0,0Z" style="fill:#fff;fill-rule:nonzero;"/><path d="M251.735,384.689c2.747,8.488 6.434,19.621 -0.868,26.648c-0.838,-8.886 -0.041,-17.803 0.868,-26.648Z" style="fill:#fff;fill-rule:nonzero;"/><path d="M285.778,389.285c5.689,6.926 9.744,15.046 11.776,23.778c-4.953,-7.343 -9.58,-15.116 -11.776,-23.778Z" style="fill:#fff;fill-rule:nonzero;"/><path d="M289.761,424.442c4.065,6.761 7.303,14.034 8.335,21.96c-1.359,0.051 -4.076,0.184 -5.455,0.245c-0.97,-7.405 -1.991,-14.81 -2.88,-22.205l0,0Z" style="fill:#fff;fill-rule:nonzero;"/><path d="M665.5,453.378c3.565,-3.105 7.651,-5.505 11.859,-7.63c0.633,1.093 1.879,3.279 2.502,4.361c-4.77,1.195 -9.529,2.39 -14.361,3.269Z" style="fill:#fff;fill-rule:nonzero;"/><path d="M263.859,451.243c1.777,-0.746 3.534,-1.491 5.301,-2.206c-0.307,3.238 -0.613,6.476 -0.93,9.734c-1.471,-2.503 -2.911,-5.025 -4.371,-7.528Z" style="fill:#fff;fill-rule:nonzero;"/><path d="M267.301,471.079c4.913,-0.511 9.866,-0.961 14.8,-1.328c-1.277,3.564 -2.605,7.109 -3.933,10.653c-4.524,-1.931 -8.365,-5.066 -10.867,-9.325Z" style="fill:#fff;fill-rule:nonzero;"/><path d="M831.885,484.602c18.385,-4.362 37.005,1.532 55.554,1.123c16.301,1.083 32.439,-3.381 48.74,-1.746c11.277,1.399 22.614,1.92 33.992,2.431c-0.97,6.904 -1.47,13.891 -1.144,20.887c1.91,17.108 -2.155,34.125 -3.145,51.182c-11.001,2.819 -24.259,5.546 -30.377,16.25c-3.799,10.255 -4.882,21.225 -5.781,32.052c1.195,4.616 5.128,7.895 7.232,12.083c0.041,7.282 -6.057,12.491 -7.313,19.416c-0.256,4.433 0.316,8.876 1.021,13.248c-3.687,5.24 -9.54,9.55 -11.072,16.015c0.153,10.02 -1.695,21.572 6.088,29.457c6.884,5.179 16.199,5.332 24.258,7.569c-0.378,8.702 -0.041,17.445 0.081,26.168c-0.01,13.666 -3.952,27.046 -3.677,40.712c3.453,25.831 5.403,51.897 4.515,77.994c-0.225,4.3 0,8.753 -1.542,12.869c-4.729,2.268 -10.276,1.012 -15.25,0.991c-19.335,-0.899 -38.639,-3.575 -58.025,-2.798c-7.507,0.03 -15.004,0.143 -22.379,-1.308c-16.975,-2.727 -34.216,-1.246 -51.274,-0.194c-19.396,-0.255 -39.037,1.41 -58.178,-2.615c-29.151,-0.418 -58.332,2.227 -87.492,0.92c-9.316,0.01 -18.529,1.654 -27.741,2.768c-6.65,-19.182 -3.443,-39.702 -4.249,-59.527c2.941,-23.094 6.332,-46.167 7.17,-69.475c1.583,-5.894 2.512,-13.472 8.62,-16.343c6.772,-3.768 15.035,-4.698 20.724,-10.377c5.751,-4.821 5.986,-13.176 7.589,-19.876c1.287,-5.618 -2.4,-11.082 -1.236,-16.669c4.546,-9.438 10.5,-18.61 12.073,-29.13c-0.419,-7.242 -2.38,-15.148 -8.069,-20.091c-4.014,-3.473 -8.212,-6.711 -12.257,-10.112c4.597,-6.782 11.011,-14.116 8.355,-22.91c-4.432,-7.272 -11.878,-12.154 -17.945,-17.915c4.065,-26.158 8.528,-52.326 10.03,-78.81c13.114,-1.104 26.198,-4.515 39.446,-3.003c14.197,2.175 28.2,-2.411 42.418,-1.471c18.232,0.419 36.495,-0.041 54.747,-0.164c11.797,0.011 23.706,1.9 35.493,0.399l0,0Z" style="fill:#fff;fill-rule:nonzero;"/><path d="M611.254,508.288c0.807,-3.585 2.993,-6.558 5.107,-9.479c-0.041,4.065 -0.255,8.141 -0.643,12.196c-1.563,-0.807 -3.054,-1.706 -4.464,-2.717l0,0Z" style="fill:#fff;fill-rule:nonzero;"/><path d="M622.316,522.741c3.503,-7.069 6.854,-14.269 11.521,-20.653c-0.807,7.374 -3.605,14.269 -6.312,21.102c-1.297,-0.112 -3.902,-0.337 -5.209,-0.449l0,0Z" style="fill:#fff;fill-rule:nonzero;"/><path d="M942.4,578.366c6.455,-3.014 12.542,-7.549 20.039,-7.273c5.577,-1.225 14.668,-0.388 16.159,6.517c1.501,9.1 0.459,18.415 -1.032,27.465c-10.939,-1.941 -22.001,-0.981 -32.96,0.092c-2.737,-8.825 -0.378,-17.926 -2.206,-26.801l0,0Z" style="fill:#fff;fill-rule:nonzero;"/><path d="M511.352,582.849c25.106,-8.855 52.04,-6.945 78.208,-7.823c2.135,11.643 -4.412,22.419 -5.761,33.777c4.77,-3.105 10.725,-5.383 13.605,-10.602c4.484,-8.202 9.397,-17.364 18.865,-20.714c7.896,-0.991 15.955,-2.053 23.901,-0.94c7.732,2.891 16.72,8.744 15.392,18.437c-5.944,10.816 -21.316,15.78 -23.144,28.721c6.965,-0.061 13.891,-2.86 20.897,-2.155c7.344,3.503 16.618,9.141 14.77,18.906c0.541,6.047 -0.603,14.238 -7.16,16.771c-7.334,2.462 -15.229,2.074 -22.726,3.841c0.081,2.053 0.173,4.116 0.255,6.199c5.832,4.117 12.073,7.681 17.721,12.063c6.629,5.311 1.798,16.281 -4.606,19.692c-6.67,2.258 -12.645,-2.042 -18.263,-4.912c-6.782,11.756 -8.099,25.892 -15.882,37.107c-6.435,9.948 -13.748,19.294 -21.174,28.527c-12.522,10.602 -27.935,19.049 -44.788,18.967c-14.902,2.513 -29.487,-1.031 -42.929,-7.241c-19.703,-7.058 -28.691,-28.752 -30.969,-48.077c-1.052,-0.409 -3.125,-1.216 -4.177,-1.624c-13.748,23.768 3.524,52.367 25.249,63.755c14.636,6.149 29.722,12.859 46.136,10.449c19.917,0.97 37.23,-9.877 53.092,-20.53c7.15,-4.606 13.247,-10.531 19.151,-16.598c0.245,12.267 -1.93,24.514 -1.021,36.791c0.418,9.397 -2.717,18.538 -2.533,27.945c0.551,13.421 0.306,27.006 2.594,40.284c0.643,4.606 4.821,8.539 9.652,7.466c16.169,-2.747 32.593,-2.87 48.935,-1.767c-7.252,9.989 -18.518,16.475 -24.37,27.568c-0.756,5.954 -0.174,11.94 0.806,17.843c3.024,18.906 2.145,38.139 4.331,57.127c9.805,-5.005 20.765,-8.611 31.929,-6.823c11.971,2.196 24.197,3.003 36.004,6.098c10.183,2.87 21.051,2.206 31.06,5.893c14.954,4.933 31.245,8.12 43.501,18.712c8.468,6.986 17.599,13.595 23.819,22.838c5.23,11.276 4.311,26.138 -5.362,34.901c-11.593,-0.429 -13.717,-14.779 -18.007,-22.736c-3.075,-12.532 -17.016,-16.026 -26.761,-21.991c-0.102,7.702 4.985,13.646 9.54,19.335c7.385,8.897 9.091,20.632 12.002,31.469c-14.249,1.533 -28.507,0.338 -42.644,-1.511c-0.163,-11.93 1.318,-25.443 -6.312,-35.524c-24.084,-29.386 -63.234,-41.571 -100.208,-41.571c-14.933,-1.174 -31.081,0.838 -44.87,-5.791c-8.58,-18.508 -6.18,-39.61 -11.164,-59.026c-2.308,-0.041 -4.586,-0.072 -6.884,-0.103c-4.443,18.1 -3.197,36.852 -3.064,55.319c0.214,5.076 -0.388,10.439 1.144,15.382c11.623,1.818 23.573,-0.092 35.197,2.155c15.137,2.309 30.621,1.727 45.646,4.842c26.341,6.2 51.795,18.436 70.711,38.108c5.791,6.312 7.047,15.811 6.23,23.931c-7.977,10.561 -21.459,15.924 -34.135,18.15c-4.361,1.369 -11.102,1.389 -13.268,-3.575c-4.841,-9.713 -5.699,-21.888 -15.004,-28.874c-8.457,-6.445 -17.588,-12.002 -26.801,-17.303c-1.451,11.409 7.813,20.152 16.107,26.434c8.11,6.026 10.837,16.291 13.442,25.565c-17.824,3.146 -36.015,5.557 -54.144,5.005c-6.517,-17.088 -13.319,-37.791 -32.368,-44.563c-1.43,10.285 6.823,17.884 11.49,26.168c3.739,5.423 5.741,11.736 8.233,17.772c-27.874,3.36 -55.942,1.164 -83.928,2.216c-39.946,0.429 -79.188,-7.905 -118.675,-12.695c-7.783,-1.962 -17.405,-1.481 -22.767,-8.437c-0.174,-3.851 1.174,-7.548 2.87,-10.929c8.049,-13.748 20.193,-24.595 34.257,-31.929c11.174,-5.444 21.286,-13.37 33.563,-16.281c11.062,-3.738 22.869,-3.554 34.391,-2.972c6.281,-10.04 5.045,-22.379 6.322,-33.706c1.246,-18.477 6.843,-36.545 5.607,-55.186c-1.807,-7.742 -11.705,-7.844 -17.241,-11.266c-10.183,-6.394 -19.866,-13.686 -28.966,-21.551c-4.995,-5.556 -7.926,-12.665 -11.951,-18.916c-3.605,-9.611 -4.095,-20.03 -5.413,-30.131c-1.573,-11.92 15.638,-15.679 14.984,-27.782c-1.032,-22.266 4.474,-43.94 6.138,-66.002c1.104,-9.581 -5.188,-19.243 -0.081,-28.395c4.637,-20.07 18.987,-35.514 29.007,-52.939c8.478,-18.385 14.494,-37.883 17.149,-57.994c1.42,-4.014 0.378,-11.236 5.618,-13.044l0,0Z" style="fill:#fff;fill-rule:nonzero;"/><path d="M962.94,618.261c5.761,-1.706 7.752,6.006 10.398,9.53c-0.48,4.003 -2.064,7.762 -3.35,11.541c-9.898,-1.276 -22.032,3.79 -30.469,-3.38c2.288,-10.705 13.217,-16.7 23.421,-17.691Z" style="fill:#fff;fill-rule:nonzero;"/><path d="M552.106,656.104c11.439,-12.022 23.206,-23.778 35.84,-34.554c1.502,4.678 3.871,9.162 4.535,14.075c-6.588,6.731 -15.147,11.143 -21.684,17.946c-10.04,9.039 -16.843,22.736 -30.836,26.3c-8.365,-17.854 -24.952,-35.493 -17.966,-56.564c12.001,6.761 14.024,21.939 22.491,31.745c1.787,2.104 5.556,3.636 7.62,1.052l0,0Z" style="fill:#030404;fill-rule:nonzero;"/><path d="M943.83,652.539c7.732,-0.276 15.484,-0.613 23.114,-2.073c2.574,6.373 4.719,12.849 6.976,19.355c-5.311,7.997 -9.918,16.444 -15.372,24.36c-9.509,-3.922 -19.611,-5.975 -29.549,-8.457c1.369,-9.642 2.584,-19.815 8.284,-28.007c1.664,-2.185 3.391,-5.27 6.547,-5.178l0,0Z" style="fill:#fff;fill-rule:nonzero;"/><path d="M435.34,791.642c2.135,-6.475 4.586,-12.859 7.017,-19.222c0.603,7.139 0.072,14.33 -1.604,21.286c-1.807,-0.685 -3.605,-1.369 -5.413,-2.064Z" style="fill:#fff;fill-rule:nonzero;"/><path d="M346.775,869.605c16.771,-11.47 37.873,-4.954 56.616,-5.056c-2.176,5.158 -4.045,10.429 -4.964,15.995c-0.654,5.128 -5.822,7.589 -9.826,9.857c-25.718,11.858 -51.008,27.036 -80.067,28.435c-9.652,2.349 -17.997,-3.381 -25.994,-7.599c9.131,-1.389 22.838,-4.331 23.369,-15.77c12.982,-9.591 26.495,-18.447 40.866,-25.862l0,0Z" style="fill:#fff;fill-rule:nonzero;"/></g></g></g></svg>