<?xml version="1.0" standalone="no"?><!DOCTYPE svg PUBLIC "-//W3C//DTD SVG 1.1//EN" "http://www.w3.org/Graphics/SVG/1.1/DTD/svg11.dtd"><svg width="100%" height="100%" viewBox="0 0 19534 19534" version="1.1" xmlns="http://www.w3.org/2000/svg" xmlns:xlink="http://www.w3.org/1999/xlink" xml:space="preserve" style="fill-rule:evenodd;clip-rule:evenodd;stroke-linejoin:round;stroke-miterlimit:1.41421;"><path id="Shape" d="M17388.4,2526.04c-571.629,-190.542 -4096.67,-381.084 -7621.71,-381.084c-3525.04,0 -7050.08,190.542 -7621.71,381.084c-1524.34,476.358 -1905.43,3810.85 -1905.43,7240.62c0,3429.77 381.088,6764.25 1905.43,7240.62c571.625,190.541 4096.66,381.083 7621.71,381.083c3525.04,0 7050.08,-190.542 7621.71,-381.083c1524.34,-476.359 1905.42,-3810.86 1905.42,-7240.62c0,-3429.76 -381.083,-6764.25 -1905.42,-7240.62l0,0ZM7861.25,14053.9l0,-8574.42l5716.29,4287.21l-5716.29,4287.21l0,0Z" style="fill:#007dc3;"/></svg>