<?xml version="1.0" encoding="utf-8"?>
<!-- Generator: Adobe Illustrator 20.1.0, SVG Export Plug-In . SVG Version: 6.00 Build 0)  -->
<svg version="1.1" id="Layer_1" xmlns="http://www.w3.org/2000/svg" xmlns:xlink="http://www.w3.org/1999/xlink" x="0px" y="0px"
	 width="20px" height="18px" viewBox="0 0 20 18" style="enable-background:new 0 0 20 18;" xml:space="preserve">
<style type="text/css">
	.st0{fill:#FFFFFF;}
</style>
<path class="st0" d="M12.1,18H12c-0.1,0-0.2-0.2-0.2-0.3v-3.3H4.2c-2.3,0-4.2-1.8-4.2-4.1V4.1C0,1.8,1.9,0,4.2,0h11.6
	C18.1,0,20,1.8,20,4.1v6.3c0,2.2-1.8,4-4.1,4.1l-3.6,3.5C12.3,18,12.2,18,12.1,18z M4.2,0.6c-1.9,0-3.5,1.5-3.6,3.4v6.3
	c0,1.9,1.6,3.5,3.6,3.4h8c0.2,0,0.3,0.1,0.3,0.3c0,0,0,0,0,0V17l3.1-3.1c0.1-0.1,0.1-0.1,0.2-0.1c1.9,0,3.5-1.5,3.6-3.4c0,0,0,0,0,0
	V4.1c0-1.9-1.6-3.5-3.6-3.4c0,0,0,0-0.1,0H4.2z"/>
<path class="st0" d="M6.3,8.5C5.5,8.5,5,7.9,5,7.2s0.6-1.3,1.4-1.3c0.7,0,1.3,0.6,1.3,1.3C7.6,8,7,8.5,6.3,8.5z M6.3,6.5
	c-0.4,0-0.7,0.3-0.7,0.7c0,0.4,0.3,0.7,0.7,0.7C6.7,7.9,7,7.6,7,7.2c0,0,0,0,0,0C7,6.8,6.7,6.5,6.3,6.5C6.3,6.5,6.3,6.5,6.3,6.5
	L6.3,6.5z"/>
<path class="st0" d="M10,8.5c-0.7,0-1.3-0.6-1.3-1.4c0-0.7,0.6-1.3,1.4-1.3c0.7,0,1.3,0.6,1.3,1.3C11.4,7.9,10.7,8.5,10,8.5
	C10,8.5,10,8.5,10,8.5z M10,6.5c-0.4,0-0.7,0.3-0.7,0.7C9.3,7.7,9.6,8,10,7.9c0.4,0,0.7-0.3,0.7-0.7C10.7,6.8,10.4,6.5,10,6.5
	C10,6.5,10,6.5,10,6.5L10,6.5z"/>
<path class="st0" d="M13.7,8.5c-0.7,0-1.3-0.6-1.3-1.4c0-0.7,0.6-1.3,1.4-1.3c0.7,0,1.3,0.6,1.3,1.3C15.1,8,14.5,8.5,13.7,8.5z
	 M13.7,6.5c-0.4,0-0.7,0.3-0.7,0.7c0,0.4,0.3,0.7,0.7,0.7c0.4,0,0.7-0.3,0.7-0.7C14.5,6.8,14.2,6.5,13.7,6.5
	C13.8,6.5,13.7,6.5,13.7,6.5L13.7,6.5z"/>
<title>ico_chat</title>
</svg>
