<?xml version="1.0" encoding="utf-8"?>
<!-- Generator: Adobe Illustrator 20.1.0, SVG Export Plug-In . SVG Version: 6.00 Build 0)  -->
<svg version="1.1" id="Layer_1" xmlns="http://www.w3.org/2000/svg" xmlns:xlink="http://www.w3.org/1999/xlink" x="0px" y="0px"
	 width="22.5px" height="21px" viewBox="0 0 22.5 21" style="enable-background:new 0 0 22.5 21;" xml:space="preserve">
<style type="text/css">
	.st0{fill:#2377C5;}
</style>
<path class="st0" d="M13.7,21c-0.2,0-0.4-0.2-0.4-0.4c0,0,0,0,0,0v-3.8H4.7c-2.6,0-4.7-2.1-4.7-4.7V4.7C0,2.1,2.1,0,4.7,0h13.1
	c2.6,0,4.7,2.1,4.7,4.7v7.3c0,2.5-2,4.6-4.6,4.7l-4,4.1C13.9,21,13.8,21,13.7,21z M4.7,0.7c-2.2,0-4,1.8-4,4v7.4c0,2.2,1.8,4,4,4
	h8.9c0.2,0,0.4,0.2,0.4,0.4v3.3l3.5-3.6c0.1-0.1,0.2-0.1,0.3-0.1c2.2,0,4-1.8,4-4V4.7c0-2.2-1.8-4-4-4L4.7,0.7z"/>
<path class="st0" d="M7.1,10c-0.9,0-1.5-0.7-1.5-1.5c0-0.9,0.7-1.5,1.5-1.5c0.9,0,1.5,0.7,1.5,1.5c0,0,0,0,0,0
	C8.6,9.3,7.9,10,7.1,10z M7.1,7.6c-0.5,0-0.8,0.4-0.8,0.8c0,0.5,0.4,0.8,0.8,0.8c0.5,0,0.8-0.4,0.8-0.8c0,0,0,0,0,0
	C7.9,8,7.5,7.6,7.1,7.6C7.1,7.6,7.1,7.6,7.1,7.6L7.1,7.6z"/>
<path class="st0" d="M11.2,10c-0.9,0-1.5-0.7-1.5-1.5s0.7-1.5,1.5-1.5s1.5,0.7,1.5,1.5c0,0,0,0,0,0C12.8,9.3,12.1,10,11.2,10z
	 M11.2,7.6c-0.5,0-0.8,0.4-0.8,0.8c0,0.5,0.4,0.8,0.8,0.8c0.5,0,0.8-0.4,0.8-0.8c0,0,0,0,0,0C12.1,8,11.7,7.6,11.2,7.6
	C11.2,7.6,11.2,7.6,11.2,7.6L11.2,7.6z"/>
<path class="st0" d="M15.4,10c-0.9,0-1.5-0.7-1.5-1.5c0-0.9,0.7-1.5,1.5-1.5c0.9,0,1.5,0.7,1.5,1.5c0,0,0,0,0,0
	C17,9.3,16.3,10,15.4,10z M15.4,7.6c-0.5,0-0.8,0.3-0.9,0.8c0,0.5,0.3,0.8,0.8,0.9c0.5,0,0.8-0.3,0.9-0.8c0,0,0,0,0,0
	C16.3,8,15.9,7.6,15.4,7.6L15.4,7.6z"/>
<title>ico_chat</title>
</svg>
