<?xml version="1.0" encoding="utf-8"?>
<!-- Generator: Adobe Illustrator 15.0.0, SVG Export Plug-In . SVG Version: 6.00 Build 0)  -->
<svg version="1.1" id="Layer_1" xmlns="http://www.w3.org/2000/svg" xmlns:xlink="http://www.w3.org/1999/xlink" x="0px" y="0px"
	 width="16px" height="16px" viewBox="298 388 16 16" enable-background="new 298 388 16 16" xml:space="preserve">
<title>ico_share</title>
<path fill="#2377C5" d="M304,388h-5.31c-0.381,0-0.69,0.309-0.69,0.69v14.62c0,0.382,0.309,0.69,0.69,0.69h14.62
	c0.382,0,0.69-0.309,0.69-0.69V398c0-0.381-0.309-0.69-0.69-0.69c-0.381,0-0.689,0.31-0.689,0.69v4.58h-13.24v-13.2H304
	c0.381,0,0.69-0.309,0.69-0.69C304.69,388.309,304.381,388,304,388z"/>
<path fill="#2377C5" d="M305.8,391.13h5v5c0,0.381,0.31,0.69,0.69,0.69s0.689-0.31,0.689-0.69v-5.69c0-0.381-0.309-0.69-0.689-0.69
	h-5.69c-0.381,0-0.69,0.309-0.69,0.69C305.11,390.821,305.419,391.13,305.8,391.13z"/>
<path fill="#2377C5" d="M311,389.95l-9.1,9.109c-0.276,0.276-0.276,0.725,0,1c0.276,0.276,0.724,0.276,1,0l9.1-9.129
	c0.276-0.276,0.276-0.724,0-1c-0.276-0.276-0.724-0.276-1,0l0,0"/>
</svg>
