<?xml version="1.0" encoding="utf-8"?>
<!-- Generator: Adobe Illustrator 20.1.0, SVG Export Plug-In . SVG Version: 6.00 Build 0)  -->
<svg version="1.1" id="Layer_1" xmlns="http://www.w3.org/2000/svg" xmlns:xlink="http://www.w3.org/1999/xlink" x="0px" y="0px"
	 width="16px" height="16px" viewBox="0 0 16 16" style="enable-background:new 0 0 16 16;" xml:space="preserve">
<style type="text/css">
	.st0{fill:#FFFFFF;}
</style>
<title>ico_share</title>
<path class="st0" d="M6,0H0.7C0.3,0,0,0.3,0,0.7v14.6C0,15.7,0.3,16,0.7,16h14.6c0.4,0,0.7-0.3,0.7-0.7V10c0-0.4-0.3-0.7-0.7-0.7
	c-0.4,0-0.7,0.3-0.7,0.7v4.6H1.4V1.4H6c0.4,0,0.7-0.3,0.7-0.7C6.7,0.3,6.4,0,6,0C6,0,6,0,6,0z"/>
<path class="st0" d="M7.8,3.1h5v5c0,0.4,0.3,0.7,0.7,0.7c0.4,0,0.7-0.3,0.7-0.7V2.4c0-0.4-0.3-0.7-0.7-0.7H7.8
	c-0.4,0-0.7,0.3-0.7,0.7S7.4,3.1,7.8,3.1L7.8,3.1z"/>
<path class="st0" d="M13,2l-9.1,9.1c-0.3,0.3-0.3,0.7,0,1s0.7,0.3,1,0L14,2.9c0.3-0.3,0.3-0.7,0-1S13.3,1.7,13,2L13,2"/>
</svg>
