<?xml version="1.0" encoding="utf-8"?>
<!-- Generator: Adobe Illustrator 20.1.0, SVG Export Plug-In . SVG Version: 6.00 Build 0)  -->
<svg version="1.1" id="hand_shake" xmlns="http://www.w3.org/2000/svg" xmlns:xlink="http://www.w3.org/1999/xlink" x="0px" y="0px" width="48px" height="48px"
	 viewBox="0 0 96 96" style="enable-background:new 0 0 96 96;" xml:space="preserve">
<style type="text/css">
	.st0{fill:#484848;}
</style>
<title>ico_together</title>
<path class="st0" d="M43.9,22.7c-11.3,0-16.6-10.7-16.7-10.9c-0.2-0.3-0.2-0.8,0-1.1c0.2-0.3,0.5-0.6,0.9-0.6
	c18.4-1.4,22.3,9.6,22.5,10.1c0.2,0.6-0.1,1.3-0.7,1.5l0,0C47.9,22.3,45.9,22.6,43.9,22.7z M30.3,12.4c2.1,3.2,7.8,9.8,17.6,7.5
	C46.5,17.4,42,12,30.3,12.4z"/>
<path class="st0" d="M56,22.7c-2,0-4.1-0.3-6-0.9c-0.6-0.2-1-0.9-0.8-1.5l0,0c0.2-0.5,4-11.5,22.4-10.1c0.4,0,0.7,0.3,0.9,0.6
	c0.2,0.3,0.2,0.8,0,1.1C72.5,11.9,67.2,22.7,56,22.7z M52,19.8c9.8,2.3,15.4-4.3,17.5-7.5C57.9,12,53.4,17.4,52,19.8z"/>
<path class="st0" d="M49.5,36.2c-0.7,0-1.2-0.5-1.2-1.2l0,0V21c0-0.7,0.5-1.2,1.2-1.2s1.2,0.5,1.2,1.2v14
	C50.7,35.7,50.2,36.2,49.5,36.2L49.5,36.2z"/>
<path class="st0" d="M15.3,68.8H3.2c-0.7,0-1.2-0.5-1.2-1.1l0,0C1.9,56.2,3.2,44.6,5.7,33.4c0.1-0.5,0.6-0.9,1.1-0.9
	c7.3-0.1,17.2,2.8,17.7,2.9c0.6,0.2,1,0.7,0.9,1.4c0,0.1-2.7,11.9-3.8,16.2s-5,14.7-5.2,15.1C16.3,68.4,15.8,68.7,15.3,68.8z
	 M4.3,66.4h10.2c0.9-2.5,3.9-10.6,4.8-14.1c0.9-3.6,2.8-12,3.5-15c-4.9-1.4-9.9-2.2-15-2.5C5.5,45.1,4.4,55.8,4.3,66.4L4.3,66.4z"/>
<path class="st0" d="M46.7,86c-1.7,0-3.3-0.6-4.7-1.6l0,0c-2-1.4-4-2.9-5.9-4.5c-3.1-2.4-6.9-5.5-9-7.1c-4.2-3.2-10-10.2-10.3-10.5
	c-0.4-0.5-0.4-1.2,0.1-1.7l0,0c0.5-0.4,1.2-0.3,1.7,0.1c0.1,0.1,5.9,7,9.9,10.1c2.2,1.6,5.8,4.5,9.1,7.1c2.4,1.9,4.9,3.8,5.4,4.2
	c0.1,0.1,0.2,0.1,0.4,0.2c2.6,1.8,5,1.5,7.4-0.7c0.5-0.4,1.2-0.4,1.7,0.1c0.4,0.5,0.4,1.1,0,1.6C50.9,85,48.8,85.9,46.7,86z"/>
<path class="st0" d="M56,84.8c-0.8,0-1.6-0.1-2.3-0.4c-2.3-0.8-10.6-8.2-12.3-9.7c-0.5-0.5-0.5-1.2,0-1.7c0.4-0.4,1.1-0.5,1.6-0.1
	c3.7,3.3,10.1,8.7,11.5,9.2c1,0.4,2,0.4,3-0.1c0.5-0.3,0.8-0.7,0.9-1.2c0.1-0.6,0.7-1.1,1.4-1c0.6,0.1,1.1,0.7,1,1.4v0.1
	c-0.2,1.2-1,2.2-2.1,2.8C57.9,84.6,57,84.8,56,84.8z"/>
<path class="st0" d="M62.5,82.6c-0.7,0-1.4-0.1-2.1-0.3c-2.2-0.8-10.6-10-13.1-12.8c-0.5-0.5-0.5-1.2,0-1.7s1.2-0.5,1.7,0
	c0,0,0,0.1,0.1,0.1c5,5.6,11,11.7,12.2,12.1c1.4,0.4,2.9,0.2,4.2-0.5c0.7-0.4,1.3-1.1,1.4-1.9c0.1-0.6,0.7-1.1,1.4-1
	c0.6,0.1,1.1,0.7,1,1.4l0,0c-0.3,1.5-1.2,2.8-2.6,3.5C65.3,82.2,64,82.6,62.5,82.6z"/>
<path class="st0" d="M69.3,78.5c-1.7,0-3.7-1.2-6-3.5c-2-2-9.3-9.9-9.7-10.2c-0.4-0.5-0.4-1.2,0.1-1.7c0.5-0.4,1.2-0.4,1.7,0.1l0,0
	c0.1,0.1,7.7,8.2,9.6,10.2c2.4,2.4,3.7,2.9,4.5,2.8c0.5,0,0.9-0.3,1.1-0.7c1.6-2.2-0.1-6-1.6-8c-1.7-2.2-13.1-14.8-18.9-19
	c-1.7,0.8-3.5,1.3-5.4,1.4c-1.1,1.9-4.2,6.7-8.2,6.6c-1.8,0.1-3.4-0.7-4.5-2.1c-1.1-1.6-1.2-3.8-0.3-6.9c1.5-5.1,6-9.7,11.5-11.7
	c5.9-2.2,9-1.2,13,0.5c3.1,1.3,9.6,4,12.2,5.1l0.5,0.2c5.2-3.2,11.4-4.5,17.4-3.7c0.4,0,0.7,0.3,0.9,0.7c2.2,4.7,3.9,9.5,5.3,14.5
	c1.2,4.8,1.7,9.7,1.5,14.7c0,0.6-0.5,1.1-1.1,1.1c-14.6,0.7-14.7,0.4-15.1-0.4c-0.3-0.6-6.5-17.3-7.2-19.5c-0.3-0.8-1.6-3.7-2.3-5.1
	l-0.6-0.3c-2.6-1.1-9.1-3.8-12.2-5.1c-3.6-1.5-6.1-2.4-11.3-0.5c-4.8,1.8-8.8,5.8-10.1,10.2c-0.7,2.3-0.7,4,0,4.9
	c0.7,0.8,1.7,1.1,2.7,1.1c2.8,0.1,5.5-4.3,6.4-6c0.2-0.5,0.7-0.7,1.2-0.6c1.9,0.3,4.5-0.9,5.4-1.4c0.4-0.2,0.9-0.2,1.2,0
	c6.2,4,18.5,17.8,20.1,19.9c1.8,2.4,4.2,7.4,1.6,10.8c-0.7,1-1.7,1.6-2.9,1.7L69.3,78.5z M79.6,66.8c1.7,0.1,7-0.1,12-0.3
	c0.1-4.3-0.4-8.7-1.5-12.9c-1.2-4.6-2.8-9.1-4.8-13.4c-5.1-0.5-10.3,0.6-14.8,3.2c0.7,1.4,1.8,3.9,2.1,4.8
	C73.5,50.5,78.5,63.8,79.6,66.8z"/>
<path class="st0" d="M38.5,40.8c-0.1,0-0.2,0-0.3,0c-4.3-1-4.4-1-14.1-1.5c-0.7,0-1.2-0.6-1.1-1.2c0-0.7,0.6-1.2,1.2-1.1
	c9.7,0.5,10,0.5,14.4,1.5c0.6,0.1,1.1,0.8,0.9,1.4C39.5,40.5,39,40.8,38.5,40.8z"/>
<path class="st0" d="M71.8,70.4c-0.4,0-0.6-0.2-0.8-0.5c-0.4-0.5-0.3-1.3,0.2-1.7c0.2-0.2,0.5-0.2,0.7-0.2c0.7-0.2,3.5-1.6,5.7-2.7
	c0.6-0.3,1.3-0.1,1.6,0.5s0.1,1.3-0.5,1.6C74.2,69.7,72.6,70.4,71.8,70.4z M72.9,68.4L72.9,68.4z M72.9,68.4L72.9,68.4z M72.9,68.4
	L72.9,68.4z M72.9,68.4L72.9,68.4z M72.9,68.4L72.9,68.4z M72.9,68.4L72.9,68.4z M72.9,68.4L72.9,68.4z M72.9,68.4L72.9,68.4z"/>
</svg>
