<?xml version="1.0" encoding="utf-8"?>
<!-- Generator: Adobe Illustrator 20.1.0, SVG Export Plug-In . SVG Version: 6.00 Build 0)  -->
<svg version="1.1" id="레이어_1" xmlns="http://www.w3.org/2000/svg" xmlns:xlink="http://www.w3.org/1999/xlink" x="0px"
	 y="0px" width="48px" height="48px" viewBox="0 0 96 96" style="enable-background:new 0 0 96 96;" xml:space="preserve">
<style type="text/css">
	.st0{fill:#484848;}
</style>
<title>ico_best</title>
<path class="st0" d="M57.4,86L57.4,86c-0.7,0-1.2-0.4-1.3-1l-9.8-35.8l-35.3-9.9c-0.7-0.2-1.2-1-0.9-1.7c0.1-0.4,0.4-0.7,0.8-0.9
	L87.6,5.6c0.5-0.2,1.1-0.1,1.5,0.3c0.4,0.4,0.5,1,0.3,1.5L58.7,85.1C58.5,85.6,58,85.9,57.4,86z M15.6,37.8l32.2,9
	c0.5,0.1,0.9,0.5,1,1l8.9,32.6l28-70.9L15.6,37.8z"/>
<path class="st0" d="M47.4,49.5c-0.4,0-0.7-0.1-1-0.4c-0.6-0.5-0.6-1.4,0-2c0,0,0,0,0,0l40-40.2c0.5-0.5,1.4-0.5,1.9,0c0,0,0,0,0,0
	c0.6,0.5,0.6,1.4,0,2c0,0,0,0,0,0l-40,40.2C48.1,49.3,47.7,49.4,47.4,49.5z"/>
<path class="st0" d="M50.7,61.4L50.7,61.4l-12.4-0.8c-0.6,0-1.1-0.5-1.3-1.1l-2.6-13c-0.1-0.7,0.3-1.5,1.1-1.6
	c0.7-0.2,1.5,0.3,1.6,1.1c0,0,0,0,0,0l2.4,12l11.2,0.7c0.8,0,1.4,0.7,1.3,1.4C52.1,60.9,51.4,61.5,50.7,61.4L50.7,61.4z"/>
<path class="st0" d="M7.9,67.1c-0.4,0-0.7-0.1-1-0.4c-0.6-0.5-0.6-1.4,0-2c0,0,0,0,0,0L18.5,53c0.5-0.5,1.4-0.5,1.9,0c0,0,0,0,0,0
	c0.6,0.5,0.6,1.4,0,2c0,0,0,0,0,0L8.8,66.7C8.6,66.9,8.2,67.1,7.9,67.1z"/>
<path class="st0" d="M19.5,71c-0.4,0-0.7-0.1-1-0.4c-0.6-0.5-0.6-1.4,0-2c0,0,0,0,0,0l7.8-7.8c0.5-0.5,1.4-0.5,1.9,0c0,0,0,0,0,0
	c0.6,0.5,0.6,1.4,0,2c0,0,0,0,0,0l-7.7,7.8C20.2,70.8,19.8,71,19.5,71z"/>
<path class="st0" d="M31,74.9c-0.4,0-0.7-0.1-1-0.4c-0.6-0.5-0.6-1.4,0-2c0,0,0,0,0,0l3.9-3.9c0.5-0.5,1.4-0.5,1.9,0c0,0,0,0,0,0
	c0.6,0.5,0.6,1.4,0,2c0,0,0,0,0,0L32,74.5C31.7,74.8,31.4,74.9,31,74.9z"/>
<path class="st0" d="M20.7,85.3c-0.4,0-0.7-0.1-1-0.4c-0.6-0.5-0.6-1.4,0-2c0,0,0,0,0,0l3.9-3.9c0.5-0.5,1.4-0.5,1.9,0c0,0,0,0,0,0
	c0.6,0.5,0.6,1.4,0,2c0,0,0,0,0,0l-3.9,3.9C21.4,85.1,21.1,85.3,20.7,85.3z"/>
<path class="st0" d="M31,90.5c-0.4,0-0.7-0.1-1-0.4c-0.6-0.5-0.6-1.4,0-2c0,0,0,0,0,0l11.6-11.7c0.5-0.5,1.4-0.5,1.9,0c0,0,0,0,0,0
	c0.6,0.5,0.6,1.4,0,2c0,0,0,0,0,0L32,90.1C31.7,90.3,31.4,90.5,31,90.5z"/>
</svg>
