<?xml version="1.0" encoding="utf-8"?>
<!-- Generator: Adobe Illustrator 20.1.0, SVG Export Plug-In . SVG Version: 6.00 Build 0)  -->
<svg version="1.1" id="레이어_1" xmlns="http://www.w3.org/2000/svg" xmlns:xlink="http://www.w3.org/1999/xlink" x="0px"
	 y="0px" width="48px" height="48px" viewBox="0 0 96 96" style="enable-background:new 0 0 96 96;" xml:space="preserve">
<style type="text/css">
	.st0{fill:#484848;}
</style>
<title>ico_first</title>
<path class="st0" d="M47,68L47,68c-3.3,0-6.2-2.1-7.2-5.2l-0.2-0.5c-0.4-1.3-1.4-2.4-2.7-3s-2.7-0.5-4,0.1l-0.5,0.2
	C29.5,61,26,60.4,23.8,58c-2.3-2.3-2.8-5.8-1.4-8.8l0.2-0.5c0.6-1.3,0.7-2.7,0.1-4c-0.5-1.3-1.6-2.3-2.9-2.8l0,0l-0.5-0.2
	c-4-1.5-6-6-4.5-10c0.8-2.1,2.5-3.7,4.6-4.5l0.5-0.2c1.3-0.5,2.4-1.5,2.9-2.8s0.5-2.8-0.1-4l-0.2-0.5c-1.4-3-0.8-6.5,1.6-8.7
	c2.3-2.3,5.8-2.9,8.7-1.4l0.5,0.2c1.3,0.6,2.7,0.7,4,0.1c1.3-0.5,2.3-1.6,2.8-2.9l0.2-0.5c1.1-3.1,4-5.1,7.2-5
	c3.2,0,6.1,2.1,7.1,5.2l0.2,0.5c0.4,1.3,1.4,2.4,2.7,3c1.3,0.6,2.7,0.5,4-0.1L62,9.9c2.9-1.4,6.4-0.8,8.6,1.6
	c2.3,2.3,2.8,5.8,1.4,8.7l-0.2,0.5c-0.6,1.3-0.6,2.7-0.1,4s1.6,2.3,2.9,2.8l0.5,0.2c4,1.5,6,6,4.5,10c-0.8,2.1-2.5,3.8-4.6,4.6
	l-0.5,0.2c-1.3,0.5-2.4,1.5-2.9,2.8s-0.5,2.8,0.1,4l0.2,0.5c1.4,3,0.8,6.5-1.6,8.8c-2.3,2.3-5.8,2.9-8.7,1.4l-0.4-0.3
	c-1.2-0.6-2.7-0.7-4-0.2s-2.3,1.6-2.8,2.9l-0.2,0.5C53.2,66,50.3,68,47,68z M35,56.3c1,0,2.1,0.2,3,0.6c2,0.9,3.5,2.5,4.2,4.6
	l0.2,0.5c0.9,2.6,3.7,4,6.2,3.1c1.4-0.5,2.6-1.6,3.1-3l0.2-0.5c0.7-2,2.3-3.7,4.3-4.5s4.2-0.7,6.2,0.2l0.5,0.2
	c1.9,0.9,4.1,0.6,5.6-0.9s1.9-3.8,1-5.7l-0.2-0.5c-0.9-2-0.9-4.3-0.1-6.3s2.5-3.5,4.5-4.3l0.5-0.2c2-0.7,3.3-2.6,3.3-4.7
	c0.1-2.1-1.3-4-3.2-4.7L73.8,30c-2-0.8-3.6-2.3-4.5-4.3c-0.8-2-0.7-4.3,0.2-6.3l0.2-0.5c0.9-1.9,0.6-4.2-0.9-5.7
	c-1.4-1.5-3.7-2-5.6-1l-0.5,0.2c-1.9,0.9-4.2,1-6.2,0.1S53,10,52.3,7.9l-0.2-0.5c-0.6-2-2.5-3.4-4.6-3.4s-4,1.3-4.7,3.3L42.7,8
	c-0.7,2-2.3,3.7-4.3,4.5s-4.2,0.7-6.2-0.2l-0.5-0.2c-1.9-1-4.2-0.6-5.6,0.9c-1.5,1.5-1.9,3.8-1,5.7l0.2,0.5c0.9,2,0.9,4.3,0.1,6.3
	c-0.8,2-2.5,3.6-4.5,4.3L20.4,30c-2,0.7-3.4,2.6-3.3,4.7c0,2.1,1.3,4,3.2,4.7l0.5,0.2c2,0.8,3.6,2.3,4.4,4.3c0.8,2,0.7,4.3-0.2,6.3
	l-0.2,0.5c-0.9,1.9-0.6,4.2,0.9,5.7c1.4,1.5,3.7,1.9,5.6,1l0.5-0.2C32.8,56.5,33.9,56.3,35,56.3L35,56.3z"/>
<path class="st0" d="M33.3,94.5c-0.2,0-0.4,0-0.5-0.1c-0.5-0.2-0.8-0.7-0.8-1.2V58.4c0-0.7,0.6-1.3,1.3-1.3s1.3,0.6,1.3,1.3l0,0
	v31.7L46,79.6c0.5-0.5,1.3-0.5,1.8,0l12.1,10.5V58.4c0-0.7,0.6-1.3,1.3-1.3s1.3,0.6,1.3,1.3v34.8c0,0.5-0.3,1-0.8,1.2
	s-1,0.1-1.4-0.2L46.9,82.4L34.2,94.1C34,94.4,33.7,94.5,33.3,94.5z"/>
<path class="st0" d="M23.2,26c-0.3,0-0.5-0.1-0.8-0.2L3.1,12.7c-0.6-0.4-0.8-1.3-0.4-1.9c0.4-0.6,1.2-0.8,1.9-0.4l0,0L24,23.5
	c0.6,0.4,0.8,1.3,0.4,1.9C24.1,25.8,23.7,26,23.2,26z"/>
<path class="st0" d="M70.8,27.2c-0.5,0-0.9-0.2-1.1-0.6c-0.4-0.6-0.2-1.5,0.4-1.9l21.3-14.3c0.6-0.4,1.4-0.2,1.9,0.4l0,0
	c0.4,0.6,0.2,1.5-0.4,1.9L71.5,27C71.3,27.1,71.1,27.2,70.8,27.2z"/>
<path class="st0" d="M46.7,23.4h2.5v23.1h-2.8v-20l-5,4.3l-1.2-1.7L46.7,23.4z"/>
</svg>
