<?xml version="1.0" encoding="utf-8"?>
<!-- Generator: Adobe Illustrator 20.1.0, SVG Export Plug-In . SVG Version: 6.00 Build 0)  -->
<svg version="1.1" id="레이어_1" xmlns="http://www.w3.org/2000/svg" xmlns:xlink="http://www.w3.org/1999/xlink" x="0px"
	 y="0px" width="48px" height="48px" viewBox="0 0 96 96" style="enable-background:new 0 0 96 96;" xml:space="preserve">
<style type="text/css">
	.st0{fill:#484848;}
</style>
<title>ico_easier</title>
<path class="st0" d="M51.8,87h-0.3L7.3,77.5c-0.5-0.1-0.9-0.6-0.9-1.1V13.9c0-0.4,0.1-0.7,0.4-0.9c0.3-0.2,0.6-0.3,1-0.2L52,22.3
	c0.5,0.1,0.9,0.6,0.9,1.1v62.4c0,0.3-0.2,0.7-0.4,0.9C52.4,86.9,52.1,87,51.8,87z M8.8,75.5l41.8,9V24.3l-41.8-9V75.5z"/>
<path class="st0" d="M65.3,77.5h-5.4c-0.6,0-1.2-0.5-1.2-1.1s0.5-1.2,1.1-1.2l0,0H64V65c0.1-0.6,0.6-1.1,1.3-1.1
	c0.6,0.1,1,0.5,1.1,1.1v11.4C66.4,77,65.9,77.5,65.3,77.5z"/>
<path class="st0" d="M65.3,24.5c-0.6,0-1.2-0.5-1.2-1.1l0,0V11.3H13.9c-0.6,0-1.2-0.5-1.2-1.1l0,0c0-0.6,0.5-1.2,1.2-1.1l0,0h51.4
	c0.6,0,1.2,0.5,1.2,1.1l0,0v13.3C66.5,24,65.9,24.6,65.3,24.5L65.3,24.5z"/>
<path class="st0" d="M73,60.5c-4.4,0-8.6-1.7-11.7-4.8c-6.4-6.3-6.4-16.5-0.2-22.8c0.1-0.1,0.1-0.1,0.2-0.2c6.5-6.4,16.9-6.4,23.4,0
	c6.4,6.2,6.4,16.4,0.2,22.8c-0.1,0.1-0.1,0.1-0.2,0.2C81.6,58.8,77.4,60.5,73,60.5z M73,30.2c-3.7,0-7.3,1.5-10,4.1
	c-5.5,5.4-5.5,14.1-0.2,19.6c0.1,0.1,0.1,0.1,0.2,0.2c5.6,5.5,14.5,5.5,20.1,0c5.5-5.4,5.6-14.1,0.2-19.6c-0.1-0.1-0.1-0.1-0.2-0.2
	l0,0C80.4,31.7,76.8,30.2,73,30.2L73,30.2z"/>
<path class="st0" d="M17.4,73.9c-0.6,0-1.2-0.5-1.2-1.1l0,0V47c0-0.6,0.5-1.1,1.2-1.1c0.6,0,1.1,0.5,1.2,1.1v25.8
	C18.6,73.4,18.1,73.9,17.4,73.9z"/>
<path class="st0" d="M25.2,75.1c-0.6,0-1.2-0.5-1.2-1.1l0,0V62.1c0.1-0.6,0.6-1.1,1.3-1.1c0.6,0.1,1,0.5,1.1,1.1v11.8
	C26.3,74.5,25.8,75,25.2,75.1z"/>
<path class="st0" d="M33,77.1c-0.6,0-1.2-0.5-1.2-1.1l0,0V59.2c0.1-0.6,0.6-1.1,1.3-1.1c0.6,0.1,1,0.5,1.1,1.1V76
	C34.1,76.6,33.6,77.1,33,77.1z"/>
<path class="st0" d="M40.8,78.8c-0.6,0-1.2-0.5-1.2-1.1l0,0v-9.4c0.1-0.6,0.6-1.1,1.3-1.1c0.6,0.1,1,0.5,1.1,1.1v9.4
	C41.9,78.3,41.4,78.8,40.8,78.8z"/>
<path class="st0" d="M17.4,30.1c0.3,0,0.6,0.1,0.8,0.3c0.4,0.4,0.4,1.1,0,1.6l0,0c-0.2,0.2-0.5,0.3-0.8,0.3s-0.6-0.1-0.8-0.3
	c-0.4-0.4-0.4-1.1,0-1.6l0,0C16.8,30.2,17.1,30.1,17.4,30.1 M17.4,27.8c-0.9,0-1.8,0.4-2.5,1c-1.3,1.3-1.4,3.5,0,4.8l0,0
	c0.7,0.6,1.5,1,2.5,1c0.9,0,1.8-0.4,2.5-1c1.3-1.3,1.4-3.5,0-4.8l0,0C19.2,28.1,18.4,27.8,17.4,27.8z"/>
<path class="st0" d="M25.2,46.9c0.3,0,0.6,0.1,0.8,0.3c0.4,0.4,0.4,1.1,0,1.6l0,0c-0.4,0.4-1.2,0.4-1.6,0c-0.4-0.4-0.4-1.1,0-1.6
	l0,0C24.6,47,24.9,46.9,25.2,46.9 M25.2,44.6c-0.9,0-1.8,0.4-2.5,1c-1.3,1.3-1.4,3.5,0,4.8l0,0c1.4,1.3,3.5,1.3,4.9,0
	c1.3-1.3,1.4-3.5,0-4.8l0,0C27,45,26.1,44.6,25.2,44.6L25.2,44.6z"/>
<path class="st0" d="M33,40.8c0.3,0,0.6,0.1,0.8,0.3c0.4,0.4,0.4,1.1,0,1.6l0,0c-0.4,0.4-1.2,0.4-1.6,0c-0.4-0.4-0.4-1.1,0-1.6l0,0
	C32.4,40.9,32.7,40.8,33,40.8 M33,38.5c-0.9,0-1.8,0.4-2.5,1c-1.3,1.3-1.4,3.5,0,4.8l0,0c1.4,1.3,3.5,1.3,4.9,0
	c1.3-1.3,1.4-3.5,0-4.8l0,0C34.8,38.8,33.9,38.5,33,38.5L33,38.5z"/>
<path class="st0" d="M40.8,56.1c0.3,0,0.6,0.1,0.8,0.3c0.4,0.4,0.4,1.1,0,1.6l0,0c-0.4,0.4-1.2,0.4-1.6,0c-0.4-0.4-0.4-1.1,0-1.6
	l0,0C40.2,56.2,40.5,56.1,40.8,56.1 M40.8,53.8c-0.9,0-1.8,0.4-2.5,1c-1.3,1.3-1.4,3.5,0,4.8l0,0c1.4,1.3,3.5,1.3,4.9,0
	c1.3-1.3,1.4-3.5,0-4.8l0,0C42.6,54.2,41.7,53.8,40.8,53.8L40.8,53.8z"/>
<polygon class="st0" points="22.7,46.7 16.9,34 19,33.1 24.8,45.8 "/>
<polygon class="st0" points="27.9,47.1 26.5,45.3 30.4,42.2 31.8,43.9 "/>
<polygon class="st0" points="38.5,55.1 33.1,44.1 35.2,43.1 40.6,54.1 "/>
<path class="st0" d="M72.2,51L72.2,51c-0.3,0-0.7-0.2-0.9-0.4L66.8,45c-0.4-0.5-0.3-1.2,0.2-1.6l0,0c0.5-0.4,1.2-0.3,1.6,0.2
	l3.5,4.5l7.2-8.3c0.4-0.5,1.1-0.5,1.6-0.1s0.5,1.1,0.1,1.6l0,0l-8.1,9.4C72.8,50.9,72.5,51,72.2,51z"/>
</svg>
