<svg id="Layer_1" xmlns="http://www.w3.org/2000/svg" viewBox="0 0 120 120"><style>.st0{fill:#4b4a4b}</style><title>ico_health</title><path class="st0" d="M69.5 37.1h9.2c1.1 0 2.2.3 3.3.8 2.2 1.3 4.1 2.9 5.7 4.9 2.9 3.3 5.8 7.5 9 11 1.6 1.7 3.4 3.2 5.3 4.4 2 1.2 4.2 1.9 6.5 1.9v-3.3c-1.3 0-2.6-.3-3.8-.8-2.4-1.2-4.5-2.9-6.2-4.9-3-3.3-5.9-7.5-9-10.9-1.5-1.7-3.1-3.2-5-4.4-1.8-1.2-3.9-1.9-6-1.9h-9.2v3.2zm-41 43.5c4 0 7.3 3.3 7.3 7.3s-3.3 7.3-7.3 7.3-7.3-3.3-7.3-7.3 3.3-7.2 7.3-7.3m0-3.2c-5.8 0-10.5 4.7-10.5 10.5s4.7 10.5 10.5 10.6C34.3 98.5 39 93.8 39 88c0-5.9-4.7-10.6-10.5-10.6z"/><path class="st0" d="M114 58.5v-1.6H71.1V27.5c0-3.3-2.7-6-6-6H5.9c-3.3 0-6 2.7-6 6v56.1c0 3.3 2.7 6 6 6h9.3V88c0-3.5 1.4-6.9 3.9-9.4s5.8-3.9 9.4-3.9c3.5 0 6.9 1.4 9.4 3.9s3.9 5.9 3.9 9.4v1.6h30.8V88c0-3.5 1.4-6.9 3.9-9.4s5.8-3.9 9.4-3.9c3.5 0 6.9 1.4 9.4 3.9s3.9 5.9 3.9 9.4v1.6h15c3.3 0 6-2.7 6-6V62.9c0-3.3-2.7-6-6-6v3.3a2.732 2.732 0 0 1 2.7 2.7v20.7a2.732 2.732 0 0 1-2.7 2.7h-13.4v1.6h1.6c0-9.1-7.4-16.5-16.5-16.6-9.1 0-16.5 7.4-16.5 16.6H71v-1.6H43.3v1.6H45c0-9.1-7.4-16.5-16.5-16.6-9.1 0-16.5 7.4-16.5 16.6h1.6v-1.6H6a2.732 2.732 0 0 1-2.7-2.7V27.5A2.732 2.732 0 0 1 6 24.8h59.2a2.732 2.732 0 0 1 2.7 2.7v32.7H114v-1.7z"/><path class="st0" d="M85.8 80.6c4 0 7.3 3.3 7.3 7.3s-3.3 7.3-7.3 7.3-7.3-3.3-7.3-7.3 3.3-7.2 7.3-7.3m0-3.2c-5.8 0-10.5 4.7-10.5 10.5S80 98.4 85.8 98.5c5.8 0 10.5-4.7 10.5-10.5 0-5.9-4.7-10.6-10.5-10.6zM48.5 41.2v-1.7h-6.7v-8.3H28.9v8.3h-8.3v13h8.3v8.3h12.9v-8.3h8.4v-13h-1.7v1.7h-1.6v8h-8.4v8.4h-6.3v-8.4h-8.4v-6.4h8.4v-8.4h6.3v8.4h10v-1.6h-1.6z"/></svg>