<svg xmlns="http://www.w3.org/2000/svg" width="48" height="36" viewBox="270.663 402.945 48 36"><title>ico_publicity</title><path fill="#484848" d="M306.781 436.581c-1.221-.048-1.503-.435-2.16-1.496l-.094-.193c-.329-.53-.329-.53-1.221-1.737-.329-.434-.752-1.062-1.409-1.882-1.88-2.605-8.83-3.378-11.32-3.426H277.52c-3.804 0-6.857-3.233-6.857-7.239v-1.158c0-4.005 3.1-7.239 6.857-7.239h13.057c2.49-.145 9.44-1.013 11.367-3.185 1.08-1.207 2.02-2.268 2.348-3.185.047-.096.095-.241.142-.337.375-1.014.892-2.558 2.395-2.558 1.033 0 1.832.869 1.832 1.931v29.774c-.048 1.06-.894 1.93-1.88 1.93zm0-32.381c-.61 0-.939.772-1.268 1.786-.047.145-.094.241-.141.386-.376 1.013-1.222 2.026-2.583 3.522-2.584 2.944-11.79 3.571-12.165 3.571H277.52c-3.146 0-5.683 2.702-5.683 6.032v1.158c0 3.329 2.536 6.032 5.683 6.032h13.057c.423 0 9.628.289 12.259 3.908.61.869 1.08 1.448 1.361 1.883.893 1.254.939 1.254 1.269 1.833l.094.193c.563.917.563.917 1.174.965.376 0 .657-.338.657-.724v-29.823c.048-.433-.235-.722-.61-.722z"/><path fill="#484848" d="M287.947 438.945c-.986 0-1.972-.435-3.288-1.496-1.221-1.013-3.334-7.914-3.945-10.037l1.127-.338c1.221 4.247 2.912 8.928 3.522 9.41 1.128.917 1.926 1.303 2.678 1.206a.744.744 0 0 0 .657-.386c.141-.241.188-.482.094-.724-1.174-3.716-1.691-7.046-1.456-9.41l1.174.097c-.188 2.22.282 5.404 1.409 8.879a2.268 2.268 0 0 1-.235 1.834c-.375.53-.939.868-1.55.917-.046 0-.14.048-.187.048z"/><path fill="#484848" d="M282.546 412.838h1.174v14.429h-1.174zm3.287 0h1.175v14.429h-1.175zm27.013-.286l5.182-3.035.581 1.047-5.181 3.036zm-.053 6.752h5.87v1.207h-5.87zm.048 7.863l.58-1.047 5.183 3.035-.581 1.048z"/></svg>