<svg xmlns="http://www.w3.org/2000/svg" width="38" height="47" viewBox="282.113 397.445 38 47"><title>ico_notice</title><g fill="#484848"><path d="M298.975 416.621c0 1.551-.047 3.055 0 4.606.048.987-.237 1.504-1.377 1.504-2.85-.047-5.652-.047-8.455 0-.903 0-1.283-.282-1.283-1.222.047-3.337.047-6.674 0-10.011 0-.846.333-1.128 1.188-1.128 2.897.047 5.748.047 8.645 0 1.093 0 1.33.423 1.282 1.363-.047 1.598 0 3.243 0 4.888zm1.045-8.648h-10.782c-.902 0-1.425-.141-1.425-1.222 0-.987.333-1.316 1.33-1.316h22.087c.998 0 1.33.376 1.33 1.316 0 1.128-.569 1.222-1.425 1.222-3.705-.047-7.41 0-11.115 0zm6.887 4.888c-1.377 0-2.755-.047-4.133 0-.902.047-1.282-.282-1.282-1.222s.237-1.41 1.282-1.363a265.1 265.1 0 0 0 8.646 0c.997 0 1.188.47 1.188 1.316s-.237 1.316-1.235 1.269h-4.466zm0 4.935c-1.377 0-2.755-.047-4.133 0-1.045.047-1.282-.423-1.282-1.363s.38-1.222 1.282-1.222a265.1 265.1 0 0 0 8.646 0c.997 0 1.235.423 1.235 1.269 0 .846-.19 1.316-1.188 1.316-1.567-.047-3.039 0-4.56 0zm-6.887 9.54h-10.782c-.902 0-1.425-.141-1.425-1.222 0-.987.333-1.315 1.33-1.315 7.362.047 14.725.047 22.087 0 .998 0 1.33.376 1.33 1.362 0 1.128-.569 1.223-1.425 1.223-3.705-.048-7.41-.048-11.115-.048zm0 4.983h-10.782c-.902 0-1.425-.141-1.425-1.222 0-.987.333-1.316 1.33-1.316 7.362.047 14.725.047 22.087 0 .998 0 1.33.376 1.33 1.316 0 1.128-.569 1.222-1.425 1.222H300.02zm0 4.653h-10.782c-.902 0-1.425-.142-1.425-1.223 0-.986.333-1.315 1.33-1.315 7.362.047 14.725.047 22.087 0 .998 0 1.33.376 1.33 1.315 0 1.128-.569 1.223-1.425 1.223H300.02zm6.887-14.241c-1.377 0-2.755-.047-4.133 0-1.045.047-1.282-.423-1.282-1.363s.38-1.222 1.282-1.222a265.1 265.1 0 0 0 8.646 0c.997 0 1.235.423 1.235 1.269s-.19 1.316-1.188 1.316c-1.567-.094-3.039-.047-4.56 0z"/><path d="M300.02 427.243h-10.782c-.902 0-1.425-.141-1.425-1.222 0-.987.333-1.316 1.33-1.316h22.087c.998 0 1.33.376 1.33 1.316 0 1.128-.569 1.222-1.425 1.222H300.02z"/></g><path fill="#484848" d="M282.113 397.445v47h37.335v-47h-37.335zm35.91 45.59h-34.485v-44.18h34.485v44.18z"/></svg>