<svg xmlns="http://www.w3.org/2000/svg" width="52" height="52" viewBox="271.64 394.918 52 52"><title>ico_VUL</title><path fill="#484848" d="M297.64 446.918c-14.378 0-26-11.645-26-26.051 0-13.486 10.324-24.751 23.729-25.943a.712.712 0 0 1 .811.704l.919 12.62c.054.433-.27.758-.703.812-6.486.596-11.243 6.445-10.649 12.944.649 6.554 6.433 11.319 12.973 10.67 3.081-.325 5.946-1.787 7.892-4.171.271-.271.703-.379 1.027-.162l10.486 7.095c.324.217.433.704.217 1.084-4.918 6.553-12.594 10.398-20.702 10.398zm-2.865-50.369c-13.405 1.679-22.973 13.919-21.297 27.351 1.459 12.24 11.838 21.448 24.162 21.502 7.352 0 14.324-3.304 18.919-9.045l-9.243-6.282c-5.081 5.361-13.568 5.578-18.865.487-5.352-5.091-5.568-13.594-.487-18.902 2-2.112 4.703-3.521 7.568-4.008l-.757-11.103z"/><path fill="#484848" d="M320.181 432.836c-.162 0-.325-.054-.433-.108l-10.595-7.203c-.271-.217-.433-.541-.271-.866.433-1.246.648-2.491.648-3.792 0-.867-.107-1.787-.324-2.654a.697.697 0 0 1 .486-.867l12-4.008c.379-.108.812.108.974.488v.054c.648 2.275.973 4.658.973 7.041a26.23 26.23 0 0 1-2.703 11.59c-.161.217-.431.38-.755.325zm-9.731-8.232l9.46 6.392c1.459-3.196 2.162-6.608 2.162-10.074 0-1.95-.217-3.954-.703-5.849l-10.595 3.52c.38 1.949.271 4.062-.324 6.011zm-1.783-9.099c-.271 0-.541-.163-.648-.379-1.514-2.708-3.946-4.712-6.92-5.633-.324-.108-.54-.379-.54-.704l-.973-13.053c0-.217.054-.433.216-.596s.379-.217.595-.217c8.648.921 16.271 6.174 20.271 13.974.216.379.054.813-.324 1.029l-11.352 5.524a.68.68 0 0 1-.325.055zm-6.648-7.257c2.864.975 5.351 2.924 6.918 5.524l10-4.82c-3.675-6.662-10.27-11.211-17.783-12.349l.865 11.645zm-6.379 18.631a.634.634 0 0 1-.595-.487l-2.432-9.857c-.108-.325.108-.65.432-.758.324-.108.649.108.757.433l2.433 9.857c.054.325-.108.649-.433.758-.054.054-.108.054-.162.054z"/><path fill="#484848" d="M295.64 426.879a.601.601 0 0 1-.595-.596v-.163l2.433-9.857c.108-.325.433-.542.757-.433.324.108.54.433.433.758l-2.433 9.857c-.055.271-.325.434-.595.434z"/><path fill="#484848" d="M300.559 426.879a.635.635 0 0 1-.595-.487l-2.432-9.857c-.108-.325.108-.65.432-.758.324-.108.648.108.757.433l2.433 9.857c.054.325-.108.649-.433.758-.054.054-.108.054-.162.054z"/><path fill="#484848" d="M300.559 426.879a.601.601 0 0 1-.595-.596v-.163l2.433-9.857c.108-.325.433-.542.757-.433.324.108.54.433.433.758l-2.433 9.857c-.109.271-.325.434-.595.434z"/><path fill="#484848" d="M305.369 420h-14.594c-.324-.054-.595-.325-.541-.65.054-.271.27-.542.541-.542h14.594c.324.054.595.325.541.65-.054.326-.27.542-.541.542zm-1.081 3.034h-12.432c-.324-.054-.595-.325-.541-.649.054-.271.27-.542.541-.542h12.432c.324.054.595.325.541.649 0 .325-.27.542-.541.542z"/></svg>