<svg xmlns="http://www.w3.org/2000/svg" width="56" height="53" viewBox="269.674 394.197 56 53"><title>ico_annuity</title><path fill="#484848" d="M284.569 405.451c1.25 0 2.446.429 3.425 1.179.435.322.979.429 1.522.268.707-.214 1.414-.375 2.12-.536l2.229-.107c2.229 5.252 8.372 7.663 13.699 5.466 1.359-.59 2.609-1.394 3.588-2.465.381.214.707.429 1.033.643 2.609 1.661 4.729 3.912 6.306 6.538.436.804 1.414 1.072 2.229.697.543-.268.924-.911.869-1.5a.59.59 0 0 1 .326-.536.584.584 0 0 1 .652.107c2.12 2.144 2.065 5.52-.055 7.61-.38.321-.761.643-1.195.857-.489.268-.815.75-.87 1.34a16.015 16.015 0 0 1-5.382 10.557 1.65 1.65 0 0 0-.489 1.179v5.359c0 1.929-1.576 3.483-3.533 3.483h-3.588c-1.25 0-2.99-2.733-3.479-4.823a1.618 1.618 0 0 0-1.576-1.286h-.271c-2.719.429-5.491.482-8.209.107h-.217c-.761 0-1.414.535-1.577 1.232-.489 2.09-2.229 4.716-3.425 4.716h-3.479a3.527 3.527 0 0 1-3.534-3.43l.489-6.002a1.563 1.563 0 0 0-.761-1.501c-2.555-1.554-4.566-3.912-5.763-6.645a1.785 1.785 0 0 0-1.413-.965c-1.903-.054-2.99-1.179-2.99-3.001v-1.982a3.468 3.468 0 0 1 3.371-3.484c.598 0 1.196-.375 1.414-.964 1.142-2.465 2.827-4.663 5.001-6.377.381-.321.598-.75.598-1.232v-3.483c0-.214.109-.375.272-.482.869-.269 1.793-.537 2.663-.537m0-1.608a7.267 7.267 0 0 0-3.371.804 2.18 2.18 0 0 0-1.142 1.929v3.483c-2.337 1.876-4.186 4.287-5.436 6.967-2.772.107-4.947 2.358-4.947 5.091v1.983c0 2.732 1.794 4.501 4.566 4.608a15.89 15.89 0 0 0 6.36 7.342l-.544 6.056c0 2.84 2.338 5.091 5.165 5.091h3.479c2.446 0 4.458-3.697 5.001-5.948 2.881.375 5.817.321 8.698-.161.489 2.305 2.555 6.056 5.056 6.056h3.479c2.881 0 5.164-2.304 5.164-5.091v-5.306a17.77 17.77 0 0 0 5.871-11.575c3.425-1.876 4.729-6.109 2.826-9.539a10.362 10.362 0 0 0-1.141-1.554c-.816-.857-2.175-.911-3.1-.161a2.116 2.116 0 0 0-.706 1.769 19.994 19.994 0 0 0-6.795-7.127c-.762-.536-1.577-.964-2.393-1.393v.054c-1.631 2.572-4.512 3.751-7.339 3.751-3.914 0-7.338-2.572-8.371-6.27v-.053l-3.588.161c-.815.161-1.631.375-2.392.589-1.193-1.02-2.769-1.556-4.4-1.556z"/><path fill="#484848" d="M287.396 419.116h-.815c0 .697-.598 1.286-1.305 1.286s-1.305-.589-1.305-1.286c0-.696.598-1.286 1.305-1.286s1.305.59 1.305 1.286h1.631c0-1.607-1.305-2.894-2.936-2.894s-2.936 1.286-2.936 2.894 1.305 2.895 2.936 2.895 2.936-1.287 2.936-2.895h-.816zm20.114-7.717a11.78 11.78 0 0 1 1.902.804c.652.375.924 1.179.544 1.822-.218.429-.707.697-1.196.697-.218 0-.435-.054-.652-.161a23.921 23.921 0 0 0-11.525-2.787c-.707 0-1.413 0-2.12.107h-.163c-.326 0-.652-.107-.924-.375-.272-.214-.38-.536-.435-.911v-.107a1.35 1.35 0 0 1 1.25-1.339h.652c.38 0 .815 0 1.359.053l.109-1.607c-.544-.054-1.033-.054-1.468-.054h-.761c-1.522.107-2.718 1.394-2.772 2.947v.268c.054.697.38 1.394.924 1.929.543.536 1.305.804 2.065.804h.327l-.109-.804.054.804c.652-.053 1.305-.053 1.957-.053 3.751-.054 7.447.857 10.764 2.572 1.468.804 3.262.268 4.077-1.179s.271-3.269-1.196-4.073a10.742 10.742 0 0 0-2.174-.857l-.489 1.5z"/><path fill="#484848" d="M303.27 411.988v-.804c-4.295 0-7.774-3.483-7.774-7.717s3.534-7.664 7.828-7.664c4.295 0 7.774 3.43 7.774 7.664a8.684 8.684 0 0 1-.707 3.483 6.674 6.674 0 0 1-2.936 3.162 8.67 8.67 0 0 1-4.186 1.072v1.608c2.337 0 4.62-.75 6.414-2.251a8.36 8.36 0 0 0 2.175-2.947c.544-1.286.87-2.68.815-4.126 0-5.145-4.24-9.271-9.404-9.271-5.219 0-9.405 4.18-9.405 9.271 0 5.145 4.24 9.271 9.405 9.271v-.751z"/><path fill="#484848" d="M303.27 408.452v-.804c-2.283 0-4.187-1.822-4.187-4.126 0-2.305 1.849-4.126 4.187-4.126 2.337 0 4.186 1.822 4.186 4.126 0 .643-.108 1.286-.381 1.875a3.602 3.602 0 0 1-1.576 1.661c-.707.375-1.468.59-2.229.536v1.607a6.387 6.387 0 0 0 3.968-1.393c.599-.482 1.033-1.125 1.359-1.822.326-.804.544-1.661.489-2.519 0-3.162-2.609-5.734-5.816-5.734-3.208 0-5.817 2.572-5.817 5.734s2.609 5.734 5.817 5.734v-.749z"/></svg>