<svg id="Layer_1" xmlns="http://www.w3.org/2000/svg" viewBox="0 0 120 120"><style>.st0{fill:#484848}</style><title>ico_death</title><path class="st0" d="M60.1 41.5V43c3.9.1 7.8 1.3 11.1 3.4 1.1.7 2.2 1.5 3.2 2.4.4.3.7.6.8.8l.2.2.1-.1-.1.1.1-.1-.1.1-.1-.1.1.1c.7.7 1.6 1.2 2.7 1.2s2.2-.6 2.9-1.5l-.1.1.1-.1-.3-.2.3.2-.3-.2.3.2c1-1.2 2.2-2.3 3.4-3.3 1.1-.9 2.3-1.6 3.6-2.2 1.4-.6 2.9-1 4.5-1 2.8.1 5.6 1.1 7.8 2.7.8.6 1.7 1.2 2.4 2l.6.6.2.2.2-.2-.2.2.2-.2-.2.2c.3.4.7.7 1.1.9.4.3.9.5 1.4.5.3 0 .5-.1.7-.2.4-.2.7-.4.9-.8.2-.3.2-.6.3-.9v-.9c0-4.7-1.4-9.4-3.9-13.4-3.7-6.1-9.8-11.2-17.4-14.8-8.4-3.8-17.5-5.8-26.6-5.7-13.1 0-25 3.7-33.7 9.8-4.2 2.8-7.7 6.5-10.4 10.8-2.5 4-3.8 8.7-3.9 13.4v.9c0 .5.2.9.5 1.2.2.2.4.4.7.5.2.1.5.1.7.1.5 0 1-.2 1.5-.5.4-.3.7-.6 1-.9l-.2-.2.2.2-.2-.2.2.2c1-1.1 2.2-2 3.4-2.8 2.3-1.6 5-2.6 7.7-2.7 1.6 0 3.1.4 4.5 1 1.9.8 3.6 2 5.1 3.4.5.5 1 1 1.4 1.5l.4.4.1.1.5-.4-.5.4.5-.4-.5.4c.7.9 1.7 1.5 2.9 1.5 1 0 2-.4 2.7-1.2l-.1-.1.1.1-.1-.1.1.1c1.4-1.3 2.9-2.5 4.5-3.5 3.3-2.1 7.1-3.2 11-3.3h.1v-3H60c-4.5.1-8.9 1.4-12.7 3.9-1.8 1.1-3.4 2.4-4.9 3.9-.1.2-.3.2-.5.3-.2 0-.4-.1-.5-.3-1.1-1.4-2.4-2.7-3.8-3.8-1.3-1.1-2.8-1.9-4.3-2.6-1.8-.8-3.7-1.2-5.7-1.2-3.4.1-6.7 1.2-9.5 3.3-1.4.9-2.7 2-3.8 3.2-.1.2-.3.3-.5.4l.1.3-.1-.3h-.1l.1.3-.1-.3.2.8V47h-.2l.2.8v.3l.4-1c-.1-.1-.3-.1-.4-.1v1.1l.4-1-.4 1 1-.6c-.1-.2-.3-.4-.5-.5l-.4 1 1-.6-.7.4.8-.1c0-.1-.1-.2-.1-.3l-.7.4.8-.1-1.5.1h1.5V47c0-4.1 1.1-8.2 3.3-11.7 3.3-5.5 9-10.3 16.2-13.7 8-3.6 16.6-5.5 25.4-5.4 12.6 0 23.9 3.6 32 9.2 3.8 2.6 7.1 5.9 9.6 9.9 2.2 3.6 3.4 7.7 3.4 11.8v.7h1.5l-1.5-.1.9.1-.6-.6c-.1.1-.2.3-.2.5l.9.1-.6-.6.8.8-.4-1c-.2.1-.3.2-.4.3l.8.8-.4-1 .4 1v-1.2c-.1 0-.3 0-.4.1l.4 1v-.4l.3-.7h-.3v.7l.3-.7v.2-.1c-.2-.1-.4-.3-.5-.5-1.1-1.2-2.4-2.3-3.8-3.2-2.8-2-6.1-3.1-9.5-3.3-2 0-3.9.4-5.7 1.2-2.2 1-4.2 2.3-5.9 4-.8.7-1.5 1.6-2.2 2.4-.1.2-.3.3-.5.3s-.4-.1-.5-.3c-1.5-1.5-3.1-2.8-4.9-3.9-3.8-2.4-8.2-3.8-12.7-3.8l-.2 1.6z"/><path class="st0" d="M43.2 49.4V48c0-5.3.8-10.5 2.3-15.6 1-3.3 2.5-6.5 4.5-9.3 2.1-3 4.9-5.4 8.1-7l.8-.4V12h2v2.8h3V9h-8v5.8h1.5l-.7-1.3c-3.7 1.8-6.9 4.5-9.3 7.9-3.1 4.6-5.2 9.8-6.2 15.3-.7 3.8-1.1 7.6-1.1 11.4v1.6l3.1-.3z"/><path class="st0" d="M79.8 49.6V48c0-5.6-.8-11.2-2.4-16.5-1.1-3.6-2.8-7.1-5-10.2-2.4-3.4-5.6-6.1-9.3-7.9l-.6 1.3H64v-4.3h-3v5.2l.8.4c3.3 1.6 6.1 4 8.2 7 2.9 4.3 4.9 9.1 5.8 14.1.7 3.6 1.1 7.2 1.1 10.8v1.5l2.9.2zm-1.6 53.7c.2.6.3 1.1.3 1.7v1.6c0 .4-.1.8-.3 1.1-.2.2-.5.3-.9.3H42.7c-.3 0-.6-.1-.9-.3-.2-.3-.4-.7-.3-1.1V105c0-.6.1-1.2.3-1.7.3-1.2 1.1-2.2 2.2-2.8.5-.3 1.1-.6 1.6-.8 2.2-.8 4.4-1.6 6.7-2.5 1-.5 2-1 3-1.6l.2-.1c.4-.3.7-.7.9-1.1.2-.4.3-.9.3-1.3v-2.9c0-.6-.2-1.2-.6-1.7-.6-.7-1.2-1.4-1.7-2-1-1.1-1.8-2.5-2.2-4l-.2-.8-.3-1.2-1.2.1h-1c-.1 0-.1 0-.1-.1-.1-.2-.2-.3-.3-.5l-.3-.7-1.4.6 1.4-.4c-.4-1-.6-2.1-.6-3.2v-.4c0-.1 0-.3.1-.4l-.3-.3.2.2v-.1l-.2-.1.2.2-.2-.2.2.2-.2-.2.2.2c.1-.1.2-.1.4-.1l.5-.1 1.3-.2v-1.3c0-.4 0-.8-.1-1.2 0-.6-.1-1.3-.1-1.9 0-1.3.1-2.5.4-3.7.2-1 .7-2 1.4-2.7.7-.7 1.6-1.1 2.6-1.2.7-.1 1.4-.2 2.3-.3l1-.1.3-1c.1-.2.1-.4.2-.6 0-.1.1-.1.1-.2h.5c1.3 0 2.5.2 3.8.5.5.1.9.3 1.4.5h.1-.1c1.9.8 3.5 2.1 4.6 3.8v-.1l.1.1c1 1.4 1.5 3.1 1.4 4.8 0 .5 0 1-.1 1.5s-.2 1-.3 1.7l-.6 1.4 1.5.2.9.1h.1l.1-.1-.1.1.1-.1-.1.1c0 .1.1.1.1.2 0 .2.1.4.1.6 0 .7-.2 1.5-.3 2.2l-.3 1.2-.4.4c-.1.2-.1.3-.2.4l-.1.1c-.1 0-.3.1-.4.1h-.6l-1.2-.1-.3 1.2-.2.8c-.1.4-.2.7-.3 1.1-.4 1.1-1 2-1.8 2.9-.5.6-1.1 1.2-1.7 2-.4.5-.6 1.1-.6 1.7V93c0 .5.1 1 .3 1.4.2.5.6.9 1.1 1.2 1 .6 2 1.2 3 1.6 2.3.9 4.5 1.7 6.7 2.5.6.2 1.1.5 1.6.8.9.6 1.7 1.6 1.9 2.8l2.9-.9c-.6-1.9-1.8-3.4-3.4-4.4-.7-.4-1.4-.8-2.1-1.1h-.1.1c-2.3-.9-4.5-1.6-6.6-2.5-.9-.4-1.8-.9-2.6-1.4l-.1.1.1-.1-.1.1.1-.1-.1.1h.1l-.1.1h.1v-2.9h-.2.2-.2.2l-.2-.1.2.2-.2-.1.2.2c.5-.6 1.1-1.2 1.6-1.9 1-1.2 1.8-2.5 2.3-3.9.2-.5.4-1 .5-1.5l.2-.8-1.4-.4-.1 1.5h.8c.4 0 .8 0 1.1-.1.6-.2 1.1-.5 1.5-.9.4-.4.7-1 .9-1.5.1-.2.1-.3.2-.5.2-.5.3-1.1.4-1.6.2-.9.3-1.8.4-2.7 0-.4 0-.8-.1-1.2-.1-.6-.4-1.2-.8-1.6-.4-.5-1-.8-1.6-.9l-1-.2-.3 1.4 1.5.2c.1-.6.2-1.1.3-1.8.1-.6.1-1.2.1-1.8 0-2.3-.7-4.7-2-6.6v-.1l.1.1c-1.5-2.1-3.5-3.8-5.9-4.8H65c-.6-.2-1.1-.4-1.7-.6-1.5-.4-3-.6-4.5-.6h-.1c-.4 0-.9.1-1.3.2-.3.1-.6.3-.9.5-.4.3-.7.7-.9 1.1-.2.4-.4.9-.5 1.3l1.4.4-.1-1.5c-.7.1-1.5.1-2.4.3-1.6.2-3 .9-4.2 2-1.1 1.1-1.9 2.6-2.3 4.2-.3 1.4-.5 2.9-.5 4.4 0 .7 0 1.4.1 2 0 .4 0 .8.1 1.2l1.5-.1-.3-1.4-.5.1c-.3.1-.7.2-1 .3-.3.1-.5.3-.8.5-.4.3-.6.7-.8 1.2-.1.4-.2.8-.2 1.3v.5c0 1.4.3 2.8.7 4.1v.1l.3.7 1.4-.6-1.3.5c.1.4.3.7.5 1 .3.5.8.9 1.3 1.2.5.2 1.1.4 1.7.3h.8l-.1-1.5-1.4.4.2.8c.5 1.9 1.5 3.7 2.8 5.2.6.7 1.2 1.3 1.6 1.9l.2-.1-.2.1.2-.1-.2.1h.2-.3.2-.3v2.9l.2.1V93l-.1.1.2.1-.1-.2.9 1.2-.9-1.2-.1.1.9 1.2-.8-1.3c-.8.5-1.6 1-2.5 1.4-2.2.9-4.4 1.6-6.6 2.5-.7.3-1.4.7-2 1.1-1.7 1-2.9 2.6-3.5 4.4-.2.8-.4 1.7-.4 2.5v1.7c0 1.1.4 2.3 1.1 3.1.8.8 1.9 1.3 3 1.3h34.7c1.1 0 2.2-.4 3-1.3.8-.9 1.2-2 1.1-3.1v-1.7c0-.8-.2-1.7-.4-2.5l-2.9.9z"/><path class="st0" d="M58.2 42.9c1.1.5 2 1.3 2.5 2.4.2.4.4.9.5 1.4.1.6.2 1.2.2 1.9.1 1.7.1 3.4.2 5.2 0 .4.1.8.3 1.2l1.4-.4-1.4.4c.1.4.2.6.3.8l.1.2h.1-.1.1-.1c0 1.1-.2 2.2-.6 3.2l2.8 1.1c.5-1.3.8-2.8.8-4.2V56c0-.4-.1-.8-.2-1.2-.1-.3-.2-.5-.2-.6l-.1-.4v-.2c-.1-1.7-.1-3.4-.2-5.2 0-.8-.1-1.5-.2-2.3-.1-.9-.4-1.7-.8-2.4-.9-1.6-2.3-2.8-4-3.6l-1.4 2.8zM20.8 97.8l.4-.4v-.6h-1.5l1.4.4c0-.1 0-.2.1-.3l.1-.5c.6-3.7 1.6-7.3 3-10.7.6-1.5 1.4-2.8 2.4-4 .5-.6 1.2-1 1.9-1.4 1-.5 2.2-.8 3.3-.9 1.3-.2 2.7-.2 4.2-.5h.2c1.9-.5 3.7-1.6 5-3.1.6-.7 1.4-1.3 2.2-1.7.4-.2.8-.5 1.1-.9.3-.4.4-.9.5-1.3v-.8c0-1-.2-2-.6-2.9-.2-.5-.4-1.2-.7-2-.2-.9-.5-1.8-.9-2.7-.7-1.4-1.4-2.5-2-3.6-.2-.3-.3-.7-.3-1.1-.1-1.6-.1-3.1-.1-4.7v-1.9c0-1.4.2-2.7.6-4l-2.8-.8c-.4 1.5-.6 3.1-.7 4.7v2c0 1.6.1 3.2.1 4.8 0 .8.3 1.6.6 2.3.7 1.3 1.5 2.4 2 3.5.3.8.5 1.5.7 2.3.2.8.5 1.5.8 2.3.2.5.3 1.1.3 1.7v.5h.4l-.3-.2-.1.2h.4l-.3-.2.3.3-.3-.3c-.1 0-.1.1-.2.2l.3.3-.2-.4c-1.3.5-2.4 1.4-3.3 2.4-1 1.1-2.2 1.8-3.6 2.2l.4 1.4-.2-1.5c-1.6.3-3.3.3-4.9.6-1.3.2-2.6.6-3.8 1.2-1 .5-1.9 1.3-2.7 2.1-1.4 1.7-2.6 3.7-3.3 5.8-1.2 3.3-2 6.6-2.6 10l1.5.3-1.5-.3-.1.5v.1l.5.1-.5-.1.5.1-.5-.1v.4h1.5l-1-1.1 2.3 2.3zm61 3.6h-2.1v3h2.1"/><path class="st0" d="M21.2 96.8h-1.5l1.5.2-2.9-.5v.3z"/><path class="st0" d="M40.4 101.4H21.8c-.4 0-.7-.1-1-.2l-.1-.2c-.1-.1-.1-.3-.1-.4 0-.2 0-.3.1-.5.2-1 .3-1.6.3-1.9l.1-.4c.1-.4.1-.6.1-.8l-1.5-.2 1.4.4v-.4h-1.4l-1.5-.1 1.5.1-1.4-.4v.2l1.5.2-1.5-.2s0 .2-.1.6l-.1.4-.3 1.9 1.5.3-1.5-.3c-.1.4-.1.7-.1 1.1 0 .5.1 1.1.3 1.6.3.7.9 1.3 1.6 1.7.7.3 1.5.5 2.2.5h18.5v-3zm39.3 3H97v-6.1h-1.5l1.5.1v-2.3c0-1.4-.3-2.7-.9-3.9-.6-1.2-1.5-2.2-2.6-3-1.9-1.3-4-2.4-6.1-3.4l.4.2-.4-.2c-2.1-1-4.2-2.1-6.2-3.2l-.2-.1v-.3l-1.5-.2v1.5c3.4.1 6.7-.7 9.7-2.3l2.2-1.2-2.1-1.4c-.4-.2-.8-.6-1-1.1-.1-.5-.3-1.2-.3-1.8-.1-.6-.1-1.2-.1-1.7 0-1.8.2-3.7.3-5.7 0-.8.1-1.6.1-2.4 0-1-.1-1.9-.3-2.9-.4-2-1.2-3.8-2.3-5.5-1.2-1.7-2.9-2.9-4.8-3.7l-.3.7.5-.6c-.1-.1-.1-.1-.2-.1l-.3.7.5-.6-.6.6.7-.4c0-.1-.1-.2-.2-.3l-.6.6.7-.4c-.2-.5-.6-1-1-1.3-.4-.3-.8-.6-1.3-.8-1-.5-2.1-.7-3.3-.7-.6 0-1.2.1-1.8.2-3.5.6-6.6 2.4-8.9 5.1-.8.9-1.4 1.9-2 2.9l2.6 1.4c.5-.8 1-1.6 1.6-2.3 1.8-2.2 4.3-3.6 7.2-4.1.4-.1.9-.1 1.4-.1.7 0 1.4.1 2 .4.2.1.4.2.5.3.1.1.2.2.3.4.1.3.3.5.5.7.2.2.4.3.7.4 1.4.5 2.6 1.4 3.5 2.6.9 1.3 1.5 2.8 1.8 4.4.2.7.2 1.5.2 2.2 0 .7 0 1.5-.1 2.3.2 2 0 4 0 6 0 .7 0 1.3.1 2 .1.9.3 1.9.6 2.7.4 1 1.2 1.9 2.1 2.5l.8-1.3-.7-1.3c-2.6 1.3-5.4 2-8.3 1.9h-1.3l-.2 1.3v.5c0 1.2.7 2.4 1.8 2.9 2.1 1.1 4.2 2.1 6.3 3.2l-.4-.2.4.2c2 .8 3.8 1.8 5.6 3 .7.5 1.3 1.2 1.7 2 .4.8.6 1.7.6 2.7v5.3H79.7v3zM69.6 83.6l.6.1.2-1.5-1.5-.2c0 .2-.1.4-.2.6l-.1.1-.3.1 1.3 2.7.3-.1c.6-.3 1.1-.8 1.4-1.4.3-.5.4-1 .5-1.6l.2-1.5-1.5-.2c-.3 0-.6-.1-.9-.1v3zM53.8 92c-.3.6-.5 1.2-.7 1.9l2.9.6c.1-.4.2-.8.4-1.1L53.8 92z"/></svg>