<svg xmlns="http://www.w3.org/2000/svg" width="22" height="18" viewBox="286.64 411.984 22 18"><title>ico_report</title><path fill="#484848" d="M307.778 427.407h-20.275c-.475 0-.863-.377-.863-.837v-13.749c0-.46.388-.837.863-.837h20.275c.474 0 .862.377.862.837v13.749c0 .46-.389.837-.862.837zm-20.275-14.858a.28.28 0 0 0-.28.272v13.749c0 .146.129.272.28.272h20.275c.15 0 .28-.126.28-.272v-13.749a.282.282 0 0 0-.28-.272h-20.275z"/><path fill="#484848" d="M299.948 429.981a.281.281 0 0 1-.259-.168l-1.078-2.406h-1.92l-1.078 2.406a.295.295 0 0 1-.388.146c-.151-.063-.216-.229-.151-.355l1.229-2.762h2.674l1.229 2.741c.065.146 0 .313-.15.355-.022.043-.066.043-.108.043z"/><path fill="#484848" d="M301.63 429.981h-7.98c-.151 0-.28-.126-.28-.272s.129-.271.28-.271h7.98c.151 0 .28.125.28.271s-.129.272-.28.272zm6.73-5.002h-21.44c-.151 0-.28-.125-.28-.271s.129-.272.28-.272h21.418c.15 0 .28.126.28.272.022.146-.108.271-.258.271zm-6.794-2.72h-7.851a.284.284 0 0 1-.259-.146.303.303 0 0 1 0-.272l3.925-6.55a.314.314 0 0 1 .41-.084c.021.021.065.042.086.084l3.926 6.55a.303.303 0 0 1 0 .272.296.296 0 0 1-.237.146zm-7.334-.565h6.837l-3.43-5.713-3.407 5.713z"/><path fill="#484848" d="M297.64 419.978a.28.28 0 0 1-.28-.272v-1.611a.29.29 0 0 1 .323-.251c.129.021.259.126.259.251v1.611a.318.318 0 0 1-.302.272z"/><ellipse fill="#484848" cx="297.64" cy="420.689" rx=".345" ry=".335"/></svg>