<svg id="Layer_1" xmlns="http://www.w3.org/2000/svg" viewBox="0 0 120 120"><style>.st0{fill:#484848}</style><title>ico_consult</title><path class="st0" d="M93.2 61.9h-3V35.5c0-13-10.6-23.6-23.6-23.5H53.4c-13 0-23.6 10.5-23.6 23.5v26.3h-3V35.5C26.8 20.9 38.7 9 53.4 9h13.2c14.7 0 26.6 11.9 26.6 26.5v26.4z"/><path class="st0" d="M93.2 35.5h-3c0-13-10.6-23.6-23.6-23.5H53.4c-13 0-23.6 10.5-23.6 23.5h-3C26.8 20.9 38.7 9 53.4 9h13.2c14.7 0 26.6 11.9 26.6 26.5zM76.1 69.9c-1.4 0-2.9 0-4.4-.1s-3.3-.1-5-.1v-3c1.8 0 3.5 0 5.1.1 7.1.1 13.2.3 16.2-2.6 1.6-1.5 2.4-4 2.4-7.5h3c0 4.3-1.1 7.5-3.3 9.6-3.2 3.1-8.2 3.6-14 3.6zm-46.3-6.5h-1.5c-5.8 0-10.2-6-10.2-11.5 0-5.6 4.6-10.2 10.2-10.2v3c-4 0-7.2 3.2-7.2 7.2 0 3.8 3.2 8.5 7.2 8.5v.2h1.5v2.8z"/><path class="st0" d="M91.7 63.4h-1.5v-2.8h1.5v-.2c4 0 7.2-4.6 7.2-8.5 0-4-3.2-7.2-7.2-7.2v-3c5.6 0 10.2 4.5 10.2 10.2 0 5.4-4.3 11.5-10.2 11.5zM63.4 73h-3.1c-2.6 0-4.7-2.1-4.7-4.7s2.1-4.7 4.7-4.7h3.1c2.6 0 4.7 2.1 4.7 4.7S66 73 63.4 73zm-3.1-6.4c-.9 0-1.7.8-1.7 1.7s.8 1.7 1.7 1.7h3.1c.9 0 1.7-.8 1.7-1.7s-.8-1.7-1.7-1.7h-3.1z"/><path class="st0" d="M106.5 111h-93c-.8 0-1.5-.7-1.5-1.5v-.2c.1-20.3 12.4-31.2 35.6-31.7v-8.7c-9.2-2.6-11-14.1-10.6-20.1v-9.5c0-12.1 9.7-20.9 23-20.9s23 8.8 23 20.9v9.6c.1 1.7.3 10.4-2.9 13-.6.5-1.6.5-2.1-.2s-.5-1.6.2-2.1c1.5-1.2 1.9-7.1 1.8-10.7v-9.7c0-10.4-8.4-17.9-20-17.9s-20 7.5-20 17.9v9.6c0 .3-.9 15.5 9.4 17.3.7.1 1.2.8 1.2 1.5V79c0 .8-.7 1.5-1.5 1.5-22 0-33.5 9.2-34 27.4H105c-.6-18.2-12-27.4-34-27.4-.8 0-1.5-.7-1.5-1.5s.7-1.5 1.5-1.5c24.2 0 37.1 11 37.1 31.9 0 .8-.6 1.5-1.5 1.6h-.1z"/></svg>