<svg xmlns="http://www.w3.org/2000/svg" width="50" height="56" viewBox="272.865 392.945 50 56"><title>ico_social</title><path fill="#484848" d="M281.071 431.896c-.185 0-.37-.062-.555-.249l-3.206-3.235c-5.917-5.911-5.917-15.556-.062-21.467l.062-.062c2.835-2.862 6.78-4.293 10.787-3.982 4.007.311 7.828 2.115 10.664 4.978l1.232 1.182c.309.311.309.747 0 1.058-.309.312-.802.312-1.048 0l-1.233-1.182c-2.65-2.551-6.041-4.169-9.739-4.48-3.575-.311-7.027.996-9.616 3.484-5.301 5.351-5.301 14-.062 19.351l.062.063 3.206 3.235c.308.312.308.747 0 1.058-.06.186-.245.248-.492.248zm29.094 6.098c-1.109 0-2.157-.436-2.897-1.244l-6.903-6.906c-.309-.312-.309-.747 0-1.059.308-.311.801-.311 1.048 0l6.903 6.845a2.662 2.662 0 0 0 3.698 0c1.048-.995 1.048-2.676 0-3.733l-6.903-6.845c-.309-.311-.309-.746 0-1.058.309-.311.802-.311 1.048 0l6.966 6.907a4.158 4.158 0 0 1 0 5.849 4.138 4.138 0 0 1-2.96 1.244z"/><path fill="#484848" d="M305.419 442.785c-.679 0-1.356-.187-1.973-.497-.37-.188-.493-.685-.309-1.058.186-.374.678-.498 1.048-.312 1.048.56 2.281.373 3.082-.436 1.048-.996 1.048-2.676 0-3.733l-6.903-6.906c-.309-.312-.309-.747 0-1.059.308-.311.801-.311 1.048 0l6.903 6.845a4.158 4.158 0 0 1 0 5.849c-.739.81-1.786 1.307-2.896 1.307zm-21.451-6.907a3.803 3.803 0 0 1-2.712-1.12 3.856 3.856 0 0 1 0-5.413l3.637-3.609c1.479-1.493 3.883-1.493 5.424 0a3.858 3.858 0 0 1 0 5.414l-3.637 3.608c-.678.747-1.664 1.12-2.712 1.12zm3.637-9.768a2.23 2.23 0 0 0-1.603.685l-3.637 3.608a2.233 2.233 0 0 0 0 3.235 2.369 2.369 0 0 0 3.267 0l3.637-3.608a2.308 2.308 0 0 0 0-3.298c-.493-.373-1.048-.622-1.664-.622z"/><path fill="#484848" d="M288.344 440.234c-2.096 0-3.822-1.68-3.822-3.857 0-.996.37-1.991 1.11-2.738l3.637-3.608c1.479-1.494 3.883-1.494 5.424 0a3.856 3.856 0 0 1 0 5.413l-3.637 3.671a3.805 3.805 0 0 1-2.712 1.119zm3.637-9.769a2.23 2.23 0 0 0-1.603.685l-3.637 3.608a2.307 2.307 0 0 0 0 3.298c.924.934 2.342.934 3.267 0l3.575-3.609a2.305 2.305 0 0 0 0-3.297 2.332 2.332 0 0 0-1.602-.685zm-1.479 8.089z"/><path fill="#484848" d="M292.659 444.589a3.803 3.803 0 0 1-2.712-1.12 3.856 3.856 0 0 1 0-5.413l3.637-3.609a3.963 3.963 0 0 1 5.424 0 3.858 3.858 0 0 1 0 5.414l-3.637 3.608a3.802 3.802 0 0 1-2.712 1.12zm3.637-9.768c-.617 0-1.171.249-1.603.685l-3.637 3.608a2.233 2.233 0 0 0 0 3.235 2.369 2.369 0 0 0 3.267 0l3.637-3.608c.925-.871.925-2.364 0-3.298-.493-.373-1.048-.622-1.664-.622z"/><path fill="#484848" d="M296.974 448.945c-2.096 0-3.822-1.68-3.822-3.857 0-.996.37-1.991 1.109-2.738l3.637-3.608c1.479-1.493 3.884-1.493 5.425 0a3.856 3.856 0 0 1 0 5.413l-3.638 3.609c-.738.808-1.663 1.181-2.711 1.181zm3.637-9.769a2.23 2.23 0 0 0-1.603.685l-3.637 3.608a2.308 2.308 0 0 0 0 3.298 2.369 2.369 0 0 0 3.267 0l3.637-3.608a2.307 2.307 0 0 0 0-3.298c-.493-.436-1.047-.685-1.664-.685zm14.362-6.036c-1.109 0-2.157-.435-2.896-1.244l-6.904-6.845c-.308-.311-.308-.746 0-1.058.309-.311.802-.311 1.048 0l6.904 6.907a2.664 2.664 0 0 0 3.698 0c1.048-.996 1.048-2.676 0-3.733l-12.821-12.88-5.794 5.725c-1.479 1.494-3.884 1.494-5.425 0-1.603-1.556-1.726-4.044-.308-5.476l5.917-4.916a15.997 15.997 0 0 1 9.985-4.667c3.761-.311 7.459.996 10.171 3.671 2.65 2.613 4.253 6.222 4.314 9.956a13.8 13.8 0 0 1-3.76 9.707c.37 2.239-1.171 4.418-3.452 4.729-.245.124-.493.124-.677.124zm-10.972-20.72c.185 0 .37.063.555.249l13.314 13.44c.185.187.369.436.555.685 1.911-2.24 2.897-5.103 2.835-8.089-.062-3.36-1.479-6.596-3.883-8.96a11.174 11.174 0 0 0-8.938-3.236 14.63 14.63 0 0 0-9.061 4.293l-5.856 4.854c-.863.871-.493 2.364.37 3.235.924.934 2.342.934 3.267 0l6.349-6.222c.123-.124.308-.186.493-.249zm-4.561-5.786c-.247 0-.432-.125-.555-.311s-2.342-4.542-2.342-7.218c0-2.675 2.281-5.787 2.404-5.911s.309-.249.493-.249a.56.56 0 0 1 .493.249c.123.125 2.404 3.173 2.404 5.911s-2.22 7.031-2.343 7.218c-.123.249-.308.373-.554.311zm0-12.009c-.616.996-1.664 2.862-1.664 4.48s1.048 4.107 1.664 5.538c.616-1.431 1.664-3.92 1.664-5.538s-1.048-3.484-1.664-4.48z"/></svg>