<svg xmlns="http://www.w3.org/2000/svg" width="18" height="25" viewBox="288.64 413.216 18 25"><title>ico_retirement</title><g fill="#484848"><path d="M296.247 432.448c-.135 0-.225-.091-.27-.182l-1.438-5.769c-.045-.137.045-.273.18-.318.135-.046.27.045.314.182l1.438 5.769c.045.137-.045.272-.18.318h-.044z"/><path d="M296.247 432.448h-.045c-.135-.046-.225-.182-.18-.318l1.438-5.769c.045-.137.18-.228.314-.182.135.045.225.182.18.318l-1.438 5.769c-.044.091-.134.182-.269.182z"/><path d="M299.078 432.448c-.135 0-.225-.091-.27-.182l-1.438-5.769c-.045-.137.045-.273.18-.318.135-.046.27.045.314.182l1.438 5.769c.045.137-.045.272-.18.318h-.044z"/><path d="M299.078 432.448h-.045c-.135-.046-.225-.182-.18-.318l1.438-5.769c.045-.137.18-.228.314-.182.135.045.225.182.18.318l-1.438 5.769c-.044.091-.134.182-.269.182z"/><path d="M301.865 428.405h-8.495c-.135 0-.27-.137-.27-.272 0-.137.135-.272.27-.272h8.495c.135 0 .27.136.27.272 0 .181-.09.272-.27.272zm-.584 1.817H294c-.135 0-.27-.137-.27-.273s.135-.272.27-.272h7.281c.135 0 .27.137.27.272-.001.136-.136.273-.27.273z"/><path d="M297.64 438.216c-3.461 0-6.248-1.271-7.775-3.543-1.438-2.181-1.618-4.951-.495-7.813 1.663-4.315 4.36-6.405 8.27-6.405 3.91 0 6.652 2.09 8.27 6.405 1.123 2.906.943 5.678-.495 7.813-1.527 2.272-4.314 3.543-7.775 3.543zm0-17.124c-2.337 0-5.618.636-7.686 5.996-1.034 2.68-.854 5.224.449 7.177 1.394 2.09 4 3.271 7.236 3.271 3.236 0 5.842-1.181 7.236-3.271 1.304-1.953 1.483-4.497.449-7.177-2.066-5.406-5.391-5.996-7.684-5.996zm.809-2.317c-.09 0-.225-.045-.27-.136a.391.391 0 0 1 0-.318c.09-.227 2.517-4.77 4.854-5.087.675-.091 1.304.182 1.753.682.045.091.989 1.135.494 2.316-.539 1.408-2.831 2.27-6.831 2.543zm4.854-4.905h-.18c-1.483.182-3.235 2.725-4.09 4.179 4.314-.409 5.394-1.454 5.618-2.089.314-.818-.359-1.59-.359-1.59-.224-.319-.584-.455-.989-.5zm-6.472 4.905c-4-.272-6.292-1.135-6.832-2.543-.45-1.181.449-2.226.494-2.271.405-.545 1.079-.772 1.753-.727 2.337.318 4.764 4.86 4.854 5.042a.391.391 0 0 1 0 .318c-.044.136-.134.181-.269.181zm-4.854-4.905c-.405 0-.764.182-1.034.5 0 0-.674.772-.36 1.59.225.636 1.304 1.681 5.618 2.089-.854-1.454-2.607-3.952-4.09-4.179h-.134z"/></g></svg>