<svg xmlns="http://www.w3.org/2000/svg" width="595.279" height="841.89" viewBox="0 0 595.279 841.89"><title>ico_recruit</title><path fill="#484848" d="M294.229 441.004c-12.309.061-22.335-9.951-22.396-22.315s9.907-22.437 22.216-22.497c12.309-.061 22.335 9.952 22.396 22.316v.121c.059 12.303-9.908 22.316-22.216 22.375zm0-43.304c-11.468-.061-20.774 9.288-20.834 20.808s9.247 20.929 20.714 20.929c11.468.06 20.835-9.289 20.895-20.809v-.061c-.001-11.519-9.307-20.867-20.775-20.867z"/><path fill="#484848" d="M309.299 434.31a.664.664 0 0 1-.601-.362 1.12 1.12 0 0 1-.119-.422c0-6.092-3.604-9.168-10.748-9.168a.796.796 0 0 1-.78-.784v-3.739c0-.362.3-.724.66-.784.841-.121 1.261-1.387 1.261-1.387 0-.061.061-.121.061-.181.24-.362.66-.482 1.021-.422.36.061.9.121 1.621-1.146.12-.241.36-.724.24-1.025a.957.957 0 0 0-.841-.482c-.36-.061-.601-.422-.601-.784v-3.137c0-3.438-2.762-6.212-6.184-6.212-.42 0-.78-.362-.78-.784s.36-.784.78-.784c4.263.061 7.625 3.498 7.625 7.78v2.594c.54.181 1.021.603 1.321 1.146.3.784.239 1.688-.301 2.413-1.021 1.809-2.161 1.93-2.822 1.93-.359.784-.9 1.388-1.681 1.75v2.413c7.505.241 11.468 3.92 11.528 10.675.121.54-.239.842-.66.902z"/><path fill="#484848" d="M279.219 434.31a.797.797 0 0 1-.781-.784v-.061c0-6.755 4.023-10.374 11.528-10.615v-2.412c-.721-.362-1.321-1.025-1.681-1.749-.661 0-1.801-.121-2.822-1.93-.48-.724-.601-1.628-.3-2.413.3-.543.72-.965 1.321-1.146v-2.593c0-4.282 3.422-7.781 7.686-7.781.42 0 .78.362.78.784s-.36.784-.78.784c-3.423 0-6.185 2.774-6.185 6.212v3.136c0 .362-.24.664-.601.784-.36.06-.6.241-.84.482-.12.301.06.784.24 1.025.72 1.207 1.201 1.146 1.621 1.146.42-.06.78.061 1.021.422.06.061.06.121.06.181 0 0 .42 1.267 1.261 1.387.36.06.661.362.661.784v3.618c0 .423-.36.784-.781.784-7.145 0-10.747 3.076-10.747 9.168.119.425-.241.787-.661.787zm39.087 11.882c-.541 0-1.021-.241-1.381-.604l-9.247-9.228 1.081-1.086 9.187 9.228c.18.182.48.182.66 0l1.562-1.567a.476.476 0 0 0 0-.664l-9.127-9.228 1.081-1.086 9.126 9.229c.781.783.781 2.05 0 2.834l-1.561 1.568c-.361.363-.901.604-1.381.604z"/></svg>