<svg id="Layer_1" xmlns="http://www.w3.org/2000/svg" viewBox="0 0 60 60"><style>.st0{fill:#484848}</style><title>ico_etc</title><path class="st0" d="M22.5 25.6c-3.5 0-6.4-2.9-6.4-6.4 0-3.5 2.9-6.4 6.4-6.4 1.1 0 2.2.3 3.2.9 3.1 1.7 4.1 5.6 2.4 8.7v.1c-1.2 2-3.3 3.2-5.6 3.1zm0-11.2c-1.8 0-3.4.9-4.3 2.5-1.3 2.4-.5 5.3 1.8 6.7 2.4 1.3 5.4.5 6.8-1.8 1.4-2.3.6-5.3-1.8-6.7-.8-.5-1.6-.8-2.5-.7zm18.8.4h-9.4c-.4 0-.7-.3-.7-.7 0-.4.3-.7.7-.7h9.4c.4 0 .7.3.7.7.1.4-.3.7-.7.7zm0 5.7h-9.4c-.4 0-.7-.3-.7-.7 0-.4.3-.7.7-.7h9.4c.4 0 .7.3.7.7.1.4-.3.7-.7.7zm0 5.8h-9.4c-.4 0-.7-.3-.7-.7 0-.4.3-.7.7-.7h9.4c.4 0 .7.3.7.7.1.3-.3.7-.7.7zm0 5.7H17.2c-.4 0-.7-.3-.7-.7 0-.4.3-.7.7-.7h24.2c.4 0 .7.3.7.7 0 .4-.4.7-.8.7zm0 5.7H17.2c-.4 0-.7-.3-.7-.7 0-.4.3-.7.7-.7h24.2c.4 0 .7.3.7.7 0 .4-.4.7-.8.7zm0 5.7H17.2c-.4 0-.7-.3-.7-.7 0-.4.3-.7.7-.7h24.2c.4 0 .7.3.7.7 0 .4-.4.7-.8.7z"/><path class="st0" d="M25.1 25c-.3 0-.5-.2-.7-.4L22.3 20l-4.8-2.8c-.4-.2-.5-.6-.3-1 .2-.3.6-.5 1-.3l5 2.9.3.3 2.2 4.9c.2.4 0 .8-.3 1h-.3z"/><path class="st0" d="M44 55H9.7c-.4 0-.7-.3-.7-.7V5.7c0-.4.3-.7.7-.7h40.5c.5 0 .8.3.8.7v41.4c0 .2-.1.3-.2.5l-6.2 7.1c-.1.2-.3.3-.6.3zm-33.5-1.5h33.3l5.8-6.6V6.5H10.5v47zm39.8-6.4z"/><path class="st0" d="M44 55c-.4 0-.7-.3-.7-.7v-7.1c0-.4.3-.7.7-.7h6.2c.4 0 .7.3.7.7 0 .4-.3.7-.7.7h-5.5v6.4c.1.4-.3.7-.7.7z"/></svg>