<svg xmlns="http://www.w3.org/2000/svg" width="56" height="45" viewBox="269.648 398.446 56 45"><title>ico_noblerich</title><path fill="#484848" d="M315.898 443.446h-36.161c-2.834 0-5.214-2.138-5.441-4.95l-2.097-29.925c0-.338.17-.619.453-.731a.726.726 0 0 1 .851.225l8.332 9.337 7.368-11.082c.113-.225.396-.337.624-.337.283 0 .51.113.624.337l7.312 10.969 7.085-10.969c.17-.225.396-.337.68-.337s.51.169.624.394l6.574 11.081 9.408-9.45a.797.797 0 0 1 .851-.168c.283.112.453.45.453.731l-2.153 29.925c-.172 2.755-2.553 4.95-5.387 4.95zm-41.999-32.738l1.927 27.675c.17 2.024 1.87 3.543 3.911 3.543h36.161c2.041 0 3.741-1.574 3.911-3.543l1.983-27.844-8.615 8.606c-.17.169-.396.225-.623.225s-.453-.169-.567-.337l-6.461-10.913-7.085 10.913c-.113.225-.396.337-.623.337-.284 0-.51-.113-.624-.337l-7.312-10.969-7.255 10.969c-.227.337-.737.45-1.077.225-.057-.056-.114-.056-.17-.112l-7.481-8.438zm46.646 27.731z"/><path fill="#484848" d="M289.883 433.095c-.227 0-.397-.112-.567-.281l-3.911-4.443a.839.839 0 0 1 0-1.013l3.911-4.443c.283-.338.793-.338 1.134 0l3.911 4.443a.839.839 0 0 1 0 1.013l-3.911 4.443a.69.69 0 0 1-.567.281zm-2.891-5.118l2.891 3.263 2.891-3.263-2.891-3.263-2.891 3.263zm18.534 5.118c-.227 0-.396-.112-.566-.281l-3.911-4.443a.839.839 0 0 1 0-1.013l3.911-4.443c.283-.338.793-.338 1.133 0l3.911 4.443a.839.839 0 0 1 0 1.013l-3.911 4.443c-.114.226-.341.281-.567.281zm-2.834-5.118l2.891 3.263 2.891-3.263-2.891-3.263-2.891 3.263zm18.137 5.118a.728.728 0 0 1-.567-.225l-4.591-4.726a.778.778 0 0 1 0-1.068l.057-.056 5.215-4.106a.773.773 0 0 1 .85-.057.643.643 0 0 1 .396.731l-.566 8.774c-.114.452-.397.733-.794.733zm-3.514-5.399l2.834 2.925.34-5.4-3.174 2.475zm-42.509 5.399c-.396 0-.737-.281-.793-.731l-.566-8.774c0-.281.113-.563.396-.731.284-.112.567-.112.85.057l5.214 4.106c.34.225.397.73.114 1.068l-.057.056-4.591 4.726a.731.731 0 0 1-.567.223zm.284-7.875l.34 5.4 2.834-2.925-3.174-2.475zm0 12.151h45.342v1.182H275.09zm14.793-33.807c-1.417 0-2.551-1.181-2.551-2.588 0-1.406 1.19-2.531 2.607-2.531s2.55 1.125 2.55 2.531c-.056 1.407-1.189 2.588-2.606 2.588zm0-3.6c-.567 0-1.077.506-1.02 1.069s.51 1.068 1.077 1.012c.567 0 1.02-.45 1.02-1.069-.001-.561-.511-1.068-1.077-1.012 0-.056 0-.056 0 0zm15.643 3.6a2.53 2.53 0 1 1 0-5.062 2.53 2.53 0 0 1 2.551 2.531c.056 1.35-1.134 2.475-2.551 2.531zm0-3.6c-.566 0-1.077.506-1.021 1.069s.511 1.068 1.077 1.012c.567 0 1.021-.45 1.021-1.069 0-.561-.453-1.068-1.077-1.012.056-.056.056-.056 0 0zm-33.327 3.6c-1.417 0-2.551-1.181-2.551-2.588 0-1.406 1.19-2.531 2.607-2.531s2.55 1.125 2.55 2.531c-.056 1.407-1.189 2.588-2.606 2.588zm0-3.6c-.567 0-1.077.506-1.021 1.069.057.563.51 1.068 1.077 1.012.567 0 1.02-.45 1.02-1.069.001-.561-.509-1.068-1.076-1.012 0-.056 0-.056 0 0zm50.897 3.6a2.53 2.53 0 1 1 0-5.062 2.53 2.53 0 0 1 2.551 2.531c.056 1.35-1.134 2.531-2.551 2.531zm0-3.6c-.566 0-1.077.506-1.021 1.069s.511 1.068 1.077 1.012c.566 0 1.021-.45 1.021-1.069 0-.561-.454-1.068-1.077-1.012.057-.056 0-.056 0 0z"/></svg>