<svg id="Layer_1" xmlns="http://www.w3.org/2000/svg" viewBox="0 0 120 120"><style>.st0{fill:#484848}</style><title>ico_connect</title><path class="st0" d="M106 103.5V102H15.5V18h89v85.5h1.5V102v1.5h1.5V15h-95v90h95v-1.5z"/><path class="st0" d="M77.7 50.8l6.1 6 8.5-10.4-2.3-1.9-6.5 7.8-3.7-3.6zm0 16.8l6.1 6 8.5-10.5-2.3-1.9-6.5 7.9-3.7-3.7zm-47.2 0l6.2 6 8.5-10.5-2.4-1.9-6.4 7.9-3.7-3.7zm-1 19l6.1 6 8.5-10.5-2.4-1.9-6.4 7.9-3.7-3.6zm29-70.1v87h3v-87M49.9 33.4v-1.5H26.3v-4.1h22.1v5.6h1.5v-1.5 1.5h1.5v-8.6H23.3v10.1h28.1v-1.5zm45.8 0v-1.5H72.1v-4.1h22.1v5.6h1.5v-1.5 1.5h1.5v-8.6H69.1v10.1h28.1v-1.5z"/><ellipse class="st0" cx="36.4" cy="48.2" rx="2.9" ry="2.8"/><ellipse class="st0" cx="84.2" cy="90.3" rx="2.9" ry="2.8"/></svg>