<svg xmlns="http://www.w3.org/2000/svg" width="54" height="48" viewBox="271.384 396.945 54 48"><title>ico_VOC</title><path fill="#484848" d="M280.393 440.366c-.11 0-.165 0-.275-.056-.33-.11-.494-.386-.494-.717v-11.09h-7.471a.753.753 0 0 1-.769-.772v-30.014c0-.441.33-.772.769-.772h41.64c.439 0 .769.331.769.772v30.014a.752.752 0 0 1-.769.772h-23.896l-8.899 11.586c-.165.166-.385.277-.605.277zm-7.526-13.408h7.471c.439 0 .769.331.769.772v9.655l7.801-10.151a.88.88 0 0 1 .604-.276h23.511V398.49h-40.156v28.468z"/><path fill="#484848" d="M317.418 444.945c-.22 0-.438-.11-.604-.275l-6.593-8.553H295.17c-.44 0-.77-.33-.77-.771v-4.801c0-.441.33-.772.77-.772.439 0 .769.331.769.772v4.028h14.722c.22 0 .439.11.604.275l5.493 7.117v-6.62c0-.441.33-.772.77-.772h6.317v-27.642h-7.142c-.439 0-.769-.331-.769-.772s.329-.772.769-.772h7.911c.439 0 .769.331.769.772v29.131a.752.752 0 0 1-.769.772h-6.482v8.11c0 .331-.22.606-.495.718-.054.055-.163.055-.219.055zm-14.721-37.793H278.47c-.439 0-.769-.331-.769-.772s.33-.772.769-.772h24.226c.439 0 .769.331.769.772s-.329.772-.768.772zm-6.263 5.682H278.47c-.439 0-.769-.331-.769-.772s.33-.772.769-.772h17.963c.439 0 .769.331.769.772.001.386-.329.772-.768.772z"/></svg>