<svg id="Layer_1" xmlns="http://www.w3.org/2000/svg" viewBox="0 0 120 120"><style>.st0{fill:#484848}</style><title>ico_company</title><path class="st0" d="M37.8 101h-18c-.7 0-1.3-.6-1.3-1.3V32.5c0-.4.2-.8.6-1.1l18.1-12.2c.4-.3.9-.3 1.3-.1.4.2.7.7.7 1.1v79.5c-.1.7-.7 1.3-1.4 1.3zM21 98.5h15.5V22.7L21 33.2v65.3z"/><path class="st0" d="M28.8 48c-.7 0-1.3-.6-1.3-1.3v-6.9c0-.7.6-1.3 1.3-1.3s1.3.6 1.3 1.3v6.9c-.1.7-.6 1.3-1.3 1.3zm0 14.7c-.7 0-1.3-.6-1.3-1.3v-6.9c0-.7.6-1.3 1.3-1.3s1.3.6 1.3 1.3v6.9c-.1.7-.6 1.3-1.3 1.3zm0 14.7c-.7 0-1.3-.6-1.3-1.3v-6.9c0-.7.6-1.3 1.3-1.3s1.3.6 1.3 1.3v6.9c0 .7-.6 1.3-1.3 1.3zm0 14.7c-.7 0-1.3-.6-1.3-1.3V84c0-.7.6-1.3 1.3-1.3s1.2.6 1.2 1.3v6.9c0 .7-.5 1.2-1.2 1.2zm71.5 8.9H82.2c-.7 0-1.3-.6-1.3-1.3V20.3c0-.5.3-.9.7-1.1.4-.2.9-.2 1.3.1L101 31.4c.4.2.6.6.6 1.1v67.2c0 .7-.6 1.3-1.3 1.3zm-16.9-2.5H99V33.2L83.4 22.7v75.8z"/><path class="st0" d="M91.2 48c-.7 0-1.3-.6-1.3-1.3v-6.9c0-.7.6-1.3 1.3-1.3s1.3.6 1.3 1.3v6.9c0 .7-.6 1.3-1.3 1.3zm0 14.7c-.7 0-1.3-.6-1.3-1.3v-6.9c0-.7.6-1.3 1.3-1.3s1.3.6 1.3 1.3v6.9c0 .7-.6 1.3-1.3 1.3zm0 14.7c-.7 0-1.3-.6-1.3-1.3v-6.9c0-.7.6-1.3 1.3-1.3s1.3.6 1.3 1.3v6.9c0 .7-.6 1.3-1.3 1.3zm0 14.7c-.7 0-1.3-.6-1.3-1.3V84c0-.7.6-1.3 1.3-1.3s1.3.6 1.3 1.3v6.9c0 .7-.6 1.2-1.3 1.2zM46.7 39.6c-.7 0-1.3-.6-1.3-1.3v-6.9c0-.7.6-1.3 1.3-1.3s1.3.6 1.3 1.3v6.9c0 .7-.6 1.3-1.3 1.3zm8.9 0c-.7 0-1.3-.6-1.3-1.3v-6.9c0-.7.6-1.3 1.3-1.3s1.3.6 1.3 1.3v6.9c-.1.7-.6 1.3-1.3 1.3zm8.8 0c-.7 0-1.3-.6-1.3-1.3v-6.9c0-.7.6-1.3 1.3-1.3s1.3.6 1.3 1.3v6.9c0 .7-.6 1.3-1.3 1.3zm8.9 0c-.7 0-1.3-.6-1.3-1.3v-6.9c0-.7.6-1.3 1.3-1.3s1.3.6 1.3 1.3v6.9c-.1.7-.6 1.3-1.3 1.3zM46.7 55.3c-.7 0-1.3-.6-1.3-1.3v-6.8c0-.7.6-1.3 1.3-1.3s1.3.6 1.3 1.3V54c0 .7-.6 1.2-1.3 1.3zm8.9 0c-.7 0-1.3-.6-1.3-1.3v-6.8c0-.7.6-1.3 1.3-1.3s1.3.6 1.3 1.3V54c-.1.7-.6 1.2-1.3 1.3zm8.8 0c-.7 0-1.3-.6-1.3-1.3v-6.8c0-.7.6-1.3 1.3-1.3s1.3.6 1.3 1.3V54c-.1.7-.6 1.2-1.3 1.3zm8.9 0c-.7 0-1.3-.6-1.3-1.3v-6.8c0-.7.6-1.3 1.3-1.3s1.3.6 1.3 1.3V54c-.1.7-.7 1.2-1.3 1.3zM46.7 70.9c-.7 0-1.3-.6-1.3-1.3v-6.9c0-.7.6-1.3 1.3-1.3s1.3.6 1.3 1.3v6.9c0 .8-.6 1.3-1.3 1.3zm8.9 0c-.7 0-1.3-.6-1.3-1.3v-6.9c0-.7.6-1.3 1.3-1.3s1.3.6 1.3 1.3v6.9c-.1.8-.6 1.3-1.3 1.3zm8.8 0c-.7 0-1.3-.6-1.3-1.3v-6.9c0-.7.6-1.3 1.3-1.3s1.3.6 1.3 1.3v6.9c0 .8-.6 1.3-1.3 1.3zm8.9 0c-.7 0-1.3-.6-1.3-1.3v-6.9c0-.7.6-1.3 1.3-1.3s1.3.6 1.3 1.3v6.9c-.1.8-.6 1.3-1.3 1.3zM67.6 101H52.4c-.7 0-1.3-.6-1.3-1.3V80.6c0-.7.6-1.3 1.2-1.3h15.3c.7 0 1.3.6 1.3 1.3v19.1c0 .7-.6 1.3-1.3 1.3.1 0 .1 0 0 0zm-14-2.5h12.7V81.9H53.6v16.6z"/><path class="st0" d="M82.2 101H37.8c-.7 0-1.3-.6-1.3-1.3V20.3c0-.7.6-1.3 1.2-1.3h44.4c.7 0 1.3.6 1.3 1.3v79.5c0 .6-.5 1.2-1.2 1.2zM39 98.5h41.9v-77H39.1l-.1 77z"/></svg>