<svg id="Layer_1" xmlns="http://www.w3.org/2000/svg" viewBox="0 0 120 120"><style>.st0{fill:#484848}</style><title>ico_claim</title><path class="st0" d="M55.9 99.9H15V9h70.5v20.4h3.1V6H12v97h43.9zm29.6-48.1v48.1H62.2v3.1h26.4V51.8z"/><path class="st0" d="M65.1 57.9v-1.6H28.7v-3.7h34.8v5.3h1.6v-1.6 1.6h1.5v-8.3h-41v9.8h41v-1.5zM53.6 69.8v-1.5H28.7v-3.7H52v5.2h1.6v-1.5 1.5h1.5v-8.3H25.6v9.8h29.5v-1.5zM66.4 96l-1.2-.9-8.8 11.3 2.9-13.9L94 18.1l5.8 2.7-34.7 74.6 1.3.6-1.2-.9 1.2.9 1.4.6 35.4-76c.3-.8 0-1.7-.7-2l-8.6-4c-.8-.3-1.6 0-2 .7l-35.4 76c0 .1-.1.2-.1.3L52.1 112c-.2.8.4 1.6 1.2 1.8.6.1 1.1-.1 1.5-.5L67.7 97c.1-.1.1-.2.2-.3l-1.5-.7z"/><path class="st0" d="M88.8 48.1l-8.6-4-1.3 2.7 8.6 4m6.2 1.2L108 21.2l-5.5-2.6-1.3 2.8 2.8 1.3-13.1 28zm-28.6-7.5V43H28.7v-3.7h34.8v5.2h1.6V43v1.5h1.5v-8.3h-41V46h41v-1.5zm0-13.8v-1.5H28.7v-3.7h34.8v5.2h1.6v-1.5 1.5h1.5v-8.2h-41v9.8h41v-1.6z"/></svg>