<svg xmlns="http://www.w3.org/2000/svg" width="51" height="51" viewBox="272.14 395.445 51 51"><title>ico_cafe</title><path fill="#484848" d="M297.176 446.445h-9.066c-8.809 0-15.97-7.16-15.97-15.97v-20.4a2.364 2.364 0 0 1 2.37-2.37h36.215a2.364 2.364 0 0 1 2.37 2.37v20.348c0 8.81-7.109 16.022-15.919 16.022zm-22.666-37.246a.902.902 0 0 0-.875.876v20.348c0 7.985 6.439 14.477 14.424 14.477h9.067c7.985 0 14.424-6.491 14.424-14.477v-20.348a.903.903 0 0 0-.876-.876H274.51z"/><path fill="#484848" d="M312.373 432.896h-.772v-1.545h.772c5.1 0 9.272-3.297 9.272-7.264s-4.173-7.264-9.272-7.264h-.772v-1.545h.772c5.924 0 10.767 3.966 10.767 8.809s-4.843 8.809-10.767 8.809zm-23.491-4.379h-9.479a.792.792 0 0 1-.773-.772v-11.848c0-.412.361-.773.773-.773h9.479c.413 0 .773.361.773.773v11.9c0 .36-.36.72-.773.72zm-8.705-1.545h7.984v-10.354h-8.036l.052 10.354zm5.666-22.615a.792.792 0 0 1-.773-.772v-5.564c0-.412.361-.772.773-.772s.772.36.772.772v5.564c0 .412-.36.772-.772.772zm6.8.876a.792.792 0 0 1-.772-.773v-8.242c0-.413.36-.773.772-.773s.773.36.773.773v8.294c-.052.412-.361.721-.773.721zm6.749-.876a.792.792 0 0 1-.773-.772v-5.564c0-.412.361-.772.773-.772s.772.36.772.772v5.564c0 .412-.36.772-.772.772z"/><path fill="#484848" d="M284.143 416.618a.792.792 0 0 1-.772-.773v-7.367c0-.412.36-.772.772-.772s.773.36.773.772v7.418c0 .413-.361.722-.773.722z"/></svg>