<svg xmlns="http://www.w3.org/2000/svg" width="11" height="9" viewBox="0 0 11 9"><path fill="#333" d="M11 .437L6.034 4.5 11 8.557 10.468 9 5.5 4.937.533 8.988 0 8.552 4.967 4.5 0 .448.533.011 5.5 4.063 10.468 0 11 .437zM2.682 4.5c0 .181-.084.34-.253.478a.897.897 0 0 1-.583.206.894.894 0 0 1-.584-.204c-.169-.135-.252-.295-.252-.48 0-.189.081-.35.244-.484a.906.906 0 0 1 .592-.2.89.89 0 0 1 .587.207c.166.137.249.296.249.477zM5.5.82c.23 0 .428.067.591.204.163.135.245.293.245.475 0 .188-.082.35-.245.483a.902.902 0 0 1-.591.2.893.893 0 0 1-.588-.207c-.165-.137-.248-.296-.248-.477 0-.177.083-.334.248-.472A.897.897 0 0 1 5.5.82zm0 5.986c.216 0 .409.065.58.198a.591.591 0 0 1 .256.486.606.606 0 0 1-.245.484.907.907 0 0 1-.591.2.893.893 0 0 1-.588-.207c-.165-.136-.248-.296-.248-.477 0-.188.085-.35.256-.483s.364-.201.58-.201zM9.998 4.5c0 .181-.084.34-.252.478a.898.898 0 0 1-.584.206.882.882 0 0 1-.591-.209c-.163-.14-.245-.298-.245-.475s.081-.335.242-.475a.878.878 0 0 1 .595-.209.89.89 0 0 1 .588.207c.164.137.247.296.247.477z"/></svg>